<svg width="146" height="53" viewBox="0 0 146 53" fill="none" xmlns="http://www.w3.org/2000/svg">
<rect width="146" height="53" rx="24" fill="#6F8B73"/>
<path d="M30.8722 24.1818H25.6648C25.6278 23.7509 25.5294 23.3601 25.3693 23.0092C25.2154 22.6584 25 22.3568 24.723 22.1044C24.4522 21.8459 24.1229 21.6489 23.7351 21.5135C23.3473 21.3719 22.9072 21.3011 22.4148 21.3011C21.553 21.3011 20.8236 21.5104 20.2266 21.929C19.6357 22.3475 19.1863 22.9477 18.8786 23.7294C18.5769 24.5111 18.4261 25.4498 18.4261 26.5455C18.4261 27.7027 18.58 28.6721 18.8878 29.4538C19.2017 30.2294 19.6541 30.8142 20.245 31.2081C20.8359 31.5959 21.5469 31.7898 22.3778 31.7898C22.8518 31.7898 23.2765 31.7313 23.652 31.6143C24.0275 31.4912 24.3537 31.3158 24.6307 31.0881C24.9077 30.8603 25.1323 30.5864 25.3047 30.2663C25.4832 29.9401 25.6032 29.5739 25.6648 29.1676L30.8722 29.2045C30.8106 30.0047 30.5859 30.8203 30.1982 31.6513C29.8104 32.4761 29.2595 33.2393 28.5455 33.9411C27.8376 34.6366 26.9605 35.1967 25.9141 35.6214C24.8677 36.0462 23.652 36.2585 22.267 36.2585C20.5312 36.2585 18.974 35.8861 17.5952 35.1413C16.2225 34.3965 15.1361 33.3009 14.3359 31.8544C13.5419 30.4079 13.1449 28.6383 13.1449 26.5455C13.1449 24.4403 13.5511 22.6676 14.3636 21.2273C15.1761 19.7808 16.2718 18.6882 17.6506 17.9496C19.0294 17.2048 20.5682 16.8324 22.267 16.8324C23.4612 16.8324 24.5599 16.9955 25.5632 17.3217C26.5665 17.648 27.4467 18.125 28.2038 18.7528C28.9609 19.3745 29.5703 20.1409 30.032 21.0518C30.4936 21.9628 30.7737 23.0062 30.8722 24.1818ZM40.1074 36.2585C38.5686 36.2585 37.2514 35.9538 36.1557 35.3445C35.0601 34.7289 34.2199 33.8733 33.6351 32.7777C33.0504 31.6759 32.758 30.3987 32.758 28.946C32.758 27.4934 33.0504 26.2192 33.6351 25.1236C34.2199 24.0218 35.0601 23.1662 36.1557 22.5568C37.2514 21.9413 38.5686 21.6335 40.1074 21.6335C41.6462 21.6335 42.9635 21.9413 44.0591 22.5568C45.1548 23.1662 45.995 24.0218 46.5797 25.1236C47.1645 26.2192 47.4569 27.4934 47.4569 28.946C47.4569 30.3987 47.1645 31.6759 46.5797 32.7777C45.995 33.8733 45.1548 34.7289 44.0591 35.3445C42.9635 35.9538 41.6462 36.2585 40.1074 36.2585ZM40.1444 32.4915C40.5752 32.4915 40.9476 32.3468 41.2615 32.0575C41.5755 31.7682 41.8186 31.3558 41.9909 30.8203C42.1633 30.2848 42.2495 29.6477 42.2495 28.9091C42.2495 28.1643 42.1633 27.5272 41.9909 26.9979C41.8186 26.4624 41.5755 26.05 41.2615 25.7607C40.9476 25.4714 40.5752 25.3267 40.1444 25.3267C39.6889 25.3267 39.298 25.4714 38.9718 25.7607C38.6455 26.05 38.3962 26.4624 38.2239 26.9979C38.0516 27.5272 37.9654 28.1643 37.9654 28.9091C37.9654 29.6477 38.0516 30.2848 38.2239 30.8203C38.3962 31.3558 38.6455 31.7682 38.9718 32.0575C39.298 32.3468 39.6889 32.4915 40.1444 32.4915ZM54.6216 28.0227V36H49.525V21.8182H54.3631V24.5142H54.5108C54.8186 23.6155 55.3603 22.9107 56.1358 22.3999C56.9176 21.889 57.8285 21.6335 58.8688 21.6335C59.8721 21.6335 60.7431 21.8643 61.4817 22.326C62.2265 22.7815 62.802 23.4093 63.2083 24.2095C63.6207 25.0097 63.8238 25.9238 63.8176 26.9517V36H58.7211V28.0227C58.7272 27.321 58.5487 26.7701 58.1855 26.37C57.8285 25.9699 57.33 25.7699 56.6898 25.7699C56.2712 25.7699 55.905 25.8622 55.5911 26.0469C55.2833 26.2254 55.0463 26.4839 54.8801 26.8224C54.714 27.1548 54.6278 27.5549 54.6216 28.0227ZM74.791 21.8182V25.5114H65.4473V21.8182H74.791ZM67.2569 18.4205H72.3535V31.4389C72.3535 31.6359 72.3874 31.8021 72.4551 31.9375C72.5228 32.0668 72.6274 32.1652 72.769 32.233C72.9106 32.2945 73.0922 32.3253 73.3137 32.3253C73.4676 32.3253 73.6461 32.3068 73.8493 32.2699C74.0585 32.233 74.2124 32.2022 74.3109 32.1776L75.0495 35.7599C74.8218 35.8277 74.4956 35.9107 74.0708 36.0092C73.6523 36.1077 73.1537 36.1723 72.5751 36.2031C71.4056 36.2647 70.4238 36.1446 69.6298 35.843C68.8358 35.5353 68.2387 35.0521 67.8386 34.3935C67.4385 33.7348 67.2446 32.91 67.2569 31.919V18.4205ZM76.8707 36V21.8182H81.9673V36H76.8707ZM79.419 20.3409C78.7296 20.3409 78.1387 20.1132 77.6463 19.6577C77.1539 19.2022 76.9077 18.6544 76.9077 18.0142C76.9077 17.3741 77.1539 16.8262 77.6463 16.3707C78.1387 15.9152 78.7296 15.6875 79.419 15.6875C80.1146 15.6875 80.7055 15.9152 81.1918 16.3707C81.6842 16.8262 81.9304 17.3741 81.9304 18.0142C81.9304 18.6544 81.6842 19.2022 81.1918 19.6577C80.7055 20.1132 80.1146 20.3409 79.419 20.3409ZM89.6607 28.0227V36H84.5641V21.8182H89.4022V24.5142H89.5499C89.8577 23.6155 90.3993 22.9107 91.1749 22.3999C91.9566 21.889 92.8676 21.6335 93.9078 21.6335C94.9112 21.6335 95.7821 21.8643 96.5208 22.326C97.2656 22.7815 97.8411 23.4093 98.2473 24.2095C98.6597 25.0097 98.8629 25.9238 98.8567 26.9517V36H93.7601V28.0227C93.7663 27.321 93.5878 26.7701 93.2246 26.37C92.8676 25.9699 92.369 25.7699 91.7289 25.7699C91.3103 25.7699 90.9441 25.8622 90.6301 26.0469C90.3224 26.2254 90.0854 26.4839 89.9192 26.8224C89.753 27.1548 89.6668 27.5549 89.6607 28.0227ZM110.569 29.7955V21.8182H115.665V36H110.827V33.304H110.68C110.372 34.2088 109.833 34.9167 109.064 35.4276C108.294 35.9323 107.38 36.1847 106.322 36.1847C105.331 36.1847 104.463 35.9569 103.718 35.5014C102.979 35.0459 102.404 34.4181 101.991 33.6179C101.585 32.8177 101.379 31.9006 101.373 30.8665V21.8182H106.469V29.7955C106.475 30.4972 106.654 31.0481 107.005 31.4482C107.362 31.8482 107.86 32.0483 108.501 32.0483C108.925 32.0483 109.291 31.959 109.599 31.7805C109.913 31.5959 110.153 31.3374 110.319 31.005C110.492 30.6664 110.575 30.2633 110.569 29.7955ZM125.053 36.2585C123.539 36.2585 122.234 35.9692 121.138 35.3906C120.049 34.8059 119.208 33.9687 118.618 32.8793C118.033 31.7836 117.74 30.4725 117.74 28.946C117.74 27.4811 118.036 26.2008 118.627 25.1051C119.218 24.0095 120.052 23.157 121.129 22.5476C122.206 21.9382 123.477 21.6335 124.942 21.6335C126.013 21.6335 126.983 21.7997 127.85 22.1321C128.718 22.4645 129.46 22.9477 130.076 23.5817C130.691 24.2095 131.165 24.9728 131.498 25.8714C131.83 26.7701 131.996 27.7827 131.996 28.9091V30.0909H119.328V27.2841H127.306C127.3 26.8778 127.195 26.5208 126.992 26.2131C126.795 25.8991 126.527 25.656 126.189 25.4837C125.856 25.3052 125.478 25.2159 125.053 25.2159C124.641 25.2159 124.262 25.3052 123.917 25.4837C123.573 25.656 123.296 25.8961 123.086 26.2038C122.883 26.5116 122.775 26.8717 122.763 27.2841V30.3125C122.763 30.768 122.859 31.1742 123.049 31.5312C123.24 31.8883 123.514 32.1683 123.871 32.3714C124.228 32.5746 124.659 32.6761 125.164 32.6761C125.515 32.6761 125.835 32.6269 126.124 32.5284C126.419 32.4299 126.672 32.2884 126.881 32.1037C127.09 31.9129 127.244 31.6851 127.343 31.4205H131.996C131.836 32.4053 131.458 33.2609 130.86 33.9872C130.263 34.7074 129.472 35.2675 128.488 35.6676C127.509 36.0616 126.364 36.2585 125.053 36.2585Z" fill="#F2F2F2"/>
</svg>
