<svg width="420" height="600" viewBox="0 0 420 600" fill="none" xmlns="http://www.w3.org/2000/svg">
<rect width="420" height="600" rx="47" fill="#011921"/>
<path d="M56.3352 95L48.6136 68.8182H56.5398L60.1193 84.9261H60.3239L64.5682 68.8182H70.8068L75.0511 84.9773H75.2557L78.8352 68.8182H86.7614L79.0398 95H72.2386L67.7898 80.375H67.5852L63.1364 95H56.3352ZM96.2887 95.358C94.1921 95.358 92.3853 94.9574 90.8683 94.1562C89.3597 93.3466 88.1964 92.1875 87.3782 90.679C86.5685 89.1619 86.1637 87.3466 86.1637 85.233C86.1637 83.2045 86.5728 81.4318 87.391 79.9148C88.2092 78.3977 89.364 77.2173 90.8555 76.3736C92.3469 75.5298 94.1069 75.108 96.1353 75.108C97.6183 75.108 98.9606 75.3381 100.162 75.7983C101.364 76.2585 102.391 76.9276 103.243 77.8054C104.096 78.6747 104.752 79.7315 105.212 80.9759C105.672 82.2202 105.902 83.6222 105.902 85.1818V86.8182H88.3626V82.9318H99.408C99.3995 82.3693 99.2546 81.875 98.9734 81.4489C98.7006 81.0142 98.3299 80.6776 97.8612 80.4389C97.4009 80.1918 96.8768 80.0682 96.2887 80.0682C95.7177 80.0682 95.1935 80.1918 94.7163 80.4389C94.239 80.6776 93.8555 81.0099 93.5657 81.4361C93.2844 81.8622 93.1353 82.3608 93.1183 82.9318V87.125C93.1183 87.7557 93.2504 88.3182 93.5146 88.8125C93.7788 89.3068 94.158 89.6946 94.6523 89.9759C95.1467 90.2571 95.7433 90.3977 96.4421 90.3977C96.9279 90.3977 97.3711 90.3295 97.7717 90.1932C98.1808 90.0568 98.5302 89.8608 98.82 89.6051C99.1097 89.3409 99.3228 89.0256 99.4592 88.6591H105.902C105.681 90.0227 105.157 91.2074 104.33 92.2131C103.503 93.2102 102.408 93.9858 101.044 94.5398C99.6893 95.0852 98.104 95.358 96.2887 95.358ZM115.839 68.8182V95H108.782V68.8182H115.839ZM128.895 95.358C126.764 95.358 124.94 94.9361 123.423 94.0923C121.906 93.2401 120.743 92.0554 119.933 90.5384C119.123 89.0128 118.718 87.2443 118.718 85.233C118.718 83.2216 119.123 81.4574 119.933 79.9403C120.743 78.4148 121.906 77.2301 123.423 76.3864C124.94 75.5341 126.764 75.108 128.895 75.108C130.821 75.108 132.487 75.4574 133.893 76.1562C135.308 76.8466 136.403 77.8267 137.179 79.0966C137.954 80.358 138.346 81.8409 138.355 83.5455H131.809C131.716 82.5142 131.417 81.7301 130.914 81.1932C130.42 80.6477 129.781 80.375 128.997 80.375C128.383 80.375 127.846 80.554 127.386 80.9119C126.926 81.2614 126.568 81.794 126.312 82.5099C126.056 83.2173 125.929 84.108 125.929 85.1818C125.929 86.2557 126.056 87.1506 126.312 87.8665C126.568 88.5739 126.926 89.1065 127.386 89.4645C127.846 89.8139 128.383 89.9886 128.997 89.9886C129.517 89.9886 129.977 89.8693 130.377 89.6307C130.778 89.3835 131.102 89.0256 131.349 88.5568C131.605 88.0795 131.758 87.5 131.809 86.8182H138.355C138.329 88.5483 137.933 90.0568 137.166 91.3438C136.399 92.6222 135.312 93.6108 133.906 94.3097C132.508 95.0085 130.838 95.358 128.895 95.358ZM150.727 95.358C148.596 95.358 146.772 94.9361 145.255 94.0923C143.738 93.2401 142.575 92.0554 141.765 90.5384C140.955 89.0128 140.55 87.2443 140.55 85.233C140.55 83.2216 140.955 81.4574 141.765 79.9403C142.575 78.4148 143.738 77.2301 145.255 76.3864C146.772 75.5341 148.596 75.108 150.727 75.108C152.857 75.108 154.681 75.5341 156.198 76.3864C157.715 77.2301 158.879 78.4148 159.688 79.9403C160.498 81.4574 160.903 83.2216 160.903 85.233C160.903 87.2443 160.498 89.0128 159.688 90.5384C158.879 92.0554 157.715 93.2401 156.198 94.0923C154.681 94.9361 152.857 95.358 150.727 95.358ZM150.778 90.142C151.374 90.142 151.89 89.9418 152.325 89.5412C152.759 89.1406 153.096 88.5696 153.335 87.8281C153.573 87.0866 153.692 86.2045 153.692 85.1818C153.692 84.1506 153.573 83.2685 153.335 82.5355C153.096 81.794 152.759 81.223 152.325 80.8224C151.89 80.4219 151.374 80.2216 150.778 80.2216C150.147 80.2216 149.606 80.4219 149.154 80.8224C148.702 81.223 148.357 81.794 148.119 82.5355C147.88 83.2685 147.761 84.1506 147.761 85.1818C147.761 86.2045 147.88 87.0866 148.119 87.8281C148.357 88.5696 148.702 89.1406 149.154 89.5412C149.606 89.9418 150.147 90.142 150.778 90.142ZM163.766 95V75.3636H170.465V79.0966H170.67C171.079 77.8693 171.778 76.8977 172.766 76.1818C173.755 75.4659 174.931 75.108 176.295 75.108C177.675 75.108 178.864 75.4744 179.862 76.2074C180.859 76.9318 181.46 77.8949 181.664 79.0966H181.869C182.201 77.8949 182.908 76.9318 183.991 76.2074C185.073 75.4744 186.343 75.108 187.8 75.108C189.684 75.108 191.21 75.7131 192.377 76.9233C193.553 78.1335 194.141 79.7443 194.141 81.7557V95H187.085V83.5455C187.085 82.6847 186.867 82.0114 186.433 81.5256C185.998 81.0312 185.414 80.7841 184.681 80.7841C183.957 80.7841 183.381 81.0312 182.955 81.5256C182.538 82.0114 182.329 82.6847 182.329 83.5455V95H175.579V83.5455C175.579 82.6847 175.362 82.0114 174.927 81.5256C174.492 81.0312 173.908 80.7841 173.175 80.7841C172.69 80.7841 172.272 80.8949 171.923 81.1165C171.573 81.3381 171.3 81.6577 171.104 82.0753C170.917 82.4844 170.823 82.9744 170.823 83.5455V95H163.766ZM207.031 95.358C204.934 95.358 203.127 94.9574 201.61 94.1562C200.102 93.3466 198.939 92.1875 198.12 90.679C197.311 89.1619 196.906 87.3466 196.906 85.233C196.906 83.2045 197.315 81.4318 198.133 79.9148C198.951 78.3977 200.106 77.2173 201.598 76.3736C203.089 75.5298 204.849 75.108 206.877 75.108C208.36 75.108 209.703 75.3381 210.904 75.7983C212.106 76.2585 213.133 76.9276 213.985 77.8054C214.838 78.6747 215.494 79.7315 215.954 80.9759C216.414 82.2202 216.645 83.6222 216.645 85.1818V86.8182H199.105V82.9318H210.15C210.142 82.3693 209.997 81.875 209.716 81.4489C209.443 81.0142 209.072 80.6776 208.603 80.4389C208.143 80.1918 207.619 80.0682 207.031 80.0682C206.46 80.0682 205.936 80.1918 205.458 80.4389C204.981 80.6776 204.598 81.0099 204.308 81.4361C204.027 81.8622 203.877 82.3608 203.86 82.9318V87.125C203.86 87.7557 203.993 88.3182 204.257 88.8125C204.521 89.3068 204.9 89.6946 205.395 89.9759C205.889 90.2571 206.485 90.3977 207.184 90.3977C207.67 90.3977 208.113 90.3295 208.514 90.1932C208.923 90.0568 209.272 89.8608 209.562 89.6051C209.852 89.3409 210.065 89.0256 210.201 88.6591H216.645C216.423 90.0227 215.899 91.2074 215.072 92.2131C214.245 93.2102 213.15 93.9858 211.787 94.5398C210.431 95.0852 208.846 95.358 207.031 95.358ZM225.878 74.5455V68.8182H248.634V74.5455H240.759V95H233.753V74.5455H225.878ZM258.023 95.358C255.893 95.358 254.069 94.9361 252.552 94.0923C251.035 93.2401 249.871 92.0554 249.062 90.5384C248.252 89.0128 247.847 87.2443 247.847 85.233C247.847 83.2216 248.252 81.4574 249.062 79.9403C249.871 78.4148 251.035 77.2301 252.552 76.3864C254.069 75.5341 255.893 75.108 258.023 75.108C260.154 75.108 261.978 75.5341 263.495 76.3864C265.012 77.2301 266.175 78.4148 266.985 79.9403C267.795 81.4574 268.2 83.2216 268.2 85.233C268.2 87.2443 267.795 89.0128 266.985 90.5384C266.175 92.0554 265.012 93.2401 263.495 94.0923C261.978 94.9361 260.154 95.358 258.023 95.358ZM258.075 90.142C258.671 90.142 259.187 89.9418 259.621 89.5412C260.056 89.1406 260.393 88.5696 260.631 87.8281C260.87 87.0866 260.989 86.2045 260.989 85.1818C260.989 84.1506 260.87 83.2685 260.631 82.5355C260.393 81.794 260.056 81.223 259.621 80.8224C259.187 80.4219 258.671 80.2216 258.075 80.2216C257.444 80.2216 256.903 80.4219 256.451 80.8224C255.999 81.223 255.654 81.794 255.415 82.5355C255.177 83.2685 255.058 84.1506 255.058 85.1818C255.058 86.2045 255.177 87.0866 255.415 87.8281C255.654 88.5696 255.999 89.1406 256.451 89.5412C256.903 89.9418 257.444 90.142 258.075 90.142ZM284.781 95L277.059 68.8182H284.985L288.565 84.9261H288.769L293.013 68.8182H299.252L303.496 84.9773H303.701L307.281 68.8182H315.207L307.485 95H300.684L296.235 80.375H296.031L291.582 95H284.781ZM320.797 95.3068C319.544 95.3068 318.436 95.1023 317.473 94.6932C316.518 94.2756 315.768 93.6449 315.223 92.8011C314.677 91.9574 314.404 90.8835 314.404 89.5795C314.404 88.5057 314.588 87.5895 314.954 86.831C315.321 86.0639 315.832 85.4375 316.488 84.9517C317.145 84.4659 317.907 84.0952 318.777 83.8395C319.654 83.5838 320.6 83.4176 321.615 83.3409C322.714 83.2557 323.596 83.1534 324.261 83.0341C324.934 82.9062 325.42 82.7315 325.718 82.5099C326.017 82.2798 326.166 81.9773 326.166 81.6023V81.5511C326.166 81.0398 325.97 80.6477 325.578 80.375C325.186 80.1023 324.683 79.9659 324.069 79.9659C323.396 79.9659 322.846 80.1151 322.42 80.4134C322.002 80.7031 321.751 81.1506 321.666 81.7557H315.172C315.257 80.5625 315.636 79.4631 316.309 78.4574C316.991 77.4432 317.984 76.6335 319.288 76.0284C320.592 75.4148 322.22 75.108 324.172 75.108C325.578 75.108 326.839 75.2741 327.956 75.6065C329.072 75.9304 330.022 76.3864 330.806 76.9744C331.591 77.554 332.187 78.2358 332.596 79.0199C333.014 79.7955 333.223 80.6392 333.223 81.5511V95H326.626V92.2386H326.473C326.081 92.9716 325.603 93.5639 325.041 94.0156C324.487 94.4673 323.852 94.7955 323.136 95C322.429 95.2045 321.649 95.3068 320.797 95.3068ZM323.098 90.858C323.635 90.858 324.137 90.7472 324.606 90.5256C325.083 90.304 325.471 89.9844 325.77 89.5668C326.068 89.1491 326.217 88.642 326.217 88.0455V86.4091C326.029 86.4858 325.829 86.5582 325.616 86.6264C325.412 86.6946 325.19 86.7585 324.951 86.8182C324.721 86.8778 324.474 86.9332 324.21 86.9844C323.954 87.0355 323.686 87.0824 323.404 87.125C322.859 87.2102 322.412 87.3509 322.062 87.5469C321.721 87.7344 321.466 87.9688 321.295 88.25C321.133 88.5227 321.052 88.8295 321.052 89.1705C321.052 89.7159 321.244 90.1335 321.627 90.4233C322.011 90.7131 322.501 90.858 323.098 90.858ZM336.594 95V75.3636H343.447V79.0966H343.651C344.009 77.7159 344.576 76.706 345.352 76.0668C346.136 75.4276 347.052 75.108 348.1 75.108C348.407 75.108 348.71 75.1335 349.008 75.1847C349.315 75.2273 349.609 75.2912 349.89 75.3764V81.3977C349.54 81.2784 349.11 81.1889 348.599 81.1293C348.087 81.0696 347.648 81.0398 347.282 81.0398C346.592 81.0398 345.969 81.1974 345.415 81.5128C344.87 81.8196 344.44 82.2543 344.124 82.8168C343.809 83.3707 343.651 84.0227 343.651 84.7727V95H336.594ZM357.369 86.8182V86.2045C357.369 84.7983 357.479 83.6776 357.701 82.8423C357.923 82.0071 358.251 81.3381 358.685 80.8352C359.12 80.3239 359.653 79.8636 360.283 79.4545C360.829 79.0966 361.315 78.7514 361.741 78.419C362.175 78.0866 362.516 77.733 362.763 77.358C363.019 76.983 363.147 76.5568 363.147 76.0795C363.147 75.6534 363.045 75.2784 362.84 74.9545C362.636 74.6307 362.359 74.3793 362.009 74.2003C361.66 74.0213 361.272 73.9318 360.846 73.9318C360.386 73.9318 359.96 74.0384 359.567 74.2514C359.184 74.4645 358.873 74.7585 358.634 75.1335C358.404 75.5085 358.289 75.9432 358.289 76.4375H351.744C351.761 74.5625 352.187 73.0412 353.022 71.8736C353.857 70.6974 354.965 69.8366 356.346 69.2912C357.727 68.7372 359.244 68.4602 360.897 68.4602C362.721 68.4602 364.349 68.7287 365.781 69.2656C367.212 69.794 368.342 70.5952 369.168 71.669C369.995 72.7344 370.408 74.0682 370.408 75.6705C370.408 76.7017 370.229 77.6094 369.871 78.3935C369.522 79.169 369.032 79.8551 368.401 80.4517C367.779 81.0398 367.05 81.5767 366.215 82.0625C365.602 82.4205 365.086 82.7912 364.668 83.1747C364.251 83.5497 363.935 83.9801 363.722 84.4659C363.509 84.9432 363.403 85.5227 363.403 86.2045V86.8182H357.369ZM360.488 95.4091C359.499 95.4091 358.651 95.0639 357.944 94.3736C357.245 93.6747 356.9 92.8267 356.908 91.8295C356.9 90.858 357.245 90.027 357.944 89.3366C358.651 88.6463 359.499 88.3011 360.488 88.3011C361.425 88.3011 362.252 88.6463 362.968 89.3366C363.692 90.027 364.059 90.858 364.067 91.8295C364.059 92.4943 363.884 93.0994 363.543 93.6449C363.211 94.1818 362.776 94.6122 362.239 94.9361C361.702 95.2514 361.119 95.4091 360.488 95.4091Z" fill="#00E7B0"/>
<path d="M118.973 113.5C118.926 112.908 118.704 112.446 118.307 112.115C117.917 111.784 117.322 111.618 116.523 111.618C116.014 111.618 115.596 111.68 115.271 111.804C114.951 111.923 114.715 112.085 114.561 112.293C114.407 112.5 114.327 112.737 114.321 113.003C114.309 113.222 114.348 113.42 114.436 113.598C114.531 113.769 114.679 113.926 114.88 114.068C115.082 114.204 115.339 114.329 115.653 114.441C115.966 114.554 116.339 114.654 116.771 114.743L118.263 115.062C119.269 115.276 120.13 115.557 120.846 115.906C121.562 116.255 122.148 116.666 122.604 117.14C123.06 117.607 123.394 118.134 123.607 118.72C123.826 119.306 123.939 119.945 123.945 120.638C123.939 121.833 123.64 122.845 123.048 123.674C122.456 124.503 121.61 125.133 120.509 125.565C119.414 125.997 118.097 126.213 116.558 126.213C114.978 126.213 113.599 125.979 112.421 125.512C111.249 125.044 110.338 124.325 109.687 123.354C109.042 122.378 108.716 121.129 108.71 119.608H113.398C113.427 120.164 113.566 120.632 113.815 121.011C114.064 121.389 114.413 121.676 114.863 121.872C115.318 122.067 115.86 122.165 116.487 122.165C117.014 122.165 117.455 122.1 117.81 121.969C118.165 121.839 118.434 121.659 118.618 121.428C118.801 121.197 118.896 120.934 118.902 120.638C118.896 120.36 118.804 120.117 118.627 119.91C118.455 119.697 118.171 119.507 117.775 119.342C117.378 119.17 116.842 119.01 116.168 118.862L114.357 118.472C112.747 118.122 111.477 117.539 110.548 116.723C109.625 115.9 109.166 114.778 109.172 113.358C109.166 112.204 109.474 111.195 110.095 110.331C110.723 109.461 111.59 108.783 112.696 108.298C113.809 107.812 115.085 107.57 116.523 107.57C117.991 107.57 119.26 107.815 120.331 108.306C121.403 108.798 122.228 109.49 122.808 110.384C123.394 111.272 123.69 112.31 123.696 113.5H118.973ZM132.427 126.249C130.971 126.249 129.717 125.97 128.663 125.414C127.616 124.852 126.808 124.047 126.24 122.999C125.677 121.946 125.396 120.685 125.396 119.217C125.396 117.809 125.68 116.578 126.248 115.524C126.817 114.471 127.619 113.651 128.654 113.065C129.69 112.479 130.912 112.186 132.321 112.186C133.351 112.186 134.283 112.346 135.117 112.665C135.952 112.985 136.665 113.45 137.257 114.059C137.849 114.663 138.305 115.397 138.624 116.261C138.944 117.125 139.104 118.099 139.104 119.182V120.318H126.923V117.619H134.594C134.588 117.229 134.487 116.885 134.292 116.589C134.102 116.288 133.845 116.054 133.519 115.888C133.2 115.717 132.836 115.631 132.427 115.631C132.031 115.631 131.667 115.717 131.335 115.888C131.004 116.054 130.738 116.285 130.536 116.581C130.341 116.877 130.238 117.223 130.226 117.619V120.531C130.226 120.969 130.317 121.36 130.501 121.703C130.684 122.046 130.948 122.316 131.291 122.511C131.634 122.706 132.049 122.804 132.534 122.804C132.871 122.804 133.179 122.757 133.457 122.662C133.741 122.567 133.984 122.431 134.185 122.254C134.386 122.07 134.534 121.851 134.629 121.597H139.104C138.95 122.544 138.586 123.366 138.012 124.065C137.437 124.757 136.677 125.296 135.73 125.68C134.789 126.059 133.688 126.249 132.427 126.249ZM146.004 107.818V126H141.103V107.818H146.004ZM155.035 126.249C153.579 126.249 152.324 125.97 151.271 125.414C150.223 124.852 149.415 124.047 148.847 122.999C148.285 121.946 148.004 120.685 148.004 119.217C148.004 117.809 148.288 116.578 148.856 115.524C149.424 114.471 150.226 113.651 151.262 113.065C152.297 112.479 153.52 112.186 154.928 112.186C155.958 112.186 156.89 112.346 157.725 112.665C158.559 112.985 159.272 113.45 159.864 114.059C160.456 114.663 160.912 115.397 161.232 116.261C161.551 117.125 161.711 118.099 161.711 119.182V120.318H149.531V117.619H157.201C157.195 117.229 157.094 116.885 156.899 116.589C156.71 116.288 156.452 116.054 156.127 115.888C155.807 115.717 155.443 115.631 155.035 115.631C154.638 115.631 154.274 115.717 153.943 115.888C153.611 116.054 153.345 116.285 153.144 116.581C152.949 116.877 152.845 117.223 152.833 117.619V120.531C152.833 120.969 152.925 121.36 153.108 121.703C153.292 122.046 153.555 122.316 153.898 122.511C154.242 122.706 154.656 122.804 155.141 122.804C155.479 122.804 155.786 122.757 156.065 122.662C156.349 122.567 156.591 122.431 156.793 122.254C156.994 122.07 157.142 121.851 157.237 121.597H161.711C161.557 122.544 161.193 123.366 160.619 124.065C160.045 124.757 159.284 125.296 158.337 125.68C157.396 126.059 156.295 126.249 155.035 126.249ZM170.28 126.249C168.801 126.249 167.534 125.956 166.481 125.37C165.427 124.778 164.619 123.955 164.057 122.902C163.495 121.842 163.214 120.614 163.214 119.217C163.214 117.821 163.495 116.595 164.057 115.542C164.619 114.482 165.427 113.66 166.481 113.074C167.534 112.482 168.801 112.186 170.28 112.186C171.618 112.186 172.775 112.429 173.752 112.914C174.734 113.393 175.495 114.074 176.033 114.956C176.572 115.832 176.844 116.862 176.85 118.045H172.304C172.239 117.329 172.032 116.785 171.683 116.412C171.34 116.033 170.896 115.844 170.351 115.844C169.925 115.844 169.552 115.968 169.233 116.217C168.913 116.459 168.665 116.829 168.487 117.326C168.309 117.818 168.221 118.436 168.221 119.182C168.221 119.928 168.309 120.549 168.487 121.046C168.665 121.537 168.913 121.907 169.233 122.156C169.552 122.399 169.925 122.52 170.351 122.52C170.712 122.52 171.032 122.437 171.31 122.271C171.588 122.1 171.813 121.851 171.985 121.526C172.162 121.194 172.269 120.792 172.304 120.318H176.85C176.832 121.52 176.557 122.567 176.024 123.461C175.492 124.349 174.737 125.035 173.76 125.521C172.79 126.006 171.63 126.249 170.28 126.249ZM187.004 112.364V115.915H178.02V112.364H187.004ZM179.76 109.097H184.66V121.614C184.66 121.804 184.693 121.964 184.758 122.094C184.823 122.218 184.924 122.313 185.06 122.378C185.196 122.437 185.37 122.467 185.583 122.467C185.731 122.467 185.903 122.449 186.098 122.413C186.3 122.378 186.448 122.348 186.542 122.325L187.252 125.769C187.033 125.834 186.72 125.914 186.311 126.009C185.909 126.104 185.43 126.166 184.873 126.195C183.749 126.254 182.805 126.139 182.041 125.849C181.278 125.553 180.704 125.089 180.319 124.455C179.934 123.822 179.748 123.029 179.76 122.076V109.097ZM197.784 126.213C196.914 126.213 196.144 126.071 195.476 125.787C194.813 125.497 194.292 125.059 193.913 124.473C193.534 123.887 193.345 123.141 193.345 122.236C193.345 121.49 193.472 120.854 193.727 120.327C193.981 119.794 194.336 119.359 194.792 119.022C195.248 118.685 195.777 118.427 196.381 118.25C196.991 118.072 197.648 117.957 198.352 117.903C199.116 117.844 199.728 117.773 200.19 117.69C200.657 117.602 200.995 117.48 201.202 117.326C201.409 117.167 201.513 116.956 201.513 116.696V116.661C201.513 116.305 201.376 116.033 201.104 115.844C200.832 115.654 200.483 115.56 200.057 115.56C199.589 115.56 199.207 115.663 198.911 115.87C198.621 116.072 198.447 116.382 198.388 116.803H193.878C193.937 115.974 194.2 115.21 194.668 114.512C195.141 113.808 195.831 113.246 196.736 112.825C197.642 112.399 198.772 112.186 200.128 112.186C201.104 112.186 201.98 112.301 202.755 112.532C203.531 112.757 204.191 113.074 204.735 113.482C205.28 113.885 205.694 114.358 205.978 114.903C206.268 115.441 206.413 116.027 206.413 116.661V126H201.832V124.082H201.726C201.453 124.591 201.122 125.003 200.731 125.316C200.347 125.63 199.906 125.858 199.408 126C198.917 126.142 198.376 126.213 197.784 126.213ZM199.382 123.124C199.755 123.124 200.104 123.047 200.429 122.893C200.761 122.739 201.03 122.517 201.237 122.227C201.444 121.937 201.548 121.585 201.548 121.17V120.034C201.418 120.087 201.279 120.138 201.131 120.185C200.989 120.232 200.835 120.277 200.669 120.318C200.509 120.36 200.338 120.398 200.154 120.434C199.977 120.469 199.79 120.502 199.595 120.531C199.216 120.59 198.905 120.688 198.663 120.824C198.426 120.954 198.248 121.117 198.13 121.312C198.018 121.502 197.961 121.715 197.961 121.952C197.961 122.33 198.095 122.621 198.361 122.822C198.627 123.023 198.968 123.124 199.382 123.124ZM225.472 113.82C225.395 113.506 225.273 113.231 225.108 112.994C224.942 112.751 224.735 112.547 224.486 112.381C224.243 112.21 223.959 112.083 223.634 112C223.314 111.911 222.962 111.866 222.577 111.866C221.749 111.866 221.042 112.065 220.456 112.461C219.876 112.858 219.432 113.429 219.124 114.175C218.822 114.92 218.671 115.82 218.671 116.874C218.671 117.939 218.816 118.85 219.106 119.608C219.396 120.366 219.828 120.946 220.402 121.348C220.976 121.75 221.69 121.952 222.542 121.952C223.294 121.952 223.918 121.842 224.415 121.623C224.918 121.404 225.294 121.094 225.543 120.691C225.791 120.289 225.915 119.815 225.915 119.271L226.768 119.359H222.613V115.844H230.674V118.365C230.674 120.022 230.322 121.44 229.618 122.618C228.919 123.789 227.954 124.689 226.723 125.316C225.498 125.938 224.093 126.249 222.506 126.249C220.737 126.249 219.183 125.873 217.846 125.121C216.508 124.369 215.463 123.298 214.712 121.907C213.966 120.516 213.593 118.862 213.593 116.945C213.593 115.441 213.821 114.11 214.277 112.95C214.738 111.79 215.377 110.81 216.194 110.011C217.011 109.206 217.955 108.599 219.026 108.191C220.098 107.777 221.246 107.57 222.471 107.57C223.548 107.57 224.548 107.723 225.472 108.031C226.401 108.333 227.221 108.765 227.931 109.327C228.647 109.884 229.224 110.544 229.662 111.307C230.1 112.071 230.366 112.908 230.461 113.82H225.472ZM239.581 126.249C238.125 126.249 236.87 125.97 235.816 125.414C234.769 124.852 233.961 124.047 233.393 122.999C232.831 121.946 232.549 120.685 232.549 119.217C232.549 117.809 232.834 116.578 233.402 115.524C233.97 114.471 234.772 113.651 235.808 113.065C236.843 112.479 238.066 112.186 239.474 112.186C240.504 112.186 241.436 112.346 242.271 112.665C243.105 112.985 243.818 113.45 244.41 114.059C245.002 114.663 245.458 115.397 245.777 116.261C246.097 117.125 246.257 118.099 246.257 119.182V120.318H234.076V117.619H241.747C241.741 117.229 241.64 116.885 241.445 116.589C241.256 116.288 240.998 116.054 240.673 115.888C240.353 115.717 239.989 115.631 239.581 115.631C239.184 115.631 238.82 115.717 238.489 115.888C238.157 116.054 237.891 116.285 237.69 116.581C237.494 116.877 237.391 117.223 237.379 117.619V120.531C237.379 120.969 237.471 121.36 237.654 121.703C237.838 122.046 238.101 122.316 238.444 122.511C238.788 122.706 239.202 122.804 239.687 122.804C240.025 122.804 240.332 122.757 240.611 122.662C240.895 122.567 241.137 122.431 241.339 122.254C241.54 122.07 241.688 121.851 241.782 121.597H246.257C246.103 122.544 245.739 123.366 245.165 124.065C244.591 124.757 243.83 125.296 242.883 125.68C241.942 126.059 240.841 126.249 239.581 126.249ZM253.157 118.33V126H248.257V112.364H252.909V114.956H253.051C253.347 114.092 253.867 113.414 254.613 112.923C255.365 112.432 256.241 112.186 257.241 112.186C258.206 112.186 259.043 112.408 259.753 112.852C260.47 113.29 261.023 113.894 261.414 114.663C261.81 115.432 262.005 116.311 261.999 117.3V126H257.099V118.33C257.105 117.655 256.933 117.125 256.584 116.74C256.241 116.356 255.761 116.163 255.146 116.163C254.743 116.163 254.391 116.252 254.089 116.43C253.793 116.601 253.566 116.85 253.406 117.175C253.246 117.495 253.163 117.88 253.157 118.33ZM269.355 126.178C268.384 126.178 267.49 125.923 266.674 125.414C265.863 124.905 265.212 124.133 264.721 123.097C264.235 122.061 263.993 120.756 263.993 119.182C263.993 117.536 264.247 116.199 264.756 115.169C265.271 114.139 265.934 113.385 266.745 112.905C267.561 112.426 268.42 112.186 269.319 112.186C269.994 112.186 270.586 112.304 271.095 112.541C271.604 112.772 272.03 113.083 272.373 113.473C272.717 113.858 272.977 114.281 273.154 114.743H273.225V107.818H278.126V126H273.261V123.763H273.154C272.965 124.224 272.693 124.639 272.338 125.006C271.989 125.367 271.562 125.654 271.059 125.867C270.562 126.074 269.994 126.178 269.355 126.178ZM271.166 122.413C271.616 122.413 272 122.283 272.32 122.023C272.645 121.756 272.894 121.384 273.066 120.904C273.243 120.419 273.332 119.845 273.332 119.182C273.332 118.507 273.243 117.93 273.066 117.451C272.894 116.965 272.645 116.595 272.32 116.341C272 116.08 271.616 115.95 271.166 115.95C270.716 115.95 270.331 116.08 270.012 116.341C269.698 116.595 269.455 116.965 269.284 117.451C269.118 117.93 269.035 118.507 269.035 119.182C269.035 119.857 269.118 120.437 269.284 120.922C269.455 121.401 269.698 121.771 270.012 122.032C270.331 122.286 270.716 122.413 271.166 122.413ZM287.066 126.249C285.61 126.249 284.355 125.97 283.302 125.414C282.254 124.852 281.446 124.047 280.878 122.999C280.316 121.946 280.035 120.685 280.035 119.217C280.035 117.809 280.319 116.578 280.887 115.524C281.455 114.471 282.257 113.651 283.293 113.065C284.329 112.479 285.551 112.186 286.96 112.186C287.989 112.186 288.922 112.346 289.756 112.665C290.591 112.985 291.304 113.45 291.896 114.059C292.487 114.663 292.943 115.397 293.263 116.261C293.582 117.125 293.742 118.099 293.742 119.182V120.318H281.562V117.619H289.232C289.226 117.229 289.126 116.885 288.93 116.589C288.741 116.288 288.484 116.054 288.158 115.888C287.838 115.717 287.474 115.631 287.066 115.631C286.67 115.631 286.306 115.717 285.974 115.888C285.643 116.054 285.376 116.285 285.175 116.581C284.98 116.877 284.876 117.223 284.864 117.619V120.531C284.864 120.969 284.956 121.36 285.14 121.703C285.323 122.046 285.586 122.316 285.93 122.511C286.273 122.706 286.687 122.804 287.173 122.804C287.51 122.804 287.818 122.757 288.096 122.662C288.38 122.567 288.623 122.431 288.824 122.254C289.025 122.07 289.173 121.851 289.268 121.597H293.742C293.588 122.544 293.224 123.366 292.65 124.065C292.076 124.757 291.316 125.296 290.369 125.68C289.428 126.059 288.327 126.249 287.066 126.249ZM295.742 126V112.364H300.5V114.956H300.642C300.891 113.997 301.285 113.296 301.823 112.852C302.368 112.408 303.004 112.186 303.732 112.186C303.945 112.186 304.155 112.204 304.362 112.239C304.575 112.269 304.78 112.313 304.975 112.373V116.554C304.732 116.471 304.433 116.409 304.078 116.368C303.723 116.326 303.418 116.305 303.164 116.305C302.684 116.305 302.252 116.415 301.868 116.634C301.489 116.847 301.19 117.149 300.971 117.539C300.752 117.924 300.642 118.377 300.642 118.898V126H295.742Z" fill="#9C9C9C"/>
<rect x="45" y="346" width="326" height="36" rx="18" fill="#6F8B73"/>
<rect x="49" y="438" width="326" height="36" rx="18" fill="#6F8B73"/>
<path d="M56.9844 339V323.727H67.723V327.068H61.1307V329.693H67.0668V333.034H61.1307V339H56.9844ZM76.0175 333.989V327.545H80.134V339H76.2263V336.822H76.107C75.8584 337.553 75.4234 338.125 74.8019 338.538C74.1805 338.945 73.4422 339.149 72.5871 339.149C71.7867 339.149 71.0857 338.965 70.4841 338.597C69.8875 338.229 69.4227 337.722 69.0896 337.076C68.7615 336.43 68.5949 335.689 68.5899 334.854V327.545H72.7064V333.989C72.7114 334.555 72.8556 335 73.1389 335.324C73.4273 335.647 73.83 335.808 74.347 335.808C74.6901 335.808 74.9859 335.736 75.2345 335.592C75.488 335.443 75.6819 335.234 75.8161 334.966C75.9553 334.692 76.0225 334.366 76.0175 333.989ZM86.3441 323.727V339H82.2276V323.727H86.3441ZM92.558 323.727V339H88.4415V323.727H92.558ZM111.994 323.727V339H108.534L103.015 330.976H102.926V339H98.7793V323.727H102.299L107.728 331.722H107.847V323.727H111.994ZM117.206 339.179C116.476 339.179 115.829 339.06 115.268 338.821C114.711 338.577 114.273 338.21 113.955 337.717C113.637 337.225 113.478 336.599 113.478 335.838C113.478 335.212 113.585 334.677 113.798 334.235C114.012 333.787 114.311 333.422 114.693 333.138C115.076 332.855 115.521 332.639 116.028 332.49C116.54 332.341 117.092 332.244 117.684 332.199C118.325 332.149 118.84 332.089 119.227 332.02C119.62 331.945 119.904 331.843 120.078 331.714C120.252 331.58 120.339 331.403 120.339 331.185V331.155C120.339 330.857 120.224 330.628 119.996 330.469C119.767 330.31 119.474 330.23 119.116 330.23C118.723 330.23 118.402 330.317 118.154 330.491C117.91 330.66 117.763 330.921 117.714 331.274H113.925C113.975 330.578 114.196 329.937 114.589 329.35C114.987 328.759 115.566 328.286 116.327 327.933C117.087 327.575 118.037 327.396 119.175 327.396C119.996 327.396 120.731 327.493 121.383 327.687C122.034 327.876 122.588 328.142 123.046 328.485C123.503 328.823 123.851 329.221 124.09 329.678C124.333 330.131 124.455 330.623 124.455 331.155V339H120.607V337.389H120.518C120.289 337.817 120.01 338.162 119.682 338.426C119.359 338.689 118.989 338.881 118.571 339C118.159 339.119 117.704 339.179 117.206 339.179ZM118.549 336.584C118.862 336.584 119.155 336.519 119.429 336.39C119.707 336.261 119.933 336.074 120.107 335.831C120.281 335.587 120.368 335.291 120.368 334.943V333.989C120.259 334.033 120.142 334.076 120.018 334.115C119.899 334.155 119.769 334.192 119.63 334.227C119.496 334.262 119.352 334.294 119.198 334.324C119.048 334.354 118.892 334.381 118.728 334.406C118.41 334.456 118.149 334.538 117.945 334.652C117.746 334.762 117.597 334.898 117.497 335.062C117.403 335.222 117.356 335.401 117.356 335.599C117.356 335.918 117.468 336.161 117.691 336.33C117.915 336.499 118.201 336.584 118.549 336.584ZM126.422 339V327.545H130.33V329.723H130.449C130.688 329.007 131.095 328.44 131.672 328.023C132.249 327.605 132.935 327.396 133.73 327.396C134.536 327.396 135.229 327.61 135.811 328.038C136.392 328.46 136.743 329.022 136.862 329.723H136.982C137.176 329.022 137.588 328.46 138.22 328.038C138.851 327.61 139.592 327.396 140.442 327.396C141.541 327.396 142.43 327.749 143.112 328.455C143.798 329.161 144.141 330.101 144.141 331.274V339H140.024V332.318C140.024 331.816 139.897 331.423 139.644 331.14C139.39 330.852 139.05 330.707 138.622 330.707C138.2 330.707 137.864 330.852 137.616 331.14C137.372 331.423 137.25 331.816 137.25 332.318V339H133.313V332.318C133.313 331.816 133.186 331.423 132.932 331.14C132.679 330.852 132.338 330.707 131.911 330.707C131.627 330.707 131.384 330.772 131.18 330.901C130.976 331.031 130.817 331.217 130.703 331.461C130.593 331.699 130.538 331.985 130.538 332.318V339H126.422ZM151.66 339.209C150.437 339.209 149.383 338.975 148.498 338.508C147.618 338.036 146.939 337.359 146.462 336.479C145.99 335.594 145.753 334.536 145.753 333.303C145.753 332.119 145.992 331.085 146.469 330.2C146.947 329.315 147.62 328.627 148.49 328.135C149.36 327.642 150.387 327.396 151.57 327.396C152.435 327.396 153.218 327.531 153.919 327.799C154.62 328.067 155.219 328.458 155.716 328.97C156.214 329.477 156.596 330.093 156.865 330.819C157.133 331.545 157.268 332.363 157.268 333.273V334.227H147.036V331.96H153.479C153.474 331.632 153.39 331.344 153.226 331.095C153.067 330.842 152.85 330.645 152.577 330.506C152.308 330.362 152.003 330.29 151.66 330.29C151.327 330.29 151.021 330.362 150.742 330.506C150.464 330.645 150.24 330.839 150.071 331.088C149.907 331.336 149.82 331.627 149.81 331.96V334.406C149.81 334.774 149.887 335.102 150.041 335.391C150.195 335.679 150.417 335.905 150.705 336.069C150.993 336.233 151.341 336.315 151.749 336.315C152.032 336.315 152.291 336.276 152.525 336.196C152.763 336.116 152.967 336.002 153.136 335.853C153.305 335.699 153.43 335.515 153.509 335.301H157.268C157.138 336.097 156.833 336.788 156.35 337.374C155.868 337.956 155.229 338.408 154.434 338.732C153.643 339.05 152.719 339.209 151.66 339.209Z" fill="#C4C4C4"/>
<path d="M62.8608 428H56.9844V412.727H62.8011C64.3722 412.727 65.7294 413.033 66.8729 413.645C68.0213 414.251 68.9063 415.126 69.5277 416.27C70.1541 417.408 70.4673 418.773 70.4673 420.364C70.4673 421.955 70.1566 423.322 69.5352 424.465C68.9137 425.604 68.0337 426.479 66.8952 427.09C65.7567 427.697 64.4119 428 62.8608 428ZM61.1307 424.48H62.7116C63.4673 424.48 64.1112 424.358 64.6431 424.115C65.18 423.871 65.5877 423.451 65.8661 422.854C66.1495 422.258 66.2912 421.428 66.2912 420.364C66.2912 419.3 66.147 418.469 65.8587 417.873C65.5753 417.276 65.1577 416.856 64.6058 416.613C64.0589 416.369 63.3878 416.247 62.5923 416.247H61.1307V424.48ZM75.6372 428.179C74.9063 428.179 74.26 428.06 73.6982 427.821C73.1414 427.577 72.7039 427.21 72.3857 426.717C72.0676 426.225 71.9085 425.599 71.9085 424.838C71.9085 424.212 72.0154 423.677 72.2291 423.235C72.4429 422.787 72.7412 422.422 73.124 422.138C73.5068 421.855 73.9518 421.639 74.4589 421.49C74.971 421.341 75.5228 421.244 76.1144 421.199C76.7558 421.149 77.2703 421.089 77.6581 421.02C78.0509 420.945 78.3343 420.843 78.5083 420.714C78.6823 420.58 78.7693 420.403 78.7693 420.185V420.155C78.7693 419.857 78.6549 419.628 78.4262 419.469C78.1975 419.31 77.9042 419.23 77.5463 419.23C77.1535 419.23 76.8328 419.317 76.5843 419.491C76.3406 419.66 76.194 419.921 76.1443 420.274H72.3559C72.4056 419.578 72.6269 418.937 73.0196 418.35C73.4173 417.759 73.9965 417.286 74.7572 416.933C75.5178 416.575 76.4674 416.396 77.6059 416.396C78.4262 416.396 79.162 416.493 79.8133 416.687C80.4646 416.876 81.0189 417.142 81.4763 417.485C81.9337 417.823 82.2817 418.221 82.5203 418.678C82.7639 419.131 82.8857 419.623 82.8857 420.155V428H79.0377V426.389H78.9482C78.7195 426.817 78.4411 427.162 78.113 427.426C77.7899 427.689 77.4195 427.881 77.0019 428C76.5892 428.119 76.1343 428.179 75.6372 428.179ZM76.9795 425.584C77.2927 425.584 77.586 425.519 77.8595 425.39C78.1379 425.261 78.3641 425.074 78.5381 424.831C78.7121 424.587 78.7991 424.291 78.7991 423.943V422.989C78.6897 423.033 78.5729 423.076 78.4486 423.115C78.3293 423.155 78.2 423.192 78.0608 423.227C77.9266 423.262 77.7824 423.294 77.6283 423.324C77.4791 423.354 77.3225 423.381 77.1585 423.406C76.8403 423.456 76.5793 423.538 76.3754 423.652C76.1766 423.762 76.0274 423.898 75.928 424.062C75.8335 424.222 75.7863 424.401 75.7863 424.599C75.7863 424.918 75.8982 425.161 76.1219 425.33C76.3456 425.499 76.6315 425.584 76.9795 425.584ZM91.6836 416.545V419.528H84.1367V416.545H91.6836ZM85.5984 413.801H89.7148V424.316C89.7148 424.475 89.7422 424.609 89.7969 424.719C89.8516 424.823 89.9361 424.903 90.0504 424.957C90.1648 425.007 90.3114 425.032 90.4904 425.032C90.6147 425.032 90.7589 425.017 90.9229 424.987C91.092 424.957 91.2163 424.933 91.2958 424.913L91.8924 427.806C91.7085 427.861 91.445 427.928 91.1019 428.007C90.7638 428.087 90.3612 428.139 89.8938 428.164C88.9492 428.214 88.1563 428.117 87.5149 427.873C86.8736 427.625 86.3913 427.234 86.0682 426.702C85.745 426.17 85.5884 425.504 85.5984 424.704V413.801ZM98.729 428.209C97.5059 428.209 96.452 427.975 95.567 427.508C94.6871 427.036 94.0084 426.359 93.5312 425.479C93.0589 424.594 92.8227 423.536 92.8227 422.303C92.8227 421.119 93.0613 420.085 93.5386 419.2C94.0159 418.315 94.6895 417.627 95.5596 417.135C96.4296 416.642 97.4562 416.396 98.6395 416.396C99.5045 416.396 100.288 416.531 100.989 416.799C101.69 417.067 102.289 417.458 102.786 417.97C103.283 418.477 103.666 419.093 103.934 419.819C104.203 420.545 104.337 421.363 104.337 422.273V423.227H94.1054V420.96H100.549C100.544 420.632 100.459 420.344 100.295 420.095C100.136 419.842 99.9197 419.645 99.6462 419.506C99.3778 419.362 99.072 419.29 98.729 419.29C98.3959 419.29 98.0901 419.362 97.8117 419.506C97.5333 419.645 97.3096 419.839 97.1405 420.088C96.9765 420.336 96.8895 420.627 96.8795 420.96V423.406C96.8795 423.774 96.9566 424.102 97.1107 424.391C97.2648 424.679 97.4861 424.905 97.7744 425.069C98.0628 425.233 98.4108 425.315 98.8184 425.315C99.1018 425.315 99.3604 425.276 99.594 425.196C99.8327 425.116 100.036 425.002 100.206 424.853C100.375 424.699 100.499 424.515 100.578 424.301H104.337C104.208 425.097 103.902 425.788 103.42 426.374C102.937 426.956 102.299 427.408 101.503 427.732C100.713 428.05 99.7879 428.209 98.729 428.209ZM115.719 428.209C114.476 428.209 113.412 427.963 112.527 427.471C111.642 426.973 110.963 426.282 110.491 425.397C110.019 424.507 109.783 423.476 109.783 422.303C109.783 421.129 110.019 420.1 110.491 419.215C110.963 418.325 111.642 417.634 112.527 417.142C113.412 416.645 114.476 416.396 115.719 416.396C116.962 416.396 118.026 416.645 118.911 417.142C119.795 417.634 120.474 418.325 120.946 419.215C121.419 420.1 121.655 421.129 121.655 422.303C121.655 423.476 121.419 424.507 120.946 425.397C120.474 426.282 119.795 426.973 118.911 427.471C118.026 427.963 116.962 428.209 115.719 428.209ZM115.749 425.166C116.097 425.166 116.397 425.049 116.651 424.816C116.904 424.582 117.101 424.249 117.24 423.816C117.379 423.384 117.449 422.869 117.449 422.273C117.449 421.671 117.379 421.157 117.24 420.729C117.101 420.297 116.904 419.963 116.651 419.73C116.397 419.496 116.097 419.379 115.749 419.379C115.381 419.379 115.065 419.496 114.801 419.73C114.538 419.963 114.337 420.297 114.197 420.729C114.058 421.157 113.989 421.671 113.989 422.273C113.989 422.869 114.058 423.384 114.197 423.816C114.337 424.249 114.538 424.582 114.801 424.816C115.065 425.049 115.381 425.166 115.749 425.166ZM130.186 416.545V419.528H122.52V416.545H130.186ZM123.982 428V416.217C123.982 415.273 124.151 414.49 124.489 413.868C124.827 413.247 125.304 412.782 125.92 412.474C126.537 412.165 127.263 412.011 128.098 412.011C128.62 412.011 129.127 412.051 129.619 412.131C130.116 412.21 130.484 412.28 130.723 412.339L130.126 415.293C129.977 415.248 129.803 415.213 129.604 415.188C129.406 415.158 129.232 415.143 129.082 415.143C128.695 415.143 128.434 415.225 128.299 415.39C128.165 415.554 128.098 415.77 128.098 416.038V428H123.982ZM135.898 428V412.727H142.521C143.684 412.727 144.661 412.884 145.451 413.197C146.247 413.51 146.846 413.953 147.249 414.525C147.656 415.096 147.86 415.77 147.86 416.545C147.86 417.107 147.736 417.619 147.487 418.082C147.244 418.544 146.901 418.932 146.458 419.245C146.016 419.553 145.499 419.767 144.907 419.886V420.036C145.563 420.06 146.16 420.227 146.697 420.535C147.234 420.838 147.661 421.259 147.979 421.795C148.298 422.327 148.457 422.954 148.457 423.675C148.457 424.51 148.238 425.253 147.8 425.904C147.368 426.556 146.751 427.068 145.951 427.441C145.151 427.814 144.196 428 143.087 428H135.898ZM140.045 424.689H141.984C142.68 424.689 143.202 424.56 143.55 424.301C143.898 424.038 144.072 423.65 144.072 423.138C144.072 422.78 143.99 422.477 143.826 422.228C143.662 421.979 143.428 421.79 143.125 421.661C142.826 421.532 142.466 421.467 142.043 421.467H140.045V424.689ZM140.045 418.902H141.745C142.108 418.902 142.429 418.845 142.707 418.73C142.985 418.616 143.202 418.452 143.356 418.238C143.515 418.02 143.594 417.754 143.594 417.44C143.594 416.968 143.425 416.608 143.087 416.359C142.749 416.105 142.322 415.979 141.805 415.979H140.045V418.902ZM149.985 428V416.545H154.102V428H149.985ZM152.044 415.352C151.487 415.352 151.01 415.168 150.612 414.8C150.214 414.433 150.015 413.99 150.015 413.473C150.015 412.956 150.214 412.513 150.612 412.146C151.01 411.778 151.487 411.594 152.044 411.594C152.605 411.594 153.083 411.778 153.475 412.146C153.873 412.513 154.072 412.956 154.072 413.473C154.072 413.99 153.873 414.433 153.475 414.8C153.083 415.168 152.605 415.352 152.044 415.352ZM156.199 428V416.545H160.196V418.723H160.316C160.525 417.918 160.855 417.328 161.308 416.956C161.765 416.583 162.299 416.396 162.911 416.396C163.09 416.396 163.266 416.411 163.44 416.441C163.619 416.466 163.791 416.503 163.955 416.553V420.065C163.751 419.996 163.5 419.944 163.202 419.909C162.903 419.874 162.647 419.857 162.434 419.857C162.031 419.857 161.668 419.949 161.345 420.132C161.027 420.311 160.776 420.565 160.592 420.893C160.408 421.216 160.316 421.597 160.316 422.034V428H156.199ZM172.607 416.545V419.528H165.061V416.545H172.607ZM166.522 413.801H170.639V424.316C170.639 424.475 170.666 424.609 170.721 424.719C170.775 424.823 170.86 424.903 170.974 424.957C171.089 425.007 171.235 425.032 171.414 425.032C171.539 425.032 171.683 425.017 171.847 424.987C172.016 424.957 172.14 424.933 172.22 424.913L172.816 427.806C172.632 427.861 172.369 427.928 172.026 428.007C171.688 428.087 171.285 428.139 170.818 428.164C169.873 428.214 169.08 428.117 168.439 427.873C167.797 427.625 167.315 427.234 166.992 426.702C166.669 426.17 166.512 425.504 166.522 424.704V413.801ZM178.65 421.557V428H174.533V412.727H178.501V418.723H178.62C178.878 417.992 179.309 417.423 179.91 417.015C180.512 416.603 181.235 416.396 182.08 416.396C182.891 416.396 183.594 416.58 184.191 416.948C184.792 417.316 185.257 417.823 185.585 418.469C185.918 419.116 186.082 419.857 186.077 420.692V428H181.961V421.557C181.966 420.99 181.824 420.545 181.536 420.222C181.252 419.899 180.847 419.737 180.32 419.737C179.987 419.737 179.694 419.812 179.44 419.961C179.192 420.105 178.998 420.314 178.859 420.587C178.724 420.856 178.655 421.179 178.65 421.557Z" fill="#C4C4C4"/>
</svg>
