<svg width="61" height="62" viewBox="0 0 61 62" fill="none" xmlns="http://www.w3.org/2000/svg">
<rect width="61" height="62" rx="15" fill="#A4A4A4"/>
<path d="M12.0085 46H8.86932L17.9489 21.2727H21.0398L30.1193 46H26.9801L19.5909 25.1847H19.3977L12.0085 46ZM13.1676 36.3409H25.821V38.9972H13.1676V36.3409ZM52.7065 29H49.7122C49.5351 28.1387 49.2252 27.3821 48.7825 26.7301C48.3478 26.0781 47.8166 25.5308 47.1887 25.0881C46.569 24.6373 45.8807 24.2992 45.1241 24.0739C44.3675 23.8485 43.5787 23.7358 42.7576 23.7358C41.2605 23.7358 39.9042 24.1141 38.6887 24.8707C37.4814 25.6274 36.5195 26.7422 35.8031 28.2152C35.0948 29.6882 34.7406 31.4953 34.7406 33.6364C34.7406 35.7775 35.0948 37.5845 35.8031 39.0575C36.5195 40.5305 37.4814 41.6454 38.6887 42.402C39.9042 43.1586 41.2605 43.5369 42.7576 43.5369C43.5787 43.5369 44.3675 43.4242 45.1241 43.1989C45.8807 42.9735 46.569 42.6394 47.1887 42.1967C47.8166 41.746 48.3478 41.1946 48.7825 40.5426C49.2252 39.8826 49.5351 39.1259 49.7122 38.2727H52.7065C52.4811 39.5365 52.0706 40.6674 51.475 41.6655C50.8793 42.6636 50.1388 43.5128 49.2534 44.2131C48.368 44.9053 47.3739 45.4325 46.2711 45.7947C45.1764 46.157 44.0053 46.3381 42.7576 46.3381C40.6487 46.3381 38.7733 45.8229 37.1312 44.7926C35.4892 43.7623 34.1973 42.2973 33.2555 40.3977C32.3137 38.4981 31.8429 36.2443 31.8429 33.6364C31.8429 31.0284 32.3137 28.7746 33.2555 26.875C34.1973 24.9754 35.4892 23.5104 37.1312 22.4801C38.7733 21.4498 40.6487 20.9347 42.7576 20.9347C44.0053 20.9347 45.1764 21.1158 46.2711 21.478C47.3739 21.8402 48.368 22.3714 49.2534 23.0717C50.1388 23.764 50.8793 24.6091 51.475 25.6072C52.0706 26.5973 52.4811 27.7282 52.7065 29Z" fill="#242323"/>
<path d="M12.0085 46V47H12.7147L12.9509 46.3345L12.0085 46ZM8.86932 46L7.9306 45.6553L7.43685 47H8.86932V46ZM17.9489 21.2727V20.2727H17.2508L17.0101 20.928L17.9489 21.2727ZM21.0398 21.2727L21.9785 20.928L21.7379 20.2727H21.0398V21.2727ZM30.1193 46V47H31.5518L31.058 45.6553L30.1193 46ZM26.9801 46L26.0377 46.3345L26.274 47H26.9801V46ZM19.5909 25.1847L20.5333 24.8501L20.2971 24.1847H19.5909V25.1847ZM19.3977 25.1847V24.1847H18.6916L18.4553 24.8501L19.3977 25.1847ZM13.1676 36.3409V35.3409H12.1676V36.3409H13.1676ZM25.821 36.3409H26.821V35.3409H25.821V36.3409ZM25.821 38.9972V39.9972H26.821V38.9972H25.821ZM13.1676 38.9972H12.1676V39.9972H13.1676V38.9972ZM12.0085 45H8.86932V47H12.0085V45ZM9.80804 46.3447L18.8876 21.6174L17.0101 20.928L7.9306 45.6553L9.80804 46.3447ZM17.9489 22.2727H21.0398V20.2727H17.9489V22.2727ZM20.1011 21.6174L29.1806 46.3447L31.058 45.6553L21.9785 20.928L20.1011 21.6174ZM30.1193 45H26.9801V47H30.1193V45ZM27.9225 45.6655L20.5333 24.8501L18.6485 25.5192L26.0377 46.3345L27.9225 45.6655ZM19.5909 24.1847H19.3977V26.1847H19.5909V24.1847ZM18.4553 24.8501L11.0661 45.6655L12.9509 46.3345L20.3401 25.5192L18.4553 24.8501ZM13.1676 37.3409H25.821V35.3409H13.1676V37.3409ZM24.821 36.3409V38.9972H26.821V36.3409H24.821ZM25.821 37.9972H13.1676V39.9972H25.821V37.9972ZM14.1676 38.9972V36.3409H12.1676V38.9972H14.1676ZM52.7065 29V30H53.8993L53.6912 28.8255L52.7065 29ZM49.7122 29L48.7327 29.2014L48.8969 30H49.7122V29ZM48.7825 26.7301L47.9504 27.2848L47.9552 27.2919L48.7825 26.7301ZM47.1887 25.0881L46.6006 25.8968L46.6065 25.9011L46.6125 25.9053L47.1887 25.0881ZM45.1241 24.0739L44.8386 25.0322L44.8386 25.0322L45.1241 24.0739ZM38.6887 24.8707L38.1603 24.0218L38.1577 24.0234L38.6887 24.8707ZM35.8031 28.2152L34.9038 27.7778L34.9019 27.7818L35.8031 28.2152ZM35.8031 39.0575L34.9019 39.4909L34.9038 39.4949L35.8031 39.0575ZM38.6887 42.402L38.1577 43.2494L38.1603 43.2509L38.6887 42.402ZM45.1241 43.1989L44.8386 42.2405L44.8386 42.2405L45.1241 43.1989ZM47.1887 42.1967L47.77 43.0105L47.772 43.0091L47.1887 42.1967ZM48.7825 40.5426L47.952 39.9856L47.9504 39.9879L48.7825 40.5426ZM49.7122 38.2727V37.2727H48.8984L48.733 38.0695L49.7122 38.2727ZM52.7065 38.2727L53.691 38.4483L53.9006 37.2727H52.7065V38.2727ZM51.475 41.6655L50.6163 41.153L50.6163 41.153L51.475 41.6655ZM49.2534 44.2131L49.8693 45.0009L49.8737 44.9974L49.2534 44.2131ZM46.2711 45.7947L45.9591 44.8447L45.957 44.8454L46.2711 45.7947ZM37.1312 44.7926L36.5997 45.6397L36.5997 45.6397L37.1312 44.7926ZM33.2555 40.3977L34.1514 39.9536L34.1514 39.9536L33.2555 40.3977ZM33.2555 26.875L32.3596 26.4308L33.2555 26.875ZM46.2711 21.478L45.957 22.4274L45.9591 22.428L46.2711 21.478ZM49.2534 23.0717L48.633 23.8561L48.6375 23.8595L49.2534 23.0717ZM51.475 25.6072L50.6162 26.1197L50.6181 26.1228L51.475 25.6072ZM52.7065 28H49.7122V30H52.7065V28ZM50.6917 28.7986C50.4912 27.8233 50.1346 26.9412 49.6098 26.1684L47.9552 27.2919C48.3158 27.823 48.579 28.4542 48.7327 29.2014L50.6917 28.7986ZM49.6145 26.1754C49.1129 25.423 48.4956 24.786 47.765 24.2708L46.6125 25.9053C47.1376 26.2756 47.5827 26.7333 47.9504 27.2848L49.6145 26.1754ZM47.7769 24.2793C47.0627 23.7599 46.2715 23.3722 45.4096 23.1155L44.8386 25.0322C45.4899 25.2263 46.0752 25.5147 46.6006 25.8968L47.7769 24.2793ZM45.4096 23.1155C44.5567 22.8614 43.6714 22.7358 42.7576 22.7358V24.7358C43.4859 24.7358 44.1783 24.8356 44.8386 25.0322L45.4096 23.1155ZM42.7576 22.7358C41.0826 22.7358 39.5417 23.1618 38.1603 24.0218L39.2172 25.7197C40.2666 25.0664 41.4383 24.7358 42.7576 24.7358V22.7358ZM38.1577 24.0234C36.769 24.8937 35.6896 26.1621 34.9038 27.7778L36.7024 28.6526C37.3493 27.3223 38.1937 26.3611 39.2198 25.7181L38.1577 24.0234ZM34.9019 27.7818C34.1116 29.4252 33.7406 31.3898 33.7406 33.6364H35.7406C35.7406 31.6007 36.0779 29.9512 36.7043 28.6486L34.9019 27.7818ZM33.7406 33.6364C33.7406 35.8829 34.1116 37.8475 34.9019 39.4909L36.7043 38.6242C36.0779 37.3215 35.7406 35.672 35.7406 33.6364H33.7406ZM34.9038 39.4949C35.6896 41.1106 36.769 42.3791 38.1577 43.2494L39.2198 41.5546C38.1937 40.9116 37.3493 39.9505 36.7024 38.6202L34.9038 39.4949ZM38.1603 43.2509C39.5417 44.1109 41.0826 44.5369 42.7576 44.5369V42.5369C41.4383 42.5369 40.2666 42.2063 39.2172 41.553L38.1603 43.2509ZM42.7576 44.5369C43.6714 44.5369 44.5567 44.4113 45.4096 44.1572L44.8386 42.2405C44.1783 42.4372 43.4859 42.5369 42.7576 42.5369V44.5369ZM45.4096 44.1572C46.2682 43.9015 47.057 43.5197 47.77 43.0105L46.6075 41.383C46.0809 41.7591 45.4933 42.0455 44.8386 42.2405L45.4096 44.1572ZM47.772 43.0091C48.4989 42.4871 49.1141 41.848 49.6145 41.0973L47.9504 39.9879C47.5816 40.5412 47.1342 41.0048 46.6055 41.3844L47.772 43.0091ZM49.613 41.0996C50.1343 40.3225 50.4905 39.4434 50.6913 38.4759L48.733 38.0695C48.5797 38.8085 48.3161 39.4427 47.952 39.9856L49.613 41.0996ZM49.7122 39.2727H52.7065V37.2727H49.7122V39.2727ZM51.722 38.0972C51.5157 39.2543 51.1438 40.269 50.6163 41.153L52.3337 42.1779C52.9974 41.0658 53.4466 39.8186 53.691 38.4483L51.722 38.0972ZM50.6163 41.153C50.081 42.0499 49.4203 42.8061 48.633 43.4287L49.8737 44.9974C50.8573 44.2195 51.6776 43.2773 52.3337 42.1779L50.6163 41.153ZM48.6375 43.4253C47.8462 44.0439 46.9556 44.5174 45.9591 44.8447L46.5832 46.7448C47.7922 46.3477 48.8898 45.7667 49.8693 45.0009L48.6375 43.4253ZM45.957 44.8454C44.9716 45.1714 43.9073 45.3381 42.7576 45.3381V47.3381C44.1033 47.3381 45.3812 47.1425 46.5853 46.7441L45.957 44.8454ZM42.7576 45.3381C40.8196 45.3381 39.1316 44.8672 37.6627 43.9455L36.5997 45.6397C38.415 46.7787 40.4779 47.3381 42.7576 47.3381V45.3381ZM37.6627 43.9455C36.1915 43.0224 35.0192 41.7039 34.1514 39.9536L32.3596 40.8419C33.3754 42.8908 34.7868 44.5022 36.5997 45.6397L37.6627 43.9455ZM34.1514 39.9536C33.2921 38.2201 32.8429 36.125 32.8429 33.6364H30.8429C30.8429 36.3636 31.3354 38.7761 32.3596 40.8419L34.1514 39.9536ZM32.8429 33.6364C32.8429 31.1477 33.2921 29.0526 34.1514 27.3192L32.3596 26.4308C31.3354 28.4966 30.8429 30.9091 30.8429 33.6364H32.8429ZM34.1514 27.3192C35.0192 25.5689 36.1915 24.2503 37.6627 23.3272L36.5997 21.633C34.7868 22.7705 33.3754 24.3819 32.3596 26.4308L34.1514 27.3192ZM37.6627 23.3272C39.1316 22.4055 40.8196 21.9347 42.7576 21.9347V19.9347C40.4779 19.9347 38.415 20.4941 36.5997 21.633L37.6627 23.3272ZM42.7576 21.9347C43.9073 21.9347 44.9716 22.1013 45.957 22.4274L46.5853 20.5286C45.3812 20.1302 44.1033 19.9347 42.7576 19.9347V21.9347ZM45.9591 22.428C46.9533 22.7546 47.8424 23.2308 48.633 23.8561L49.8737 22.2874C48.8935 21.5121 47.7944 20.9258 46.5832 20.5279L45.9591 22.428ZM48.6375 23.8595C49.4223 24.4732 50.0817 25.2239 50.6163 26.1197L52.3337 25.0948C51.677 23.9944 50.8553 23.0548 49.8693 22.2839L48.6375 23.8595ZM50.6181 26.1228C51.1436 26.9963 51.5153 28.0091 51.7218 29.1745L53.6912 28.8255C53.4469 27.4473 52.9976 26.1983 52.3318 25.0917L50.6181 26.1228Z" fill="#242323"/>
</svg>
