<svg width="63" height="62" viewBox="0 0 63 62" fill="none" xmlns="http://www.w3.org/2000/svg">
<rect width="63" height="62" rx="15" fill="#A4A4A4"/>
<path fill-rule="evenodd" clip-rule="evenodd" d="M21.1788 19.1243C22.5147 17.7645 24.3267 17.0004 26.2162 17H40.8749C42.7646 17 44.5769 17.7638 45.9131 19.1235C47.2493 20.4831 48 22.3272 48 24.25V38.75C48 40.6728 47.2493 42.5169 45.9131 43.8765C44.5769 45.2362 42.7646 46 40.8749 46H26.2162C24.3275 45.9989 22.5165 45.2349 21.1811 43.8758L10.6954 33.2086C10.2501 32.7554 10 32.1408 10 31.5C10 30.8592 10.2501 30.2446 10.6954 29.7914L21.1788 19.1243V19.1243ZM30.6789 24.9581C30.231 24.5179 29.631 24.2743 29.0083 24.2798C28.3856 24.2853 27.7899 24.5395 27.3495 24.9875C26.9092 25.4356 26.6594 26.0417 26.654 26.6754C26.6486 27.309 26.888 27.9195 27.3206 28.3752L30.3915 31.5L27.3206 34.6248C27.0938 34.8477 26.9128 35.1143 26.7884 35.4092C26.6639 35.704 26.5984 36.0211 26.5956 36.342C26.5929 36.6629 26.653 36.9811 26.7724 37.2781C26.8918 37.5751 27.0682 37.845 27.2912 38.0719C27.5142 38.2988 27.7793 38.4782 28.0712 38.5997C28.3631 38.7212 28.6758 38.7824 28.9912 38.7796C29.3066 38.7768 29.6182 38.7102 29.908 38.5835C30.1977 38.4568 30.4598 38.2727 30.6789 38.0419L33.7498 34.9172L36.8207 38.0419C37.2687 38.4821 37.8686 38.7257 38.4913 38.7202C39.1141 38.7147 39.7097 38.4605 40.1501 38.0125C40.5904 37.5644 40.8402 36.9583 40.8456 36.3246C40.851 35.691 40.6117 35.0805 40.179 34.6248L37.1081 31.5L40.179 28.3752C40.6117 27.9195 40.851 27.309 40.8456 26.6754C40.8402 26.0417 40.5904 25.4356 40.1501 24.9875C39.7097 24.5395 39.1141 24.2853 38.4913 24.2798C37.8686 24.2743 37.2687 24.5179 36.8207 24.9581L33.7498 28.0828L30.6789 24.9581V24.9581Z" fill="#242323"/>
</svg>
