<svg width="148" height="62" viewBox="0 0 148 62" fill="none" xmlns="http://www.w3.org/2000/svg">
<rect width="148" height="62" rx="15" fill="#343434"/>
<path d="M31.625 45.3381C29.8059 45.3381 28.2564 44.843 26.9766 43.853C25.6967 42.8549 24.7188 41.41 24.0426 39.5185C23.3665 37.6188 23.0284 35.3248 23.0284 32.6364C23.0284 29.964 23.3665 27.6821 24.0426 25.7905C24.7268 23.8909 25.7088 22.442 26.9886 21.4439C28.2765 20.4377 29.822 19.9347 31.625 19.9347C33.428 19.9347 34.9695 20.4377 36.2493 21.4439C37.5372 22.442 38.5192 23.8909 39.1953 25.7905C39.8795 27.6821 40.2216 29.964 40.2216 32.6364C40.2216 35.3248 39.8835 37.6188 39.2074 39.5185C38.5312 41.41 37.5533 42.8549 36.2734 43.853C34.9936 44.843 33.4441 45.3381 31.625 45.3381ZM31.625 42.6818C33.428 42.6818 34.8286 41.8125 35.8267 40.0739C36.8248 38.3352 37.3239 35.8561 37.3239 32.6364C37.3239 30.4953 37.0945 28.6721 36.6357 27.1669C36.1849 25.6617 35.5329 24.5147 34.6797 23.7259C33.8345 22.937 32.8163 22.5426 31.625 22.5426C29.8381 22.5426 28.4415 23.424 27.4354 25.1868C26.4292 26.9415 25.9261 29.4247 25.9261 32.6364C25.9261 34.7775 26.1515 36.5966 26.6023 38.0938C27.053 39.5909 27.701 40.7299 28.5462 41.5107C29.3994 42.2914 30.4257 42.6818 31.625 42.6818Z" fill="#E3E3E3"/>
<path d="M26.9766 43.853L26.3616 44.6415L26.3647 44.6439L26.9766 43.853ZM24.0426 39.5185L23.1005 39.8538L23.101 39.8551L24.0426 39.5185ZM24.0426 25.7905L23.1018 25.4516L23.101 25.4539L24.0426 25.7905ZM26.9886 21.4439L27.6036 22.2324L27.6043 22.2319L26.9886 21.4439ZM36.2493 21.4439L35.6312 22.2301L35.6367 22.2343L36.2493 21.4439ZM39.1953 25.7905L38.2532 26.1258L38.2549 26.1306L39.1953 25.7905ZM39.2074 39.5185L40.149 39.8551L40.1495 39.8538L39.2074 39.5185ZM36.2734 43.853L36.8853 44.6439L36.8884 44.6415L36.2734 43.853ZM35.8267 40.0739L34.9595 39.576L34.9595 39.576L35.8267 40.0739ZM36.6357 27.1669L35.6777 27.4538L35.6791 27.4585L36.6357 27.1669ZM34.6797 23.7259L33.9974 24.4569L34.0008 24.4601L34.6797 23.7259ZM27.4354 25.1868L28.3029 25.6842L28.3039 25.6825L27.4354 25.1868ZM26.6023 38.0938L25.6447 38.382L25.6447 38.382L26.6023 38.0938ZM28.5462 41.5107L27.8676 42.2452L27.8711 42.2484L28.5462 41.5107ZM31.625 44.3381C29.9984 44.3381 28.6715 43.8998 27.5884 43.062L26.3647 44.6439C27.8413 45.7862 29.6134 46.3381 31.625 46.3381V44.3381ZM27.5915 43.0644C26.4932 42.2079 25.6117 40.9373 24.9843 39.1819L23.101 39.8551C23.8258 41.8828 24.9003 43.5019 26.3616 44.6415L27.5915 43.0644ZM24.9847 39.1831C24.3573 37.4204 24.0284 35.2463 24.0284 32.6364H22.0284C22.0284 35.4033 22.3757 37.8173 23.1005 39.8538L24.9847 39.1831ZM24.0284 32.6364C24.0284 30.0431 24.3571 27.8815 24.9843 26.1271L23.101 25.4539C22.3758 27.4826 22.0284 29.8849 22.0284 32.6364H24.0284ZM24.9835 26.1293C25.6192 24.3641 26.5052 23.0891 27.6036 22.2324L26.3737 20.6553C24.9124 21.7949 23.8344 23.4176 23.1018 25.4516L24.9835 26.1293ZM27.6043 22.2319C28.698 21.3774 30.0207 20.9347 31.625 20.9347V18.9347C29.6233 18.9347 27.855 19.498 26.373 20.6559L27.6043 22.2319ZM31.625 20.9347C33.2294 20.9347 34.5467 21.3774 35.6313 22.23L36.8673 20.6577C35.3922 19.4981 33.6267 18.9347 31.625 18.9347V20.9347ZM35.6367 22.2343C36.7412 23.0903 37.6259 24.3635 38.2532 26.1258L40.1374 25.4552C39.4124 23.4183 38.3331 21.7937 36.8619 20.6535L35.6367 22.2343ZM38.2549 26.1306C38.8891 27.8839 39.2216 30.0442 39.2216 32.6364H41.2216C41.2216 29.8839 40.8699 27.4802 40.1357 25.4503L38.2549 26.1306ZM39.2216 32.6364C39.2216 35.2463 38.8927 37.4204 38.2653 39.1831L40.1495 39.8538C40.8743 37.8173 41.2216 35.4033 41.2216 32.6364H39.2216ZM38.2657 39.1819C37.6383 40.9373 36.7568 42.2079 35.6585 43.0644L36.8884 44.6415C38.3497 43.5019 39.4242 41.8828 40.149 39.8551L38.2657 39.1819ZM35.6616 43.062C34.5785 43.8998 33.2516 44.3381 31.625 44.3381V46.3381C33.6366 46.3381 35.4087 45.7862 36.8853 44.6439L35.6616 43.062ZM31.625 43.6818C33.8322 43.6818 35.5417 42.5789 36.694 40.5717L34.9595 39.576C34.1155 41.0461 33.0239 41.6818 31.625 41.6818V43.6818ZM36.694 40.5717C37.8166 38.6161 38.3239 35.9354 38.3239 32.6364H36.3239C36.3239 35.7767 35.833 38.0543 34.9595 39.576L36.694 40.5717ZM38.3239 32.6364C38.3239 30.4295 38.0881 28.5022 37.5922 26.8753L35.6791 27.4585C36.1008 28.8421 36.3239 30.561 36.3239 32.6364H38.3239ZM37.5936 26.88C37.109 25.2616 36.3816 23.9374 35.3585 22.9916L34.0008 24.4601C34.6843 25.092 35.2608 26.0618 35.6777 27.4538L37.5936 26.88ZM35.362 22.9948C34.3255 22.0274 33.061 21.5426 31.625 21.5426V23.5426C32.5715 23.5426 33.3435 23.8466 33.9974 24.4569L35.362 22.9948ZM31.625 21.5426C29.4239 21.5426 27.7219 22.6675 26.5669 24.6911L28.3039 25.6825C29.1611 24.1805 30.2522 23.5426 31.625 23.5426V21.5426ZM26.5679 24.6894C25.4381 26.6596 24.9261 29.343 24.9261 32.6364H26.9261C26.9261 29.5065 27.4203 27.2235 28.3029 25.6842L26.5679 24.6894ZM24.9261 32.6364C24.9261 34.8418 25.1576 36.7641 25.6447 38.382L27.5598 37.8055C27.1454 36.4291 26.9261 34.7132 26.9261 32.6364H24.9261ZM25.6447 38.382C26.1292 39.9912 26.8524 41.3073 27.8676 42.2452L29.2247 40.7761C28.5496 40.1524 27.9769 39.1907 27.5598 37.8055L25.6447 38.382ZM27.8711 42.2484C28.916 43.2046 30.186 43.6818 31.625 43.6818V41.6818C30.6654 41.6818 29.8827 41.3782 29.2213 40.7729L27.8711 42.2484Z" fill="#E3E3E3"/>
</svg>
