<svg width="63" height="62" viewBox="0 0 63 62" fill="none" xmlns="http://www.w3.org/2000/svg">
<rect width="63" height="62" rx="15" fill="#343434"/>
<path d="M31.2869 45.3381C29.8703 45.3381 28.5945 45.0563 27.4595 44.4929C26.3246 43.9295 25.415 43.1567 24.7308 42.1747C24.0466 41.1927 23.6723 40.0739 23.608 38.8182H26.5057C26.6184 39.937 27.1255 40.8627 28.027 41.5952C28.9366 42.3196 30.0232 42.6818 31.2869 42.6818C32.3011 42.6818 33.2027 42.4444 33.9915 41.9695C34.7884 41.4946 35.4122 40.8426 35.8629 40.0135C36.3217 39.1764 36.5511 38.2306 36.5511 37.1761C36.5511 36.0975 36.3137 35.1357 35.8388 34.2905C35.3719 33.4373 34.728 32.7652 33.907 32.2741C33.0859 31.7831 32.1482 31.5336 31.0938 31.5256C30.3371 31.5175 29.5604 31.6342 28.7635 31.8757C27.9666 32.1091 27.3106 32.411 26.7955 32.7812L23.9943 32.4432L25.4915 20.2727H38.3381V22.929H28.0028L27.1335 30.2216H27.2784C27.7855 29.8191 28.4214 29.4851 29.1861 29.2195C29.9508 28.9538 30.7476 28.821 31.5767 28.821C33.09 28.821 34.4382 29.1832 35.6214 29.9077C36.8127 30.6241 37.7464 31.6061 38.4226 32.8537C39.1068 34.1013 39.4489 35.526 39.4489 37.1278C39.4489 38.7055 39.0947 40.1141 38.3864 41.3537C37.6861 42.5852 36.7202 43.5592 35.4886 44.2756C34.2571 44.9839 32.8565 45.3381 31.2869 45.3381Z" fill="#E3E3E3"/>
<path d="M27.4595 44.4929L27.0148 45.3886L27.0148 45.3886L27.4595 44.4929ZM24.7308 42.1747L25.5513 41.6031L25.5513 41.6031L24.7308 42.1747ZM23.608 38.8182V37.8182H22.5554L22.6093 38.8694L23.608 38.8182ZM26.5057 38.8182L27.5006 38.718L27.41 37.8182H26.5057V38.8182ZM28.027 41.5952L27.3964 42.3713L27.404 42.3774L28.027 41.5952ZM33.9915 41.9695L33.4795 41.1104L33.4757 41.1127L33.9915 41.9695ZM35.8629 40.0135L34.986 39.5329L34.9844 39.5358L35.8629 40.0135ZM35.8388 34.2905L34.9615 34.7705L34.967 34.7803L35.8388 34.2905ZM31.0938 31.5256L31.0831 32.5255L31.0861 32.5255L31.0938 31.5256ZM28.7635 31.8757L29.0446 32.8354L29.0535 32.8327L28.7635 31.8757ZM26.7955 32.7812L26.6756 33.774L27.0626 33.8207L27.3791 33.5933L26.7955 32.7812ZM23.9943 32.4432L23.0018 32.3211L22.8794 33.3159L23.8745 33.436L23.9943 32.4432ZM25.4915 20.2727V19.2727H24.607L24.499 20.1506L25.4915 20.2727ZM38.3381 20.2727H39.3381V19.2727H38.3381V20.2727ZM38.3381 22.929V23.929H39.3381V22.929H38.3381ZM28.0028 22.929V21.929H27.115L27.0099 22.8106L28.0028 22.929ZM27.1335 30.2216L26.1406 30.1032L26.0072 31.2216H27.1335V30.2216ZM27.2784 30.2216V31.2216H27.627L27.9001 31.0049L27.2784 30.2216ZM35.6214 29.9077L35.0993 30.7605L35.1061 30.7647L35.6214 29.9077ZM38.4226 32.8537L37.5434 33.3302L37.5458 33.3345L38.4226 32.8537ZM38.3864 41.3537L37.5181 40.8576L37.5171 40.8594L38.3864 41.3537ZM35.4886 44.2756L35.9872 45.1424L35.9915 45.14L35.4886 44.2756ZM31.2869 44.3381C30.0062 44.3381 28.8854 44.0843 27.9042 43.5972L27.0148 45.3886C28.3036 46.0284 29.7344 46.3381 31.2869 46.3381V44.3381ZM27.9042 43.5972C26.9106 43.1039 26.1338 42.4391 25.5513 41.6031L23.9103 42.7464C24.6962 43.8744 25.7385 44.755 27.0148 45.3886L27.9042 43.5972ZM25.5513 41.6031C24.9795 40.7824 24.662 39.8458 24.6066 38.767L22.6093 38.8694C22.6827 40.3019 23.1137 41.603 23.9103 42.7464L25.5513 41.6031ZM23.608 39.8182H26.5057V37.8182H23.608V39.8182ZM25.5107 38.9184C25.651 40.3117 26.2959 41.4772 27.3964 42.3713L28.6576 40.8191C27.955 40.2482 27.5857 39.5624 27.5006 38.718L25.5107 38.9184ZM27.404 42.3774C28.5063 43.2554 29.8178 43.6818 31.2869 43.6818V41.6818C30.2286 41.6818 29.3668 41.3839 28.65 40.813L27.404 42.3774ZM31.2869 43.6818C32.4639 43.6818 33.5472 43.4042 34.5073 42.8262L33.4757 41.1127C32.8581 41.4846 32.1384 41.6818 31.2869 41.6818V43.6818ZM34.5034 42.8285C35.4573 42.26 36.2065 41.4751 36.7415 40.4912L34.9844 39.5358C34.6178 40.2101 34.1194 40.7291 33.4795 41.1104L34.5034 42.8285ZM36.7399 40.4941C37.2876 39.4947 37.5511 38.3806 37.5511 37.1761H35.5511C35.5511 38.0805 35.3559 38.8581 34.986 39.5329L36.7399 40.4941ZM37.5511 37.1761C37.5511 35.9457 37.2787 34.8117 36.7106 33.8006L34.967 34.7803C35.3487 35.4596 35.5511 36.2494 35.5511 37.1761H37.5511ZM36.716 33.8105C36.1652 32.8037 35.3967 31.9999 34.4202 31.4159L33.3937 33.1324C34.0592 33.5304 34.5787 34.0708 34.9615 34.7705L36.716 33.8105ZM34.4202 31.4159C33.431 30.8243 32.3153 30.5349 31.1014 30.5256L31.0861 32.5255C31.9811 32.5324 32.7409 32.742 33.3937 33.1324L34.4202 31.4159ZM31.1044 30.5256C30.2363 30.5164 29.3581 30.6506 28.4735 30.9187L29.0535 32.8327C29.7626 32.6178 30.438 32.5186 31.0831 32.5255L31.1044 30.5256ZM28.4824 30.916C27.6087 31.172 26.8421 31.5162 26.2118 31.9692L27.3791 33.5933C27.7791 33.3058 28.3246 33.0463 29.0446 32.8354L28.4824 30.916ZM26.9153 31.7885L24.1141 31.4504L23.8745 33.436L26.6756 33.774L26.9153 31.7885ZM24.9868 32.5653L26.484 20.3948L24.499 20.1506L23.0018 32.3211L24.9868 32.5653ZM25.4915 21.2727H38.3381V19.2727H25.4915V21.2727ZM37.3381 20.2727V22.929H39.3381V20.2727H37.3381ZM38.3381 21.929H28.0028V23.929H38.3381V21.929ZM27.0099 22.8106L26.1406 30.1032L28.1265 30.34L28.9958 23.0473L27.0099 22.8106ZM27.1335 31.2216H27.2784V29.2216H27.1335V31.2216ZM27.9001 31.0049C28.3002 30.6873 28.8303 30.4017 29.5142 30.1641L28.8579 28.2748C28.0125 28.5685 27.2708 28.9509 26.6568 29.4383L27.9001 31.0049ZM29.5142 30.1641C30.1708 29.936 30.8566 29.821 31.5767 29.821V27.821C30.6387 27.821 29.7307 27.9717 28.8579 28.2748L29.5142 30.1641ZM31.5767 29.821C32.923 29.821 34.0874 30.141 35.0993 30.7605L36.1436 29.0548C34.7891 28.2255 33.2569 27.821 31.5767 27.821V29.821ZM35.1061 30.7647C36.141 31.387 36.9505 32.2362 37.5434 33.3302L39.3018 32.3772C38.5424 30.976 37.4845 29.8611 36.1368 29.0507L35.1061 30.7647ZM37.5458 33.3345C38.1394 34.417 38.4489 35.6727 38.4489 37.1278H40.4489C40.4489 35.3794 40.0741 33.7856 39.2994 32.3729L37.5458 33.3345ZM38.4489 37.1278C38.4489 38.5502 38.1313 39.7845 37.5181 40.8576L39.2546 41.8498C40.0581 40.4437 40.4489 38.8608 40.4489 37.1278H38.4489ZM37.5171 40.8594C36.9046 41.9364 36.0656 42.7831 34.9858 43.4112L35.9915 45.14C37.3748 44.3353 38.4675 43.234 39.2557 41.848L37.5171 40.8594ZM34.9901 43.4087C33.9257 44.0209 32.7004 44.3381 31.2869 44.3381V46.3381C33.0127 46.3381 34.5885 45.9469 35.9872 45.1424L34.9901 43.4087Z" fill="#E3E3E3"/>
</svg>
