<svg width="62" height="62" viewBox="0 0 62 62" fill="none" xmlns="http://www.w3.org/2000/svg">
<rect width="62" height="62" rx="15" fill="#343434"/>
<path d="M34.858 40.6193L34.6648 41.9233C34.5279 42.8409 34.3187 43.8229 34.0369 44.8693C33.7633 45.9157 33.4775 46.9018 33.1797 47.8274C32.8819 48.7531 32.6364 49.4896 32.4432 50.0369H30.2699C30.3745 49.5218 30.5114 48.8416 30.6804 47.9964C30.8494 47.1513 31.0185 46.2055 31.1875 45.1591C31.3646 44.1207 31.5095 43.0582 31.6222 41.9716L31.767 40.6193H34.858Z" fill="#E3E3E3"/>
<path d="M34.858 40.6193L35.8472 40.7659L36.017 39.6193H34.858V40.6193ZM34.6648 41.9233L35.6538 42.0708L35.654 42.0698L34.6648 41.9233ZM34.0369 44.8693L33.0713 44.6093L33.0695 44.6163L34.0369 44.8693ZM33.1797 47.8274L32.2277 47.5211L33.1797 47.8274ZM32.4432 50.0369V51.0369H33.1507L33.3862 50.3698L32.4432 50.0369ZM30.2699 50.0369L29.2899 49.8379L29.0463 51.0369H30.2699V50.0369ZM30.6804 47.9964L29.6998 47.8003L29.6998 47.8003L30.6804 47.9964ZM31.1875 45.1591L30.2017 44.991L30.2003 44.9996L31.1875 45.1591ZM31.6222 41.9716L30.6278 41.8651L30.6275 41.8684L31.6222 41.9716ZM31.767 40.6193V39.6193H30.8685L30.7727 40.5128L31.767 40.6193ZM33.8688 40.4728L33.6756 41.7767L35.654 42.0698L35.8472 40.7659L33.8688 40.4728ZM33.6757 41.7758C33.5454 42.6498 33.3447 43.594 33.0713 44.6093L35.0025 45.1293C35.2926 44.0519 35.5105 43.032 35.6538 42.0708L33.6757 41.7758ZM33.0695 44.6163C32.8 45.6468 32.5193 46.6149 32.2277 47.5211L34.1316 48.1337C34.4357 47.1886 34.7265 46.1847 35.0044 45.1223L33.0695 44.6163ZM32.2277 47.5211C31.9312 48.443 31.6889 49.1695 31.5002 49.7041L33.3862 50.3698C33.5838 49.8097 33.8326 49.0632 34.1316 48.1337L32.2277 47.5211ZM32.4432 49.0369H30.2699V51.0369H32.4432V49.0369ZM31.2499 50.236C31.3548 49.7194 31.4919 49.0382 31.661 48.1926L29.6998 47.8003C29.5309 48.6451 29.3943 49.3241 29.2899 49.8379L31.2499 50.236ZM31.661 48.1926C31.8329 47.3328 32.0041 46.3746 32.1747 45.3186L30.2003 44.9996C30.0328 46.0364 29.8659 46.9697 29.6998 47.8003L31.661 48.1926ZM32.1733 45.3272C32.3542 44.2665 32.502 43.1823 32.6168 42.0747L30.6275 41.8684C30.517 42.9341 30.375 43.975 30.2017 44.991L32.1733 45.3272ZM32.6165 42.0781L32.7614 40.7259L30.7727 40.5128L30.6279 41.8651L32.6165 42.0781ZM31.767 41.6193H34.858V39.6193H31.767V41.6193Z" fill="#E3E3E3"/>
</svg>
