<svg width="61" height="62" viewBox="0 0 61 62" fill="none" xmlns="http://www.w3.org/2000/svg">
<rect width="61" height="62" rx="15" fill="#343434"/>
<path d="M22.9801 39.929V37.4659L33.8466 20.2727H35.6335V24.0881H34.4261L26.2159 37.0795V37.2727H40.8494V39.929H22.9801ZM34.6193 45V39.1804V38.0334V20.2727H37.4688V45H34.6193Z" fill="#E3E3E3"/>
<path d="M22.9801 39.929H21.9801V40.929H22.9801V39.929ZM22.9801 37.4659L22.1348 36.9316L21.9801 37.1764V37.4659H22.9801ZM33.8466 20.2727V19.2727H33.2956L33.0013 19.7385L33.8466 20.2727ZM35.6335 20.2727H36.6335V19.2727H35.6335V20.2727ZM35.6335 24.0881V25.0881H36.6335V24.0881H35.6335ZM34.4261 24.0881V23.0881H33.8752L33.5808 23.5538L34.4261 24.0881ZM26.2159 37.0795L25.3706 36.5453L25.2159 36.79V37.0795H26.2159ZM26.2159 37.2727H25.2159V38.2727H26.2159V37.2727ZM40.8494 37.2727H41.8494V36.2727H40.8494V37.2727ZM40.8494 39.929V40.929H41.8494V39.929H40.8494ZM34.6193 45H33.6193V46H34.6193V45ZM34.6193 20.2727V19.2727H33.6193V20.2727H34.6193ZM37.4688 20.2727H38.4688V19.2727H37.4688V20.2727ZM37.4688 45V46H38.4688V45H37.4688ZM23.9801 39.929V37.4659H21.9801V39.929H23.9801ZM23.8254 38.0002L34.6919 20.807L33.0013 19.7385L22.1348 36.9316L23.8254 38.0002ZM33.8466 21.2727H35.6335V19.2727H33.8466V21.2727ZM34.6335 20.2727V24.0881H36.6335V20.2727H34.6335ZM35.6335 23.0881H34.4261V25.0881H35.6335V23.0881ZM33.5808 23.5538L25.3706 36.5453L27.0612 37.6138L35.2715 24.6223L33.5808 23.5538ZM25.2159 37.0795V37.2727H27.2159V37.0795H25.2159ZM26.2159 38.2727H40.8494V36.2727H26.2159V38.2727ZM39.8494 37.2727V39.929H41.8494V37.2727H39.8494ZM40.8494 38.929H22.9801V40.929H40.8494V38.929ZM35.6193 45V39.1804H33.6193V45H35.6193ZM35.6193 39.1804V38.0334H33.6193V39.1804H35.6193ZM35.6193 38.0334V20.2727H33.6193V38.0334H35.6193ZM34.6193 21.2727H37.4688V19.2727H34.6193V21.2727ZM36.4688 20.2727V45H38.4688V20.2727H36.4688ZM37.4688 44H34.6193V46H37.4688V44Z" fill="#E3E3E3"/>
</svg>
