<svg width="61" height="62" viewBox="0 0 61 62" fill="none" xmlns="http://www.w3.org/2000/svg">
<rect width="61" height="62" rx="15" fill="#FEA000"/>
<path d="M36.3494 15.1136L28.3807 44.7188H25.7727L33.7415 15.1136H36.3494Z" fill="white"/>
<path d="M36.3494 15.1136L37.3151 15.3736L37.6542 14.1136H36.3494V15.1136ZM28.3807 44.7188V45.7188H29.1471L29.3463 44.9787L28.3807 44.7188ZM25.7727 44.7188L24.8071 44.4588L24.468 45.7188H25.7727V44.7188ZM33.7415 15.1136V14.1136H32.9751L32.7758 14.8537L33.7415 15.1136ZM35.3838 14.8537L27.4151 44.4588L29.3463 44.9787L37.3151 15.3736L35.3838 14.8537ZM28.3807 43.7188H25.7727V45.7188H28.3807V43.7188ZM26.7384 44.9787L34.7071 15.3736L32.7758 14.8537L24.8071 44.4588L26.7384 44.9787ZM33.7415 16.1136H36.3494V14.1136H33.7415V16.1136Z" fill="#E3E3E3"/>
</svg>
