<svg width="63" height="62" viewBox="0 0 63 62" fill="none" xmlns="http://www.w3.org/2000/svg">
<rect width="63" height="62" rx="15" fill="#343434"/>
<path d="M23.5597 44V41.8267L31.7216 32.892C32.6795 31.8456 33.4683 30.9361 34.0881 30.1634C34.7079 29.3826 35.1667 28.6501 35.4645 27.9659C35.7704 27.2737 35.9233 26.5492 35.9233 25.7926C35.9233 24.9233 35.714 24.1707 35.2955 23.5348C34.8849 22.8989 34.3215 22.4079 33.6051 22.0618C32.8887 21.7157 32.0838 21.5426 31.1903 21.5426C30.2405 21.5426 29.4115 21.7398 28.7031 22.1342C28.0028 22.5206 27.4595 23.0639 27.0732 23.7642C26.6948 24.4645 26.5057 25.2855 26.5057 26.2273H23.6562C23.6562 24.7784 23.9903 23.5066 24.6584 22.4119C25.3265 21.3172 26.236 20.464 27.3871 19.8523C28.5462 19.2405 29.8461 18.9347 31.2869 18.9347C32.7358 18.9347 34.0197 19.2405 35.1385 19.8523C36.2573 20.464 37.1347 21.2891 37.7706 22.3274C38.4065 23.3658 38.7244 24.5208 38.7244 25.7926C38.7244 26.7022 38.5594 27.5916 38.2294 28.4609C37.9074 29.3222 37.344 30.2841 36.5391 31.3466C35.7422 32.401 34.6354 33.6889 33.2188 35.2102L27.6648 41.1506V41.3438H39.1591V44H23.5597Z" fill="#E3E3E3"/>
<path d="M23.5597 44H22.5597V45H23.5597V44ZM23.5597 41.8267L22.8213 41.1522L22.5597 41.4387V41.8267H23.5597ZM31.7216 32.892L30.984 32.2168L30.9833 32.2176L31.7216 32.892ZM34.0881 30.1634L34.8682 30.789L34.8713 30.7851L34.0881 30.1634ZM35.4645 27.9659L34.5498 27.5617L34.5476 27.5668L35.4645 27.9659ZM35.2955 23.5348L34.4553 24.0772L34.4602 24.0846L35.2955 23.5348ZM33.6051 22.0618L34.0401 21.1614L34.0401 21.1614L33.6051 22.0618ZM28.7031 22.1342L29.1862 23.0098L29.1896 23.0079L28.7031 22.1342ZM27.0732 23.7642L26.1975 23.2811L26.1933 23.2889L27.0732 23.7642ZM26.5057 26.2273V27.2273H27.5057V26.2273H26.5057ZM23.6562 26.2273H22.6562V27.2273H23.6562V26.2273ZM24.6584 22.4119L25.512 22.9329L25.512 22.9329L24.6584 22.4119ZM27.3871 19.8523L26.9203 18.9679L26.9178 18.9692L27.3871 19.8523ZM35.1385 19.8523L35.6182 18.9749L35.6182 18.9749L35.1385 19.8523ZM37.7706 22.3274L36.9178 22.8497L37.7706 22.3274ZM38.2294 28.4609L37.2945 28.106L37.2927 28.1108L38.2294 28.4609ZM36.5391 31.3466L35.742 30.7427L35.7413 30.7437L36.5391 31.3466ZM33.2188 35.2102L33.9492 35.8932L33.9506 35.8917L33.2188 35.2102ZM27.6648 41.1506L26.9343 40.4676L26.6648 40.7559V41.1506H27.6648ZM27.6648 41.3438H26.6648V42.3438H27.6648V41.3438ZM39.1591 41.3438H40.1591V40.3438H39.1591V41.3438ZM39.1591 44V45H40.1591V44H39.1591ZM24.5597 44V41.8267H22.5597V44H24.5597ZM24.298 42.5012L32.4599 33.5665L30.9833 32.2176L22.8213 41.1522L24.298 42.5012ZM32.4592 33.5673C33.4261 32.511 34.2303 31.5842 34.8681 30.789L33.308 29.5377C32.7062 30.2879 31.9328 31.1803 30.984 32.2168L32.4592 33.5673ZM34.8713 30.7851C35.5283 29.9575 36.0395 29.1505 36.3814 28.365L34.5476 27.5668C34.2938 28.1497 33.8875 28.8077 33.3048 29.5416L34.8713 30.7851ZM36.3792 28.3701C36.7413 27.5506 36.9233 26.6885 36.9233 25.7926H34.9233C34.9233 26.41 34.7994 26.9968 34.5498 27.5617L36.3792 28.3701ZM36.9233 25.7926C36.9233 24.7564 36.6714 23.8064 36.1307 22.985L34.4602 24.0846C34.7566 24.535 34.9233 25.0902 34.9233 25.7926H36.9233ZM36.1356 22.9924C35.6203 22.1942 34.913 21.5831 34.0401 21.1614L33.1701 22.9622C33.73 23.2327 34.1496 23.6036 34.4553 24.0772L36.1356 22.9924ZM34.0401 21.1614C33.1722 20.7421 32.2158 20.5426 31.1903 20.5426V22.5426C31.9518 22.5426 32.6052 22.6893 33.1701 22.9622L34.0401 21.1614ZM31.1903 20.5426C30.0996 20.5426 29.0974 20.7701 28.2166 21.2605L29.1896 23.0079C29.7255 22.7095 30.3814 22.5426 31.1903 22.5426V20.5426ZM28.22 21.2587C27.3545 21.7362 26.6751 22.4156 26.1976 23.2811L27.9487 24.2473C28.2439 23.7122 28.6512 23.305 29.1862 23.0098L28.22 21.2587ZM26.1933 23.2889C25.7229 24.1598 25.5057 25.15 25.5057 26.2273H27.5057C27.5057 25.4211 27.6668 24.7692 27.953 24.2395L26.1933 23.2889ZM26.5057 25.2273H23.6562V27.2273H26.5057V25.2273ZM24.6562 26.2273C24.6562 24.9378 24.9516 23.8511 25.512 22.9329L23.8048 21.891C23.029 23.1622 22.6562 24.619 22.6562 26.2273H24.6562ZM25.512 22.9329C26.0851 21.9937 26.8608 21.2644 27.8564 20.7353L26.9178 18.9692C25.6112 19.6636 24.5678 20.6407 23.8048 21.891L25.512 22.9329ZM27.8538 20.7367C28.8552 20.2082 29.9923 19.9347 31.2869 19.9347V17.9347C29.6999 17.9347 28.2372 18.2729 26.9203 18.9679L27.8538 20.7367ZM31.2869 19.9347C32.5913 19.9347 33.7061 20.2088 34.6588 20.7297L35.6182 18.9749C34.3332 18.2723 32.8803 17.9347 31.2869 17.9347V19.9347ZM34.6588 20.7297C35.6319 21.2618 36.3775 21.9674 36.9178 22.8497L38.6234 21.8052C37.8919 20.6107 36.8828 19.6663 35.6182 18.9749L34.6588 20.7297ZM36.9178 22.8497C37.453 23.7237 37.7244 24.6966 37.7244 25.7926H39.7244C39.7244 24.3451 39.3599 23.0079 38.6234 21.8052L36.9178 22.8497ZM37.7244 25.7926C37.7244 26.5782 37.5825 27.3475 37.2945 28.106L39.1643 28.8159C39.5364 27.8357 39.7244 26.8262 39.7244 25.7926H37.7244ZM37.2927 28.1108C37.0162 28.8504 36.5122 29.7261 35.742 30.7427L37.3362 31.9504C38.1758 30.8421 38.7986 29.794 39.1661 28.8111L37.2927 28.1108ZM35.7413 30.7437C34.9732 31.76 33.8918 33.0201 32.4869 34.5287L33.9506 35.8917C35.379 34.3578 36.5112 33.0421 37.3369 31.9495L35.7413 30.7437ZM32.4883 34.5273L26.9343 40.4676L28.3952 41.8335L33.9492 35.8932L32.4883 34.5273ZM26.6648 41.1506V41.3438H28.6648V41.1506H26.6648ZM27.6648 42.3438H39.1591V40.3438H27.6648V42.3438ZM38.1591 41.3438V44H40.1591V41.3438H38.1591ZM39.1591 43H23.5597V45H39.1591V43Z" fill="#E3E3E3"/>
</svg>
