<svg width="61" height="62" viewBox="0 0 61 62" fill="none" xmlns="http://www.w3.org/2000/svg">
<rect width="61" height="62" rx="10" fill="#FEA000"/>
<path d="M20.767 32.071V29.4631H35.642V32.071H20.767ZM20.767 39.2188V36.6108H35.642V39.2188H20.767Z" fill="white"/>
<path d="M20.767 32.071H19.767V33.071H20.767V32.071ZM20.767 29.4631V28.4631H19.767V29.4631H20.767ZM35.642 29.4631H36.642V28.4631H35.642V29.4631ZM35.642 32.071V33.071H36.642V32.071H35.642ZM20.767 39.2188H19.767V40.2188H20.767V39.2188ZM20.767 36.6108V35.6108H19.767V36.6108H20.767ZM35.642 36.6108H36.642V35.6108H35.642V36.6108ZM35.642 39.2188V40.2188H36.642V39.2188H35.642ZM21.767 32.071V29.4631H19.767V32.071H21.767ZM20.767 30.4631H35.642V28.4631H20.767V30.4631ZM34.642 29.4631V32.071H36.642V29.4631H34.642ZM35.642 31.071H20.767V33.071H35.642V31.071ZM21.767 39.2188V36.6108H19.767V39.2188H21.767ZM20.767 37.6108H35.642V35.6108H20.767V37.6108ZM34.642 36.6108V39.2188H36.642V36.6108H34.642ZM35.642 38.2188H20.767V40.2188H35.642V38.2188Z" fill="#E3E3E3"/>
</svg>
