<svg width="61" height="62" viewBox="0 0 61 62" fill="none" xmlns="http://www.w3.org/2000/svg">
<rect width="61" height="62" rx="15" fill="#FEA000"/>
<path d="M29.8523 42.3097V26.3722H32.5568V42.3097H29.8523ZM23.2358 35.6932V32.9886H39.1733V35.6932H23.2358Z" fill="white"/>
<path d="M29.8523 42.3097H28.8523V43.3097H29.8523V42.3097ZM29.8523 26.3722V25.3722H28.8523V26.3722H29.8523ZM32.5568 26.3722H33.5568V25.3722H32.5568V26.3722ZM32.5568 42.3097V43.3097H33.5568V42.3097H32.5568ZM23.2358 35.6932H22.2358V36.6932H23.2358V35.6932ZM23.2358 32.9886V31.9886H22.2358V32.9886H23.2358ZM39.1733 32.9886H40.1733V31.9886H39.1733V32.9886ZM39.1733 35.6932V36.6932H40.1733V35.6932H39.1733ZM30.8523 42.3097V26.3722H28.8523V42.3097H30.8523ZM29.8523 27.3722H32.5568V25.3722H29.8523V27.3722ZM31.5568 26.3722V42.3097H33.5568V26.3722H31.5568ZM32.5568 41.3097H29.8523V43.3097H32.5568V41.3097ZM24.2358 35.6932V32.9886H22.2358V35.6932H24.2358ZM23.2358 33.9886H39.1733V31.9886H23.2358V33.9886ZM38.1733 32.9886V35.6932H40.1733V32.9886H38.1733ZM39.1733 34.6932H23.2358V36.6932H39.1733V34.6932Z" fill="#E3E3E3"/>
</svg>
