<svg width="61" height="62" viewBox="0 0 61 62" fill="none" xmlns="http://www.w3.org/2000/svg">
<rect width="61" height="62" rx="15" fill="#FEA000"/>
<path d="M23.4432 20.2727L29.8182 30.5597H30.0114L36.3864 20.2727H39.9119L32.1364 32.6364L39.9119 45H36.3864L30.0114 34.9062H29.8182L23.4432 45H19.9176L27.8864 32.6364L19.9176 20.2727H23.4432Z" fill="white"/>
<path d="M23.4432 20.2727L24.2932 19.746L23.9999 19.2727H23.4432V20.2727ZM29.8182 30.5597L28.9682 31.0864L29.2614 31.5597H29.8182V30.5597ZM30.0114 30.5597V31.5597H30.5681L30.8614 31.0864L30.0114 30.5597ZM36.3864 20.2727V19.2727H35.8296L35.5364 19.746L36.3864 20.2727ZM39.9119 20.2727L40.7584 20.8051L41.7222 19.2727H39.9119V20.2727ZM32.1364 32.6364L31.2899 32.104L30.955 32.6364L31.2899 33.1687L32.1364 32.6364ZM39.9119 45V46H41.7222L40.7584 44.4676L39.9119 45ZM36.3864 45L35.5409 45.534L35.8352 46H36.3864V45ZM30.0114 34.9062L30.8569 34.3723L30.5625 33.9062H30.0114V34.9062ZM29.8182 34.9062V33.9062H29.267L28.9727 34.3723L29.8182 34.9062ZM23.4432 45V46H23.9944L24.2887 45.534L23.4432 45ZM19.9176 45L19.0771 44.4582L18.0834 46H19.9176V45ZM27.8864 32.6364L28.7269 33.1781L29.0761 32.6364L28.7269 32.0946L27.8864 32.6364ZM19.9176 20.2727V19.2727H18.0834L19.0771 20.8145L19.9176 20.2727ZM22.5932 20.7995L28.9682 31.0864L30.6682 30.0329L24.2932 19.746L22.5932 20.7995ZM29.8182 31.5597H30.0114V29.5597H29.8182V31.5597ZM30.8614 31.0864L37.2364 20.7995L35.5364 19.746L29.1614 30.0329L30.8614 31.0864ZM36.3864 21.2727H39.9119V19.2727H36.3864V21.2727ZM39.0654 19.7404L31.2899 32.104L32.9829 33.1687L40.7584 20.8051L39.0654 19.7404ZM31.2899 33.1687L39.0654 45.5324L40.7584 44.4676L32.9829 32.104L31.2899 33.1687ZM39.9119 44H36.3864V46H39.9119V44ZM37.2319 44.466L30.8569 34.3723L29.1659 35.4402L35.5409 45.534L37.2319 44.466ZM30.0114 33.9062H29.8182V35.9062H30.0114V33.9062ZM28.9727 34.3723L22.5977 44.466L24.2887 45.534L30.6637 35.4402L28.9727 34.3723ZM23.4432 44H19.9176V46H23.4432V44ZM20.7582 45.5418L28.7269 33.1781L27.0458 32.0946L19.0771 44.4582L20.7582 45.5418ZM28.7269 32.0946L20.7582 19.731L19.0771 20.8145L27.0458 33.1781L28.7269 32.0946ZM19.9176 21.2727H23.4432V19.2727H19.9176V21.2727Z" fill="#E3E3E3"/>
</svg>
