<svg width="62" height="62" viewBox="0 0 62 62" fill="none" xmlns="http://www.w3.org/2000/svg">
<rect width="62" height="62" rx="15" fill="#343434"/>
<path d="M32.4318 19.9347C33.446 19.9427 34.4602 20.1359 35.4744 20.5142C36.4886 20.8925 37.4143 21.5204 38.2514 22.3977C39.0885 23.267 39.7607 24.4543 40.2678 25.9595C40.7749 27.4647 41.0284 29.3523 41.0284 31.6222C41.0284 33.8196 40.8191 35.7715 40.4006 37.478C39.9901 39.1764 39.3944 40.6091 38.6136 41.7763C37.8409 42.9434 36.8991 43.8288 35.7884 44.4325C34.6856 45.0362 33.438 45.3381 32.0455 45.3381C30.661 45.3381 29.4254 45.0644 28.3388 44.517C27.2602 43.9616 26.3748 43.1929 25.6825 42.2109C24.9983 41.2209 24.5597 40.0739 24.3665 38.7699H27.3125C27.5781 39.9048 28.1054 40.8426 28.8942 41.5831C29.6911 42.3156 30.7415 42.6818 32.0455 42.6818C33.9531 42.6818 35.4583 41.8487 36.5611 40.1825C37.6719 38.5163 38.2273 36.1619 38.2273 33.1193H38.0341C37.5833 33.7955 37.0481 34.379 36.4283 34.87C35.8085 35.361 35.1203 35.7393 34.3636 36.005C33.607 36.2706 32.8021 36.4034 31.9489 36.4034C30.5322 36.4034 29.2322 36.0533 28.049 35.353C26.8738 34.6446 25.9321 33.6747 25.2237 32.4432C24.5234 31.2036 24.1733 29.7869 24.1733 28.1932C24.1733 26.6799 24.5114 25.2955 25.1875 24.0398C25.8717 22.776 26.8295 21.7699 28.0611 21.0213C29.3007 20.2727 30.7576 19.9105 32.4318 19.9347ZM32.4318 22.5909C31.4176 22.5909 30.504 22.8445 29.6911 23.3516C28.8861 23.8506 28.2462 24.5268 27.7713 25.38C27.3045 26.2251 27.071 27.1629 27.071 28.1932C27.071 29.2235 27.2964 30.1612 27.7472 31.0064C28.206 31.8435 28.8298 32.5116 29.6186 33.0107C30.4155 33.5017 31.321 33.7472 32.3352 33.7472C33.0999 33.7472 33.8123 33.5982 34.4723 33.3004C35.1323 32.9946 35.7079 32.58 36.1989 32.0568C36.6979 31.5256 37.0883 30.9259 37.37 30.2578C37.6518 29.5817 37.7926 28.8774 37.7926 28.1449C37.7926 27.179 37.5592 26.2734 37.0923 25.4283C36.6335 24.5831 35.9976 23.8989 35.1847 23.3757C34.3797 22.8525 33.4621 22.5909 32.4318 22.5909Z" fill="#E3E3E3"/>
<path d="M32.4318 19.9347L32.4174 20.9346L32.4239 20.9346L32.4318 19.9347ZM35.4744 20.5142L35.8239 19.5773L35.8239 19.5773L35.4744 20.5142ZM38.2514 22.3977L37.5279 23.0881L37.5311 23.0914L38.2514 22.3977ZM40.2678 25.9595L39.3201 26.2788L39.3201 26.2788L40.2678 25.9595ZM40.4006 37.478L39.4294 37.2398L39.4286 37.243L40.4006 37.478ZM38.6136 41.7763L37.7825 41.2202L37.7798 41.2242L38.6136 41.7763ZM35.7884 44.4325L35.3108 43.5539L35.3082 43.5554L35.7884 44.4325ZM28.3388 44.517L27.881 45.4061L27.8889 45.4101L28.3388 44.517ZM25.6825 42.2109L24.8598 42.7795L24.8652 42.7871L25.6825 42.2109ZM24.3665 38.7699V37.7699H23.2074L23.3773 38.9164L24.3665 38.7699ZM27.3125 38.7699L28.2862 38.542L28.1055 37.7699H27.3125V38.7699ZM28.8942 41.5831L28.2097 42.3122L28.2174 42.3193L28.8942 41.5831ZM36.5611 40.1825L35.729 39.6278L35.7272 39.6306L36.5611 40.1825ZM38.2273 33.1193H39.2273V32.1193H38.2273V33.1193ZM38.0341 33.1193V32.1193H37.4989L37.202 32.5646L38.0341 33.1193ZM28.049 35.353L27.5328 36.2095L27.5397 36.2136L28.049 35.353ZM25.2237 32.4432L24.353 32.9351L24.3569 32.9418L25.2237 32.4432ZM25.1875 24.0398L24.3081 23.5637L24.307 23.5657L25.1875 24.0398ZM28.0611 21.0213L27.5441 20.1653L27.5417 20.1668L28.0611 21.0213ZM29.6911 23.3516L30.218 24.2015L30.2203 24.2L29.6911 23.3516ZM27.7713 25.38L26.8975 24.8936L26.896 24.8965L27.7713 25.38ZM27.7472 31.0064L26.8647 31.477L26.8702 31.487L27.7472 31.0064ZM29.6186 33.0107L29.0839 33.8558L29.094 33.862L29.6186 33.0107ZM34.4723 33.3004L34.8836 34.212L34.8928 34.2077L34.4723 33.3004ZM36.1989 32.0568L35.47 31.3721L35.4697 31.3725L36.1989 32.0568ZM37.37 30.2578L38.2915 30.6464L38.2931 30.6424L37.37 30.2578ZM37.0923 25.4283L36.2135 25.9054L36.217 25.9118L37.0923 25.4283ZM35.1847 23.3757L34.6397 24.2142L34.6435 24.2166L35.1847 23.3757ZM32.4239 20.9346C33.3138 20.9417 34.2126 21.1108 35.1249 21.4511L35.8239 19.5773C34.7078 19.1609 33.5783 18.9437 32.4398 18.9347L32.4239 20.9346ZM35.1249 21.4511C35.9812 21.7705 36.7825 22.3068 37.5279 23.088L38.9749 21.7074C38.0461 20.7339 36.9961 20.0145 35.8239 19.5773L35.1249 21.4511ZM37.5311 23.0914C38.2387 23.8261 38.8459 24.8713 39.3201 26.2788L41.2154 25.6402C40.6754 24.0373 39.9384 22.7079 38.9717 21.7041L37.5311 23.0914ZM39.3201 26.2788C39.7812 27.6473 40.0284 29.4183 40.0284 31.6222H42.0284C42.0284 29.2863 41.7686 27.2821 41.2154 25.6402L39.3201 26.2788ZM40.0284 31.6222C40.0284 33.7584 39.8247 35.6279 39.4294 37.2398L41.3718 37.7162C41.8135 35.9152 42.0284 33.8808 42.0284 31.6222H40.0284ZM39.4286 37.243C39.0392 38.8538 38.484 40.1716 37.7825 41.2203L39.4448 42.3323C40.3049 41.0466 40.9409 39.4989 41.3726 37.7129L39.4286 37.243ZM37.7798 41.2242C37.0875 42.2699 36.263 43.0364 35.3108 43.5539L36.2659 45.3112C37.5353 44.6213 38.5943 43.6169 39.4475 42.3283L37.7798 41.2242ZM35.3082 43.5554C34.368 44.0701 33.2886 44.3381 32.0455 44.3381V46.3381C33.5874 46.3381 35.0032 46.0024 36.2685 45.3097L35.3082 43.5554ZM32.0455 44.3381C30.7956 44.3381 29.7176 44.0919 28.7886 43.6239L27.8889 45.4101C29.1333 46.0369 30.5264 46.3381 32.0455 46.3381V44.3381ZM28.7966 43.628C27.8598 43.1456 27.0983 42.4837 26.4999 41.6348L24.8652 42.7871C25.6512 43.9022 26.6605 44.7777 27.881 45.4061L28.7966 43.628ZM26.5052 41.6424C25.9162 40.7901 25.5286 39.7904 25.3557 38.6233L23.3773 38.9164C23.5907 40.3573 24.0805 41.6517 24.8599 42.7795L26.5052 41.6424ZM24.3665 39.7699H27.3125V37.7699H24.3665V39.7699ZM26.3388 38.9978C26.6457 40.3091 27.266 41.4262 28.2097 42.3122L29.5786 40.854C28.9447 40.2589 28.5105 39.5006 28.2862 38.542L26.3388 38.9978ZM28.2174 42.3193C29.2352 43.2548 30.545 43.6818 32.0455 43.6818V41.6818C30.938 41.6818 30.1469 41.3763 29.5709 40.8469L28.2174 42.3193ZM32.0455 43.6818C34.3073 43.6818 36.1176 42.6646 37.395 40.7344L35.7272 39.6306C34.7991 41.0329 33.599 41.6818 32.0455 41.6818V43.6818ZM37.3931 40.7372C38.6566 38.842 39.2273 36.2636 39.2273 33.1193H37.2273C37.2273 36.0602 36.6871 38.1907 35.729 39.6278L37.3931 40.7372ZM38.2273 32.1193H38.0341V34.1193H38.2273V32.1193ZM37.202 32.5646C36.8076 33.1563 36.3429 33.6619 35.8073 34.0862L37.0492 35.6539C37.7532 35.0962 38.359 34.4347 38.8661 33.674L37.202 32.5646ZM35.8073 34.0862C35.2758 34.5073 34.6858 34.8321 34.0324 35.0614L34.6949 36.9485C35.5548 36.6466 36.3412 36.2148 37.0492 35.6539L35.8073 34.0862ZM34.0324 35.0614C33.3888 35.2874 32.6965 35.4034 31.9489 35.4034V37.4034C32.9076 37.4034 33.8252 37.2538 34.6949 36.9485L34.0324 35.0614ZM31.9489 35.4034C30.7057 35.4034 29.5825 35.0986 28.5583 34.4924L27.5397 36.2136C28.882 37.008 30.3587 37.4034 31.9489 37.4034V35.4034ZM28.5652 34.4965C27.5406 33.879 26.7174 33.0344 26.0906 31.9446L24.3569 32.9418C25.1467 34.315 26.207 35.4103 27.5328 36.2094L28.5652 34.4965ZM26.0944 31.9513C25.4886 30.8791 25.1733 29.6356 25.1733 28.1932H23.1733C23.1733 29.9383 23.5582 31.5281 24.3531 32.9351L26.0944 31.9513ZM25.1733 28.1932C25.1733 26.835 25.4751 25.6149 26.068 24.5139L24.307 23.5657C23.5476 24.976 23.1733 26.5249 23.1733 28.1932H25.1733ZM26.0669 24.5159C26.6665 23.4084 27.4999 22.5327 28.5805 21.8758L27.5417 20.1668C26.1592 21.0071 25.0769 22.1437 24.3081 23.5637L26.0669 24.5159ZM28.578 21.8773C29.6337 21.2398 30.9004 20.9127 32.4174 20.9346L32.4462 18.9348C30.6147 18.9083 28.9676 19.3056 27.5441 20.1653L28.578 21.8773ZM32.4318 21.5909C31.2419 21.5909 30.143 21.8911 29.1618 22.5031L30.2203 24.2C30.8651 23.7978 31.5933 23.5909 32.4318 23.5909V21.5909ZM29.1641 22.5017C28.2099 23.0933 27.4525 23.8965 26.8975 24.8936L28.6451 25.8663C29.0399 25.157 29.5623 24.608 30.218 24.2015L29.1641 22.5017ZM26.896 24.8965C26.3419 25.8996 26.071 27.0055 26.071 28.1932H28.071C28.071 27.3203 28.267 26.5507 28.6466 25.8635L26.896 24.8965ZM26.071 28.1932C26.071 29.3749 26.331 30.4761 26.8648 31.477L28.6295 30.5358C28.2618 29.8463 28.071 29.0721 28.071 28.1932H26.071ZM26.8702 31.487C27.4085 32.4691 28.1487 33.264 29.084 33.8557L30.1533 32.1656C29.5109 31.7592 29.0034 31.2179 28.6241 30.5258L26.8702 31.487ZM29.094 33.862C30.0618 34.4583 31.1518 34.7472 32.3352 34.7472V32.7472C31.4902 32.7472 30.7692 32.545 30.1432 32.1593L29.094 33.862ZM32.3352 34.7472C33.2336 34.7472 34.0871 34.5713 34.8836 34.2119L34.061 32.3889C33.5374 32.6252 32.9662 32.7472 32.3352 32.7472V34.7472ZM34.8928 34.2077C35.6674 33.8488 36.3481 33.3591 36.9281 32.7411L35.4697 31.3725C35.0676 31.801 34.5973 32.1403 34.0518 32.3931L34.8928 34.2077ZM36.9277 32.7415C37.5076 32.1242 37.9634 31.4244 38.2915 30.6464L36.4486 29.8693C36.2132 30.4274 35.8883 30.9269 35.47 31.3721L36.9277 32.7415ZM38.2931 30.6424C38.6256 29.8444 38.7926 29.0094 38.7926 28.1449H36.7926C36.7926 28.7453 36.6779 29.3189 36.447 29.8732L38.2931 30.6424ZM38.7926 28.1449C38.7926 27.0099 38.5163 25.938 37.9677 24.9447L36.217 25.9118C36.602 26.6089 36.7926 27.348 36.7926 28.1449H38.7926ZM37.9712 24.9512C37.4317 23.9575 36.6794 23.1485 35.7258 22.5348L34.6435 24.2166C35.3159 24.6494 35.8353 25.2087 36.2135 25.9054L37.9712 24.9512ZM35.7296 22.5373C34.7505 21.9008 33.6408 21.5909 32.4318 21.5909V23.5909C33.2835 23.5909 34.0089 23.8042 34.6397 24.2142L35.7296 22.5373Z" fill="#E3E3E3"/>
</svg>
