<svg width="63" height="62" viewBox="0 0 63 62" fill="none" xmlns="http://www.w3.org/2000/svg">
<rect width="63" height="62" rx="15" fill="#343434"/>
<path d="M31.4801 45.3381C29.822 45.3381 28.357 45.0443 27.0852 44.4567C25.8215 43.861 24.8355 43.044 24.1271 42.0057C23.4188 40.9593 23.0687 39.768 23.0767 38.4318C23.0687 37.3854 23.2739 36.4195 23.6925 35.5341C24.111 34.6406 24.6825 33.8961 25.407 33.3004C26.1394 32.6967 26.9564 32.3144 27.858 32.1534V32.0085C26.6747 31.7027 25.733 31.0386 25.0327 30.0163C24.3324 28.986 23.9863 27.8149 23.9943 26.5028C23.9863 25.2472 24.3042 24.1243 24.9482 23.1342C25.5921 22.1442 26.4775 21.3634 27.6044 20.7919C28.7393 20.2204 30.0313 19.9347 31.4801 19.9347C32.9129 19.9347 34.1927 20.2204 35.3196 20.7919C36.4465 21.3634 37.3319 22.1442 37.9759 23.1342C38.6278 24.1243 38.9579 25.2472 38.9659 26.5028C38.9579 27.8149 38.5997 28.986 37.8913 30.0163C37.1911 31.0386 36.2614 31.7027 35.1023 32.0085V32.1534C35.9957 32.3144 36.8007 32.6967 37.517 33.3004C38.2334 33.8961 38.8049 34.6406 39.2315 35.5341C39.6581 36.4195 39.8755 37.3854 39.8835 38.4318C39.8755 39.768 39.5133 40.9593 38.7969 42.0057C38.0885 43.044 37.1025 43.861 35.8388 44.4567C34.5831 45.0443 33.1302 45.3381 31.4801 45.3381ZM31.4801 42.6818C32.599 42.6818 33.5649 42.5007 34.3778 42.1385C35.1908 41.7763 35.8187 41.2652 36.2614 40.6051C36.7041 39.9451 36.9295 39.1723 36.9375 38.2869C36.9295 37.3532 36.688 36.5282 36.2131 35.8118C35.7382 35.0954 35.0902 34.532 34.2692 34.1214C33.4562 33.7109 32.5265 33.5057 31.4801 33.5057C30.4257 33.5057 29.4839 33.7109 28.6548 34.1214C27.8338 34.532 27.1858 35.0954 26.7109 35.8118C26.2441 36.5282 26.0147 37.3532 26.0227 38.2869C26.0147 39.1723 26.228 39.9451 26.6626 40.6051C27.1054 41.2652 27.7372 41.7763 28.5582 42.1385C29.3793 42.5007 30.3532 42.6818 31.4801 42.6818ZM31.4801 30.946C32.3655 30.946 33.1503 30.7689 33.8345 30.4148C34.5268 30.0606 35.0701 29.5656 35.4645 28.9297C35.8589 28.2938 36.0601 27.5492 36.0682 26.696C36.0601 25.8589 35.8629 25.1304 35.4766 24.5107C35.0902 23.8828 34.5549 23.3999 33.8707 23.0618C33.1866 22.7157 32.3897 22.5426 31.4801 22.5426C30.5545 22.5426 29.7455 22.7157 29.0533 23.0618C28.361 23.3999 27.8258 23.8828 27.4474 24.5107C27.0691 25.1304 26.884 25.8589 26.892 26.696C26.884 27.5492 27.0732 28.2938 27.4595 28.9297C27.8539 29.5656 28.3973 30.0606 29.0895 30.4148C29.7817 30.7689 30.5786 30.946 31.4801 30.946Z" fill="#E3E3E3"/>
<path d="M27.0852 44.4567L26.6589 45.3613L26.6658 45.3645L27.0852 44.4567ZM24.1271 42.0057L23.299 42.5663L23.301 42.5692L24.1271 42.0057ZM23.0767 38.4318L24.0768 38.4378L24.0767 38.4241L23.0767 38.4318ZM23.6925 35.5341L24.5965 35.9615L24.598 35.9583L23.6925 35.5341ZM25.407 33.3004L26.0421 34.0729L26.043 34.0721L25.407 33.3004ZM27.858 32.1534L28.0337 33.1378L28.858 32.9907V32.1534H27.858ZM27.858 32.0085H28.858V31.2342L28.1082 31.0403L27.858 32.0085ZM25.0327 30.0163L24.2056 30.5785L24.2077 30.5815L25.0327 30.0163ZM23.9943 26.5028L24.9944 26.509L24.9943 26.4964L23.9943 26.5028ZM24.9482 23.1342L25.7864 23.6795L25.7864 23.6795L24.9482 23.1342ZM27.6044 20.7919L27.1547 19.8987L27.1521 19.9L27.6044 20.7919ZM37.9759 23.1342L37.1376 23.6795L37.1407 23.6842L37.9759 23.1342ZM38.9659 26.5028L39.966 26.509L39.9659 26.4964L38.9659 26.5028ZM37.8913 30.0163L37.0673 29.4498L37.0663 29.4512L37.8913 30.0163ZM35.1023 32.0085L34.8471 31.0416L34.1023 31.2382V32.0085H35.1023ZM35.1023 32.1534H34.1023V32.9893L34.9249 33.1376L35.1023 32.1534ZM37.517 33.3004L36.8726 34.0651L36.8777 34.0694L37.517 33.3004ZM39.2315 35.5341L38.3291 35.965L38.3307 35.9682L39.2315 35.5341ZM39.8835 38.4318L40.8836 38.4378L40.8835 38.4241L39.8835 38.4318ZM38.7969 42.0057L37.9717 41.4408L37.9708 41.4421L38.7969 42.0057ZM35.8388 44.4567L36.2626 45.3624L36.2651 45.3612L35.8388 44.4567ZM34.3778 42.1385L33.9709 41.2251L33.9709 41.2251L34.3778 42.1385ZM36.2614 40.6051L35.4309 40.0481L35.4309 40.0481L36.2614 40.6051ZM36.9375 38.2869L37.9375 38.296L37.9375 38.2872L37.9375 38.2783L36.9375 38.2869ZM36.2131 35.8118L35.3796 36.3643L35.3796 36.3643L36.2131 35.8118ZM34.2692 34.1214L33.8184 35.0141L33.822 35.0159L34.2692 34.1214ZM28.6548 34.1214L28.2111 33.2253L28.2076 33.227L28.6548 34.1214ZM26.7109 35.8118L25.8774 35.2592L25.8731 35.2658L26.7109 35.8118ZM26.0227 38.2869L27.0227 38.296L27.0228 38.2872L27.0227 38.2783L26.0227 38.2869ZM26.6626 40.6051L25.8274 41.1551L25.8322 41.1621L26.6626 40.6051ZM28.5582 42.1385L28.9619 41.2236L28.5582 42.1385ZM33.8345 30.4148L33.379 29.5245L33.3748 29.5267L33.8345 30.4148ZM35.4645 28.9297L36.3143 29.4568L36.3143 29.4568L35.4645 28.9297ZM36.0682 26.696L37.0681 26.7055L37.0682 26.6959L37.0681 26.6864L36.0682 26.696ZM35.4766 24.5107L34.6249 25.0348L34.6279 25.0397L35.4766 24.5107ZM33.8707 23.0618L33.4193 23.9541L33.4278 23.9583L33.8707 23.0618ZM29.0533 23.0618L29.4921 23.9604L29.5005 23.9562L29.0533 23.0618ZM27.4474 24.5107L28.301 25.0317L28.304 25.0268L27.4474 24.5107ZM26.892 26.696L27.892 26.7055L27.8921 26.6959L27.892 26.6864L26.892 26.696ZM27.4595 28.9297L26.6049 29.449L26.6097 29.4568L27.4595 28.9297ZM31.4801 44.3381C29.9405 44.3381 28.623 44.0656 27.5047 43.5489L26.6658 45.3645C28.091 46.0229 29.7034 46.3381 31.4801 46.3381V44.3381ZM27.5116 43.5521C26.3907 43.0238 25.5502 42.3172 24.9532 41.4421L23.301 42.5692C24.1207 43.7708 25.2523 44.6983 26.6589 45.3612L27.5116 43.5521ZM24.9552 41.4451C24.3668 40.5758 24.0698 39.5844 24.0767 38.4378L22.0767 38.4258C22.0675 39.9516 22.4708 41.3428 23.299 42.5662L24.9552 41.4451ZM24.0767 38.4241C24.0697 37.5176 24.2466 36.7017 24.5965 35.9615L22.7884 35.1067C22.3012 36.1373 22.0676 37.2532 22.0767 38.4395L24.0767 38.4241ZM24.598 35.9583C24.9568 35.1924 25.4385 34.5691 26.0421 34.0729L24.7719 32.528C23.9265 33.2231 23.2652 34.0888 22.7869 35.1099L24.598 35.9583ZM26.043 34.0721C26.6479 33.5735 27.3077 33.2675 28.0337 33.1378L27.6822 31.169C26.6052 31.3613 25.631 31.8199 24.771 32.5287L26.043 34.0721ZM28.858 32.1534V32.0085H26.858V32.1534H28.858ZM28.1082 31.0403C27.1625 30.7959 26.4235 30.2771 25.8577 29.4512L24.2077 30.5815C25.0425 31.8001 26.1869 32.6094 27.6077 32.9767L28.1082 31.0403ZM25.8597 29.4542C25.2795 28.6006 24.9874 27.6298 24.9943 26.509L22.9943 26.4967C22.9851 27.9999 23.3852 29.3714 24.2056 30.5785L25.8597 29.4542ZM24.9943 26.4964C24.9874 25.4235 25.2561 24.4949 25.7864 23.6795L24.1099 22.589C23.3523 23.7537 22.9851 25.0708 22.9943 26.5092L24.9943 26.4964ZM25.7864 23.6795C26.3277 22.8472 27.0754 22.1814 28.0567 21.6838L27.1521 19.9C25.8796 20.5454 24.8564 21.4411 24.1099 22.589L25.7864 23.6795ZM28.0541 21.6851C29.0312 21.1931 30.1654 20.9347 31.4801 20.9347V18.9347C29.8971 18.9347 28.4475 19.2477 27.1547 19.8987L28.0541 21.6851ZM31.4801 20.9347C32.7769 20.9347 33.8984 21.1924 34.8673 21.6838L35.7719 19.9C34.4871 19.2484 33.0488 18.9347 31.4801 18.9347V20.9347ZM34.8673 21.6838C35.8486 22.1814 36.5963 22.8472 37.1376 23.6795L38.8141 22.589C38.0676 21.4411 37.0444 20.5454 35.7719 19.9L34.8673 21.6838ZM37.1407 23.6842C37.6799 24.5031 37.959 25.4349 37.9659 26.5093L39.9659 26.4964C39.9567 25.0595 39.5758 23.7455 38.811 22.5842L37.1407 23.6842ZM37.9659 26.4967C37.959 27.619 37.6564 28.5929 37.0673 29.4498L38.7154 30.5829C39.5429 29.3792 39.9567 28.0107 39.9659 26.509L37.9659 26.4967ZM37.0663 29.4512C36.4967 30.2828 35.7658 30.7992 34.8471 31.0416L35.3574 32.9754C36.7569 32.6061 37.8854 31.7944 38.7163 30.5815L37.0663 29.4512ZM34.1023 32.0085V32.1534H36.1023V32.0085H34.1023ZM34.9249 33.1376C35.6405 33.2665 36.2856 33.5704 36.8726 34.0651L38.1614 32.5357C37.3157 31.823 36.3509 31.3623 35.2796 31.1693L34.9249 33.1376ZM36.8777 34.0694C37.4761 34.5669 37.9608 35.1935 38.3291 35.965L40.1339 35.1032C39.6491 34.0877 38.9907 33.2252 38.1564 32.5315L36.8777 34.0694ZM38.3307 35.9682C38.689 36.712 38.8766 37.531 38.8836 38.4395L40.8835 38.4241C40.8744 37.2398 40.6272 36.127 40.1324 35.1L38.3307 35.9682ZM38.8835 38.4258C38.8766 39.5737 38.5691 40.5681 37.9717 41.4408L39.622 42.5706C40.4574 41.3504 40.8743 39.9623 40.8835 38.4378L38.8835 38.4258ZM37.9708 41.4421C37.3738 42.3172 36.5333 43.0238 35.4124 43.5521L36.2651 45.3612C37.6717 44.6983 38.8033 43.7708 39.623 42.5692L37.9708 41.4421ZM35.4149 43.5509C34.3148 44.0658 33.0113 44.3381 31.4801 44.3381V46.3381C33.2492 46.3381 34.8514 46.0228 36.2626 45.3624L35.4149 43.5509ZM31.4801 43.6818C32.7043 43.6818 33.8153 43.4839 34.7848 43.0519L33.9709 41.2251C33.3144 41.5175 32.4936 41.6818 31.4801 41.6818V43.6818ZM34.7848 43.0519C35.7485 42.6226 36.5321 41.9967 37.0919 41.1621L35.4309 40.0481C35.1052 40.5336 34.6332 40.93 33.9709 41.2251L34.7848 43.0519ZM37.0919 41.1621C37.6555 40.3218 37.9278 39.3536 37.9375 38.296L35.9375 38.2778C35.9311 38.9911 35.7526 39.5684 35.4309 40.0481L37.0919 41.1621ZM37.9375 38.2783C37.9279 37.1684 37.6377 36.1509 37.0466 35.2593L35.3796 36.3643C35.7383 36.9054 35.931 37.538 35.9375 38.2956L37.9375 38.2783ZM37.0466 35.2593C36.4684 34.3872 35.6828 33.7102 34.7164 33.227L33.822 35.0159C34.4976 35.3537 35.0079 35.8037 35.3796 36.3643L37.0466 35.2593ZM34.7199 33.2288C33.7477 32.7379 32.6597 32.5057 31.4801 32.5057V34.5057C32.3933 34.5057 33.1647 34.684 33.8184 35.0141L34.7199 33.2288ZM31.4801 32.5057C30.2933 32.5057 29.1963 32.7375 28.2111 33.2253L29.0986 35.0176C29.7715 34.6844 30.558 34.5057 31.4801 34.5057V32.5057ZM28.2076 33.227C27.2412 33.7102 26.4556 34.3872 25.8774 35.2593L27.5444 36.3643C27.9161 35.8037 28.4265 35.3537 29.102 35.0159L28.2076 33.227ZM25.8731 35.2658C25.289 36.1622 25.0132 37.1839 25.0228 38.2956L27.0227 38.2783C27.0162 37.5225 27.1992 36.8941 27.5487 36.3578L25.8731 35.2658ZM25.0228 38.2778C25.0131 39.3371 25.2707 40.3096 25.8275 41.1551L27.4978 40.0551C27.1853 39.5805 27.0162 39.0076 27.0227 38.296L25.0228 38.2778ZM25.8322 41.1621C26.3936 41.9992 27.1833 42.6249 28.1546 43.0534L28.9619 41.2236C28.2912 40.9277 27.8171 40.5311 27.4931 40.0481L25.8322 41.1621ZM28.1546 43.0534C29.1309 43.4841 30.2486 43.6818 31.4801 43.6818V41.6818C30.4578 41.6818 29.6276 41.5173 28.9619 41.2236L28.1546 43.0534ZM31.4801 31.946C32.5015 31.946 33.4481 31.7409 34.2942 31.3028L33.3748 29.5267C32.8526 29.797 32.2296 29.946 31.4801 29.946V31.946ZM34.29 31.305C35.1376 30.8713 35.8201 30.2536 36.3143 29.4568L34.6147 28.4026C34.3201 28.8776 33.9159 29.2499 33.379 29.5245L34.29 31.305ZM36.3143 29.4568C36.8181 28.6445 37.0586 27.7155 37.0681 26.7055L35.0682 26.6866C35.0617 27.383 34.8997 27.9431 34.6147 28.4026L36.3143 29.4568ZM37.0681 26.6864C37.0586 25.6929 36.8223 24.7791 36.3252 23.9816L34.6279 25.0397C34.9036 25.4818 35.0617 26.0249 35.0682 26.7056L37.0681 26.6864ZM36.3282 23.9866C35.8398 23.1928 35.1602 22.5835 34.3137 22.1653L33.4278 23.9583C33.9497 24.2162 34.3406 24.5728 34.6249 25.0347L36.3282 23.9866ZM34.3221 22.1695C33.4742 21.7405 32.5175 21.5426 31.4801 21.5426V23.5426C32.2619 23.5426 32.8989 23.6908 33.4193 23.9541L34.3221 22.1695ZM31.4801 21.5426C30.4294 21.5426 29.4618 21.7395 28.6061 22.1674L29.5005 23.9562C30.0292 23.6919 30.6795 23.5426 31.4801 23.5426V21.5426ZM28.6144 22.1632C27.7583 22.5813 27.0739 23.193 26.5909 23.9945L28.304 25.0268C28.5776 24.5726 28.9638 24.2184 29.4921 23.9604L28.6144 22.1632ZM26.5939 23.9897C26.1039 24.7923 25.8825 25.7106 25.8921 26.7056L27.892 26.6864C27.8855 26.0072 28.0343 25.4685 28.301 25.0317L26.5939 23.9897ZM25.8921 26.6866C25.8825 27.6982 26.1082 28.6315 26.6049 29.4489L28.3141 28.4104C28.0381 27.9561 27.8854 27.4003 27.892 26.7055L25.8921 26.6866ZM26.6097 29.4568C27.1039 30.2536 27.7864 30.8713 28.634 31.305L29.545 29.5245C29.0081 29.2499 28.6039 28.8776 28.3093 28.4026L26.6097 29.4568ZM28.634 31.305C29.4882 31.742 30.4455 31.946 31.4801 31.946V29.946C30.7117 29.946 30.0753 29.7959 29.545 29.5245L28.634 31.305Z" fill="#E3E3E3"/>
</svg>
