<svg width="62" height="62" viewBox="0 0 62 62" fill="none" xmlns="http://www.w3.org/2000/svg">
<rect width="62" height="62" rx="15" fill="#A4A4A4"/>
<path d="M33.1648 41.3636V40.0597C33.1648 39.1581 33.3499 38.3331 33.7202 37.5845C34.0985 36.8279 34.6458 36.2242 35.3622 35.7734C36.0866 35.3146 36.964 35.0852 37.9943 35.0852C39.0407 35.0852 39.9181 35.3146 40.6264 35.7734C41.3348 36.2242 41.87 36.8279 42.2322 37.5845C42.5945 38.3331 42.7756 39.1581 42.7756 40.0597V41.3636C42.7756 42.2652 42.5904 43.0942 42.2202 43.8509C41.858 44.5994 41.3187 45.2031 40.6023 45.6619C39.8939 46.1127 39.0246 46.3381 37.9943 46.3381C36.9479 46.3381 36.0665 46.1127 35.3501 45.6619C34.6338 45.2031 34.0904 44.5994 33.7202 43.8509C33.3499 43.0942 33.1648 42.2652 33.1648 41.3636ZM35.6278 40.0597V41.3636C35.6278 42.1122 35.8049 42.7843 36.1591 43.38C36.5133 43.9676 37.125 44.2614 37.9943 44.2614C38.8395 44.2614 39.4351 43.9676 39.7812 43.38C40.1354 42.7843 40.3125 42.1122 40.3125 41.3636V40.0597C40.3125 39.3111 40.1435 38.643 39.8054 38.0554C39.4673 37.4598 38.8636 37.1619 37.9943 37.1619C37.1491 37.1619 36.5414 37.4598 36.1712 38.0554C35.8089 38.643 35.6278 39.3111 35.6278 40.0597ZM20.8494 27.2131V25.9091C20.8494 25.0076 21.0346 24.1825 21.4048 23.4339C21.7831 22.6773 22.3305 22.0736 23.0469 21.6229C23.7713 21.1641 24.6487 20.9347 25.679 20.9347C26.7254 20.9347 27.6027 21.1641 28.3111 21.6229C29.0194 22.0736 29.5547 22.6773 29.9169 23.4339C30.2791 24.1825 30.4602 25.0076 30.4602 25.9091V27.2131C30.4602 28.1146 30.2751 28.9437 29.9048 29.7003C29.5426 30.4489 29.0033 31.0526 28.2869 31.5114C27.5786 31.9621 26.7093 32.1875 25.679 32.1875C24.6326 32.1875 23.7512 31.9621 23.0348 31.5114C22.3184 31.0526 21.7751 30.4489 21.4048 29.7003C21.0346 28.9437 20.8494 28.1146 20.8494 27.2131ZM23.3125 25.9091V27.2131C23.3125 27.9616 23.4896 28.6338 23.8438 29.2294C24.1979 29.817 24.8097 30.1108 25.679 30.1108C26.5241 30.1108 27.1198 29.817 27.4659 29.2294C27.8201 28.6338 27.9972 27.9616 27.9972 27.2131V25.9091C27.9972 25.1605 27.8281 24.4924 27.4901 23.9048C27.152 23.3092 26.5483 23.0114 25.679 23.0114C24.8338 23.0114 24.2261 23.3092 23.8558 23.9048C23.4936 24.4924 23.3125 25.1605 23.3125 25.9091ZM21.767 46L38.767 21.2727H41.5199L24.5199 46H21.767Z" fill="#242323"/>
<path d="M33.7202 37.5845L32.8257 37.1373L32.8238 37.1412L33.7202 37.5845ZM35.3622 35.7734L35.8948 36.6198L35.8973 36.6183L35.3622 35.7734ZM40.6264 35.7734L40.0828 36.6128L40.0895 36.6171L40.6264 35.7734ZM42.2322 37.5845L41.3303 38.0163L41.3321 38.0201L42.2322 37.5845ZM42.2202 43.8509L41.3219 43.4113L41.32 43.4153L42.2202 43.8509ZM40.6023 45.6619L41.1392 46.5056L41.1416 46.504L40.6023 45.6619ZM35.3501 45.6619L34.8108 46.5041L34.8176 46.5083L35.3501 45.6619ZM33.7202 43.8509L32.8219 44.2904L32.8238 44.2942L33.7202 43.8509ZM36.1591 43.38L35.2995 43.8911L35.3026 43.8962L36.1591 43.38ZM39.7812 43.38L38.9217 42.8689L38.9196 42.8724L39.7812 43.38ZM39.8054 38.0554L38.9357 38.549L38.9386 38.5541L39.8054 38.0554ZM36.1712 38.0554L35.3219 37.5275L35.3199 37.5306L36.1712 38.0554ZM21.4048 23.4339L20.5104 22.9867L20.5085 22.9906L21.4048 23.4339ZM23.0469 21.6229L23.5794 22.4693L23.5819 22.4677L23.0469 21.6229ZM28.3111 21.6229L27.7674 22.4622L27.7742 22.4665L28.3111 21.6229ZM29.9169 23.4339L29.0149 23.8657L29.0167 23.8695L29.9169 23.4339ZM29.9048 29.7003L29.0066 29.2607L29.0047 29.2647L29.9048 29.7003ZM28.2869 31.5114L28.8238 32.355L28.8263 32.3535L28.2869 31.5114ZM23.0348 31.5114L22.4955 32.3535L22.5022 32.3578L23.0348 31.5114ZM21.4048 29.7003L20.5066 30.1398L20.5085 30.1436L21.4048 29.7003ZM23.8438 29.2294L22.9842 29.7405L22.9873 29.7456L23.8438 29.2294ZM27.4659 29.2294L26.6064 28.7183L26.6043 28.7219L27.4659 29.2294ZM27.4901 23.9048L26.6204 24.3984L26.6233 24.4035L27.4901 23.9048ZM23.8558 23.9048L23.0065 23.3769L23.0046 23.3801L23.8558 23.9048ZM21.767 46L20.943 45.4335L19.866 47H21.767V46ZM38.767 21.2727V20.2727H38.241L37.943 20.7062L38.767 21.2727ZM41.5199 21.2727L42.3439 21.8393L43.4209 20.2727H41.5199V21.2727ZM24.5199 46V47H25.0459L25.3439 46.5665L24.5199 46ZM34.1648 41.3636V40.0597H32.1648V41.3636H34.1648ZM34.1648 40.0597C34.1648 39.2995 34.3198 38.6278 34.6165 38.0279L32.8238 37.1412C32.3801 38.0383 32.1648 39.0168 32.1648 40.0597H34.1648ZM34.6146 38.0317C34.911 37.4389 35.3332 36.9732 35.8948 36.6198L34.8297 34.927C33.9585 35.4752 33.2859 36.2169 32.8257 37.1373L34.6146 38.0317ZM35.8973 36.6183C36.4319 36.2796 37.1149 36.0852 37.9943 36.0852V34.0852C36.8131 34.0852 35.7413 34.3496 34.8272 34.9286L35.8973 36.6183ZM37.9943 36.0852C38.8941 36.0852 39.5713 36.2815 40.0828 36.6128L41.1701 34.9341C40.2649 34.3478 39.1873 34.0852 37.9943 34.0852V36.0852ZM40.0895 36.6171C40.6402 36.9675 41.0489 37.4286 41.3303 38.0163L43.1342 37.1527C42.6911 36.2272 42.0293 35.4809 41.1633 34.9298L40.0895 36.6171ZM41.3321 38.0201C41.6232 38.6217 41.7756 39.2961 41.7756 40.0597H43.7756C43.7756 39.0202 43.5657 38.0445 43.1324 37.149L41.3321 38.0201ZM41.7756 40.0597V41.3636H43.7756V40.0597H41.7756ZM41.7756 41.3636C41.7756 42.1237 41.6206 42.801 41.322 43.4113L43.1184 44.2904C43.5603 43.3874 43.7756 42.4066 43.7756 41.3636H41.7756ZM41.32 43.4153C41.0402 43.9937 40.6276 44.4582 40.063 44.8198L41.1416 46.504C42.0097 45.948 42.6758 45.2052 43.1203 44.2864L41.32 43.4153ZM40.0654 44.8183C39.5505 45.1459 38.8778 45.3381 37.9943 45.3381V47.3381C39.1715 47.3381 40.2374 47.0795 41.1391 46.5056L40.0654 44.8183ZM37.9943 45.3381C37.0919 45.3381 36.4057 45.1446 35.8827 44.8155L34.8176 46.5083C35.7274 47.0808 36.804 47.3381 37.9943 47.3381V45.3381ZM35.8895 44.8198C35.3231 44.4571 34.9046 43.99 34.6165 43.4075L32.8238 44.2942C33.2762 45.2088 33.9444 45.9491 34.8108 46.504L35.8895 44.8198ZM34.6184 43.4113C34.3197 42.801 34.1648 42.1237 34.1648 41.3636H32.1648C32.1648 42.4066 32.3801 43.3874 32.822 44.2904L34.6184 43.4113ZM34.6278 40.0597V41.3636H36.6278V40.0597H34.6278ZM34.6278 41.3636C34.6278 42.2772 34.8461 43.1284 35.2996 43.891L37.0186 42.8689C36.7637 42.4402 36.6278 41.9473 36.6278 41.3636H34.6278ZM35.3026 43.8962C35.8872 44.866 36.8821 45.2614 37.9943 45.2614V43.2614C37.3679 43.2614 37.1394 43.0692 37.0155 42.8638L35.3026 43.8962ZM37.9943 45.2614C39.095 45.2614 40.072 44.8566 40.6429 43.8875L38.9196 42.8724C38.7982 43.0785 38.584 43.2614 37.9943 43.2614V45.2614ZM40.6408 43.891C41.0942 43.1284 41.3125 42.2772 41.3125 41.3636H39.3125C39.3125 41.9473 39.1766 42.4402 38.9217 42.8689L40.6408 43.891ZM41.3125 41.3636V40.0597H39.3125V41.3636H41.3125ZM41.3125 40.0597C41.3125 39.1548 41.1064 38.3114 40.6722 37.5567L38.9386 38.5541C39.1805 38.9745 39.3125 39.4674 39.3125 40.0597H41.3125ZM40.6751 37.5618C40.11 36.5661 39.1109 36.1619 37.9943 36.1619V38.1619C38.6164 38.1619 38.8247 38.3534 38.9357 38.549L40.6751 37.5618ZM37.9943 36.1619C36.8859 36.1619 35.9143 36.5745 35.3219 37.5275L37.0205 38.5833C37.1686 38.345 37.4124 38.1619 37.9943 38.1619V36.1619ZM35.3199 37.5306C34.8523 38.2893 34.6278 39.142 34.6278 40.0597H36.6278C36.6278 39.4802 36.7656 38.9967 37.0224 38.5801L35.3199 37.5306ZM21.8494 27.2131V25.9091H19.8494V27.2131H21.8494ZM21.8494 25.9091C21.8494 25.1489 22.0044 24.4773 22.3012 23.8773L20.5085 22.9906C20.0647 23.8878 19.8494 24.8663 19.8494 25.9091H21.8494ZM22.2993 23.8812C22.5957 23.2883 23.0178 22.8226 23.5794 22.4693L22.5143 20.7765C21.6432 21.3246 20.9706 22.0664 20.5104 22.9867L22.2993 23.8812ZM23.5819 22.4677C24.1166 22.1291 24.7996 21.9347 25.679 21.9347V19.9347C24.4978 19.9347 23.426 20.1991 22.5118 20.7781L23.5819 22.4677ZM25.679 21.9347C26.5788 21.9347 27.256 22.1309 27.7674 22.4622L28.8547 20.7836C27.9495 20.1972 26.872 19.9347 25.679 19.9347V21.9347ZM27.7742 22.4665C28.3249 22.8169 28.7336 23.278 29.0149 23.8657L30.8189 23.0022C30.3758 22.0766 29.714 21.3303 28.848 20.7792L27.7742 22.4665ZM29.0167 23.8695C29.3079 24.4711 29.4602 25.1455 29.4602 25.9091H31.4602C31.4602 24.8696 31.2504 23.8939 30.8171 22.9984L29.0167 23.8695ZM29.4602 25.9091V27.2131H31.4602V25.9091H29.4602ZM29.4602 27.2131C29.4602 27.9732 29.3053 28.6504 29.0066 29.2607L30.803 30.1398C31.2449 29.2369 31.4602 28.256 31.4602 27.2131H29.4602ZM29.0047 29.2647C28.7248 29.8431 28.3122 30.3076 27.7476 30.6693L28.8263 32.3535C29.6944 31.7975 30.3604 31.0546 30.805 30.1358L29.0047 29.2647ZM27.7501 30.6677C27.2352 30.9953 26.5624 31.1875 25.679 31.1875V33.1875C26.8561 33.1875 27.922 32.9289 28.8238 32.355L27.7501 30.6677ZM25.679 31.1875C24.7765 31.1875 24.0904 30.994 23.5674 30.665L22.5022 32.3578C23.412 32.9302 24.4886 33.1875 25.679 33.1875V31.1875ZM23.5741 30.6693C23.0078 30.3065 22.5893 29.8395 22.3012 29.2569L20.5085 30.1436C20.9609 31.0583 21.6291 31.7986 22.4955 32.3535L23.5741 30.6693ZM22.303 29.2607C22.0044 28.6504 21.8494 27.9732 21.8494 27.2131H19.8494C19.8494 28.256 20.0647 29.2369 20.5066 30.1398L22.303 29.2607ZM22.3125 25.9091V27.2131H24.3125V25.9091H22.3125ZM22.3125 27.2131C22.3125 28.1266 22.5308 28.9779 22.9842 29.7405L24.7033 28.7183C24.4484 28.2897 24.3125 27.7967 24.3125 27.2131H22.3125ZM22.9873 29.7456C23.5718 30.7154 24.5668 31.1108 25.679 31.1108V29.1108C25.0525 29.1108 24.824 28.9186 24.7002 28.7132L22.9873 29.7456ZM25.679 31.1108C26.7797 31.1108 27.7567 30.7061 28.3275 29.7369L26.6043 28.7219C26.4829 28.9279 26.2686 29.1108 25.679 29.1108V31.1108ZM28.3254 29.7405C28.7789 28.9779 28.9972 28.1266 28.9972 27.2131H26.9972C26.9972 27.7967 26.8613 28.2897 26.6064 28.7183L28.3254 29.7405ZM28.9972 27.2131V25.9091H26.9972V27.2131H28.9972ZM28.9972 25.9091C28.9972 25.0042 28.7911 24.1609 28.3568 23.4061L26.6233 24.4035C26.8652 24.824 26.9972 25.3168 26.9972 25.9091H28.9972ZM28.3597 23.4112C27.7946 22.4156 26.7955 22.0114 25.679 22.0114V24.0114C26.301 24.0114 26.5093 24.2028 26.6204 24.3984L28.3597 23.4112ZM25.679 22.0114C24.5706 22.0114 23.5989 22.4239 23.0065 23.3769L24.7051 24.4328C24.8532 24.1945 25.0971 24.0114 25.679 24.0114V22.0114ZM23.0046 23.3801C22.5369 24.1387 22.3125 24.9914 22.3125 25.9091H24.3125C24.3125 25.3296 24.4503 24.8461 24.7071 24.4296L23.0046 23.3801ZM22.5911 46.5665L39.5911 21.8393L37.943 20.7062L20.943 45.4335L22.5911 46.5665ZM38.767 22.2727H41.5199V20.2727H38.767V22.2727ZM40.6958 20.7062L23.6958 45.4335L25.3439 46.5665L42.3439 21.8393L40.6958 20.7062ZM24.5199 45H21.767V47H24.5199V45Z" fill="#242323"/>
</svg>
