<svg width="62" height="62" viewBox="0 0 62 62" fill="none" xmlns="http://www.w3.org/2000/svg">
<rect width="62" height="62" rx="15" fill="#343434"/>
<path d="M32.7699 45.3381C31.7557 45.322 30.7415 45.1288 29.7273 44.7585C28.7131 44.3883 27.7874 43.7644 26.9503 42.8871C26.1132 42.0017 25.4411 40.8063 24.9339 39.3011C24.4268 37.7879 24.1733 35.8883 24.1733 33.6023C24.1733 31.4129 24.3786 29.473 24.7891 27.7827C25.1996 26.0843 25.7952 24.6555 26.576 23.4964C27.3568 22.3293 28.2985 21.4439 29.4013 20.8402C30.5121 20.2365 31.7637 19.9347 33.1562 19.9347C34.5407 19.9347 35.7723 20.2124 36.8509 20.7678C37.9375 21.3151 38.8229 22.0798 39.5071 23.0618C40.1913 24.0438 40.634 25.1747 40.8352 26.4545H37.8892C37.6155 25.3437 37.0843 24.4221 36.2955 23.6896C35.5066 22.9571 34.4602 22.5909 33.1562 22.5909C31.2405 22.5909 29.7313 23.424 28.6286 25.0902C27.5339 26.7564 26.9825 29.0947 26.9744 32.1051H27.1676C27.6184 31.4209 28.1536 30.8374 28.7734 30.3544C29.4013 29.8634 30.0935 29.4851 30.8501 29.2195C31.6068 28.9538 32.4077 28.821 33.2528 28.821C34.6695 28.821 35.9654 29.1752 37.1406 29.8835C38.3158 30.5838 39.2576 31.5537 39.9659 32.7933C40.6742 34.0249 41.0284 35.4375 41.0284 37.0312C41.0284 38.5606 40.6863 39.9612 40.0021 41.233C39.3179 42.4967 38.3561 43.5028 37.1165 44.2514C35.8849 44.992 34.4361 45.3542 32.7699 45.3381ZM32.7699 42.6818C33.7841 42.6818 34.6937 42.4283 35.4986 41.9212C36.3116 41.4141 36.9515 40.7339 37.4183 39.8807C37.8932 39.0275 38.1307 38.0777 38.1307 37.0312C38.1307 36.009 37.9013 35.0793 37.4425 34.2422C36.9917 33.397 36.3679 32.7249 35.571 32.2259C34.7822 31.7268 33.8807 31.4773 32.8665 31.4773C32.1018 31.4773 31.3894 31.6302 30.7294 31.9361C30.0694 32.2339 29.4898 32.6444 28.9908 33.1676C28.4998 33.6908 28.1134 34.2905 27.8317 34.9666C27.55 35.6347 27.4091 36.339 27.4091 37.0795C27.4091 38.0616 27.6385 38.9792 28.0973 39.8324C28.5642 40.6856 29.2 41.3738 30.005 41.897C30.8179 42.4202 31.7396 42.6818 32.7699 42.6818Z" fill="#E3E3E3"/>
<path d="M32.7699 45.3381L32.754 46.338L32.7602 46.338L32.7699 45.3381ZM29.7273 44.7585L29.3843 45.6979L29.3843 45.6979L29.7273 44.7585ZM26.9503 42.8871L26.2236 43.5741L26.2268 43.5774L26.9503 42.8871ZM24.9339 39.3011L23.9858 39.6189L23.9863 39.6204L24.9339 39.3011ZM24.7891 27.7827L25.7608 28.0187L25.7611 28.0176L24.7891 27.7827ZM26.576 23.4964L27.4054 24.0551L27.4072 24.0525L26.576 23.4964ZM29.4013 20.8402L28.9238 19.9616L28.9211 19.963L29.4013 20.8402ZM36.8509 20.7678L36.393 21.6568L36.401 21.6609L36.8509 20.7678ZM39.5071 23.0618L40.3276 22.4901L40.3276 22.4901L39.5071 23.0618ZM40.8352 26.4545V27.4545H42.0047L41.8231 26.2992L40.8352 26.4545ZM37.8892 26.4545L36.9182 26.6938L37.1057 27.4545H37.8892V26.4545ZM36.2955 23.6896L35.615 24.4224L35.615 24.4224L36.2955 23.6896ZM28.6286 25.0902L27.7946 24.5383L27.7928 24.5411L28.6286 25.0902ZM26.9744 32.1051L25.9744 32.1024L25.9718 33.1051H26.9744V32.1051ZM27.1676 32.1051V33.1051H27.7063L28.0027 32.6553L27.1676 32.1051ZM28.7734 30.3544L29.3881 31.1432L29.3895 31.1421L28.7734 30.3544ZM30.8501 29.2195L30.5189 28.2759L30.8501 29.2195ZM37.1406 29.8835L36.6244 30.74L36.6287 30.7426L37.1406 29.8835ZM39.9659 32.7933L39.0977 33.2895L39.0991 33.2919L39.9659 32.7933ZM40.0021 41.233L40.8815 41.7091L40.8828 41.7067L40.0021 41.233ZM37.1165 44.2514L37.6318 45.1084L37.6334 45.1074L37.1165 44.2514ZM35.4986 41.9212L34.9693 41.0727L34.9655 41.0751L35.4986 41.9212ZM37.4183 39.8807L36.5445 39.3943L36.5411 39.4007L37.4183 39.8807ZM37.4425 34.2422L36.5601 34.7128L36.5655 34.7228L37.4425 34.2422ZM35.571 32.2259L35.0364 33.0709L35.0403 33.0734L35.571 32.2259ZM30.7294 31.9361L31.1407 32.8476L31.1499 32.8434L30.7294 31.9361ZM28.9908 33.1676L28.2671 32.4774L28.2616 32.4833L28.9908 33.1676ZM27.8317 34.9666L28.7531 35.3552L28.7548 35.3512L27.8317 34.9666ZM28.0973 39.8324L27.2165 40.306L27.22 40.3124L28.0973 39.8324ZM30.005 41.897L29.46 42.7355L29.4638 42.7379L30.005 41.897ZM32.7858 44.3382C31.8902 44.324 30.9863 44.1536 30.0702 43.8192L29.3843 45.6979C30.4966 46.104 31.6212 46.32 32.754 46.3379L32.7858 44.3382ZM30.0702 43.8192C29.2172 43.5078 28.418 42.9768 27.6738 42.1968L26.2268 43.5774C27.1568 44.5521 28.2089 45.2688 29.3843 45.6979L30.0702 43.8192ZM27.6769 42.2001C26.9646 41.4466 26.356 40.3898 25.8816 38.9819L23.9863 39.6204C24.5261 41.2229 25.2618 42.5567 26.2236 43.5741L27.6769 42.2001ZM25.8821 38.9834C25.4207 37.6064 25.1733 35.8229 25.1733 33.6023H23.1733C23.1733 35.9536 23.433 37.9694 23.9858 39.6189L25.8821 38.9834ZM25.1733 33.6023C25.1733 31.4729 25.3732 29.6149 25.7608 28.0187L23.8173 27.5467C23.3839 29.3311 23.1733 31.3528 23.1733 33.6023H25.1733ZM25.7611 28.0176C26.1504 26.407 26.7053 25.0944 27.4054 24.0551L25.7466 22.9378C24.8851 24.2166 24.2488 25.7616 23.8171 27.5477L25.7611 28.0176ZM27.4072 24.0525C28.1091 23.0032 28.9357 22.2351 29.8815 21.7174L28.9211 19.963C27.6614 20.6527 26.6044 21.6554 25.7448 22.9404L27.4072 24.0525ZM29.8788 21.7188C30.8286 21.2026 31.9132 20.9347 33.1562 20.9347V18.9347C31.6142 18.9347 30.1956 19.2704 28.9238 19.9616L29.8788 21.7188ZM33.1562 20.9347C34.4041 20.9347 35.4749 21.184 36.3931 21.6568L37.3087 19.8787C36.0696 19.2407 34.6773 18.9347 33.1562 18.9347V20.9347ZM36.401 21.6609C37.3419 22.1348 38.099 22.79 38.6866 23.6334L40.3276 22.4901C39.5468 21.3695 38.5331 20.4954 37.3007 19.8747L36.401 21.6609ZM38.6866 23.6334C39.2772 24.4811 39.6677 25.4671 39.8474 26.6099L41.8231 26.2992C41.6003 24.8823 41.1054 23.6065 40.3276 22.4901L38.6866 23.6334ZM40.8352 25.4545H37.8892V27.4545H40.8352V25.4545ZM38.8602 26.2153C38.5429 24.9277 37.9167 23.8305 36.9759 22.9568L35.615 24.4224C36.2518 25.0137 36.6881 25.7598 36.9182 26.6938L38.8602 26.2153ZM36.9759 22.9568C35.9646 22.0178 34.6563 21.5909 33.1562 21.5909V23.5909C34.2641 23.5909 35.0486 23.8965 35.615 24.4224L36.9759 22.9568ZM33.1562 21.5909C30.8881 21.5909 29.073 22.6067 27.7946 24.5383L29.4625 25.6421C30.3896 24.2413 31.593 23.5909 33.1562 23.5909V21.5909ZM27.7928 24.5411C26.55 26.4327 25.9828 28.9903 25.9744 32.1024L27.9744 32.1078C27.9822 29.1991 28.5177 27.0801 29.4643 25.6393L27.7928 24.5411ZM26.9744 33.1051H27.1676V31.1051H26.9744V33.1051ZM28.0027 32.6553C28.396 32.0582 28.8579 31.5563 29.3881 31.1432L28.1588 29.5656C27.4494 30.1184 26.8407 30.7837 26.3326 31.555L28.0027 32.6553ZM29.3895 31.1421C29.931 30.7186 30.5269 30.3928 31.1814 30.163L30.5189 28.2759C29.6601 28.5774 28.8716 29.0082 28.1574 29.5667L29.3895 31.1421ZM31.1814 30.163C31.8259 29.9367 32.5143 29.821 33.2528 29.821V27.821C32.301 27.821 31.3876 27.9709 30.5189 28.2759L31.1814 30.163ZM33.2528 29.821C34.4938 29.821 35.6102 30.1287 36.6244 30.74L37.6568 29.0271C36.3206 28.2217 34.8452 27.821 33.2528 27.821V29.821ZM36.6287 30.7426C37.6493 31.3507 38.471 32.1927 39.0977 33.2895L40.8342 32.2972C40.0442 30.9147 38.9824 29.8169 37.6525 29.0245L36.6287 30.7426ZM39.0991 33.2919C39.7099 34.3539 40.0284 35.5907 40.0284 37.0312H42.0284C42.0284 35.2843 41.6386 33.6958 40.8328 32.2947L39.0991 33.2919ZM40.0284 37.0312C40.0284 38.4053 39.7227 39.6416 39.1215 40.7592L40.8828 41.7067C41.6499 40.2807 42.0284 38.7159 42.0284 37.0312H40.0284ZM39.1227 40.7569C38.5241 41.8627 37.6878 42.7382 36.5995 43.3954L37.6334 45.1074C39.0243 44.2675 40.1118 43.1307 40.8815 41.7091L39.1227 40.7569ZM36.6012 43.3944C35.5519 44.0253 34.2909 44.3527 32.7795 44.3381L32.7602 46.338C34.5813 46.3556 36.218 45.9586 37.6318 45.1084L36.6012 43.3944ZM32.7699 43.6818C33.9597 43.6818 35.0564 43.3816 36.0316 42.7673L34.9655 41.0751C34.3309 41.4749 33.6085 41.6818 32.7699 41.6818V43.6818ZM36.0278 42.7696C36.9888 42.1702 37.7476 41.3622 38.2956 40.3607L36.5411 39.4007C36.1553 40.1056 35.6343 40.6579 34.9693 41.0727L36.0278 42.7696ZM38.2921 40.367C38.8557 39.3545 39.1307 38.2353 39.1307 37.0312H37.1307C37.1307 37.92 36.9308 38.7005 36.5446 39.3943L38.2921 40.367ZM39.1307 37.0312C39.1307 35.8533 38.8646 34.7564 38.3194 33.7616L36.5655 34.7228C36.9379 35.4022 37.1307 36.1647 37.1307 37.0312H39.1307ZM38.3248 33.7716C37.7934 32.7752 37.0497 31.972 36.1018 31.3783L35.0403 33.0734C35.6861 33.4779 36.19 34.0188 36.5601 34.7128L38.3248 33.7716ZM36.1057 31.3808C35.1431 30.7718 34.0529 30.4773 32.8665 30.4773V32.4773C33.7084 32.4773 34.4213 32.6818 35.0364 33.0709L36.1057 31.3808ZM32.8665 30.4773C31.9642 30.4773 31.1075 30.6587 30.3089 31.0288L31.1499 32.8434C31.6714 32.6017 32.2394 32.4773 32.8665 32.4773V30.4773ZM30.3181 31.0246C29.5409 31.3753 28.8552 31.8609 28.2672 32.4774L29.7144 33.8578C30.1244 33.428 30.5979 33.0925 31.1407 32.8476L30.3181 31.0246ZM28.2616 32.4833C27.6868 33.0958 27.2355 33.7975 26.9086 34.582L28.7548 35.3512C28.9913 34.7835 29.3128 34.2858 29.72 33.8519L28.2616 32.4833ZM26.9103 34.5781C26.5755 35.3718 26.4091 36.2085 26.4091 37.0795H28.4091C28.4091 36.4696 28.5244 35.8976 28.7531 35.3552L26.9103 34.5781ZM26.4091 37.0795C26.4091 38.2245 26.6784 39.3051 27.2166 40.306L28.978 39.3588C28.5986 38.6532 28.4091 37.8986 28.4091 37.0795H26.4091ZM27.22 40.3124C27.7652 41.3088 28.5145 42.1209 29.46 42.7355L30.55 41.0586C29.8856 40.6268 29.3631 40.0625 28.9746 39.3524L27.22 40.3124ZM29.4638 42.7379C30.4489 43.3719 31.5609 43.6818 32.7699 43.6818V41.6818C31.9183 41.6818 31.187 41.4685 30.5462 41.0561L29.4638 42.7379Z" fill="#E3E3E3"/>
</svg>
