<svg width="61" height="62" viewBox="0 0 61 62" fill="none" xmlns="http://www.w3.org/2000/svg">
<rect width="61" height="62" rx="15" fill="#343434"/>
<path d="M24.3324 45L35.392 23.1222V22.929H22.642V20.2727H38.483V23.0739L27.4716 45H24.3324Z" fill="#E3E3E3"/>
<path d="M24.3324 45L23.4399 44.5489L22.7064 46H24.3324V45ZM35.392 23.1222L36.2845 23.5733L36.392 23.3606V23.1222H35.392ZM35.392 22.929H36.392V21.929H35.392V22.929ZM22.642 22.929H21.642V23.929H22.642V22.929ZM22.642 20.2727V19.2727H21.642V20.2727H22.642ZM38.483 20.2727H39.483V19.2727H38.483V20.2727ZM38.483 23.0739L39.3766 23.5227L39.483 23.3109V23.0739H38.483ZM27.4716 45V46H28.0884L28.3652 45.4488L27.4716 45ZM25.2248 45.4511L36.2845 23.5733L34.4996 22.671L23.4399 44.5489L25.2248 45.4511ZM36.392 23.1222V22.929H34.392V23.1222H36.392ZM35.392 21.929H22.642V23.929H35.392V21.929ZM23.642 22.929V20.2727H21.642V22.929H23.642ZM22.642 21.2727H38.483V19.2727H22.642V21.2727ZM37.483 20.2727V23.0739H39.483V20.2727H37.483ZM37.5893 22.6251L26.578 44.5512L28.3652 45.4488L39.3766 23.5227L37.5893 22.6251ZM27.4716 44H24.3324V46H27.4716V44Z" fill="#E3E3E3"/>
</svg>
