<svg width="62" height="62" viewBox="0 0 62 62" fill="none" xmlns="http://www.w3.org/2000/svg">
<rect width="62" height="62" rx="15" fill="#343434"/>
<path d="M32.9148 44.3381C31.321 44.3381 29.9003 44.0644 28.6527 43.517C27.4131 42.9697 26.4271 42.209 25.6946 41.2351C24.9702 40.2531 24.5758 39.1141 24.5114 37.8182H27.554C27.6184 38.6151 27.892 39.3033 28.375 39.8828C28.858 40.4543 29.4898 40.897 30.2706 41.2109C31.0514 41.5249 31.9167 41.6818 32.8665 41.6818C33.929 41.6818 34.8707 41.4967 35.6918 41.1264C36.5128 40.7562 37.1567 40.241 37.6236 39.581C38.0904 38.9209 38.3239 38.1562 38.3239 37.2869C38.3239 36.3774 38.0985 35.5765 37.6477 34.8842C37.197 34.1839 36.5369 33.6366 35.6676 33.2422C34.7983 32.8478 33.7358 32.6506 32.4801 32.6506H30.5V29.9943H32.4801C33.4621 29.9943 34.3234 29.8172 35.0639 29.4631C35.8125 29.1089 36.3961 28.6098 36.8146 27.9659C37.2412 27.322 37.4545 26.5653 37.4545 25.696C37.4545 24.8589 37.2694 24.1304 36.8991 23.5107C36.5289 22.8909 36.0057 22.4079 35.3295 22.0618C34.6615 21.7157 33.8726 21.5426 32.9631 21.5426C32.1098 21.5426 31.3049 21.6996 30.5483 22.0135C29.7997 22.3194 29.188 22.7661 28.7131 23.3537C28.2382 23.9332 27.9806 24.6335 27.9403 25.4545H25.0426C25.0909 24.1586 25.4813 23.0237 26.2138 22.0497C26.9463 21.0677 27.9041 20.303 29.0874 19.7557C30.2786 19.2083 31.5866 18.9347 33.0114 18.9347C34.5407 18.9347 35.8527 19.2446 36.9474 19.8643C38.0421 20.4761 38.8833 21.285 39.4709 22.2912C40.0585 23.2973 40.3523 24.384 40.3523 25.5511C40.3523 26.9437 39.986 28.1309 39.2536 29.1129C38.5291 30.0949 37.5431 30.7751 36.2955 31.1534V31.3466C37.857 31.6042 39.0765 32.2682 39.9538 33.3388C40.8312 34.4013 41.2699 35.7173 41.2699 37.2869C41.2699 38.6312 40.9036 39.8385 40.1712 40.9091C39.4467 41.9716 38.4567 42.8087 37.201 43.4205C35.9453 44.0322 34.5166 44.3381 32.9148 44.3381Z" fill="#E3E3E3"/>
<path d="M28.6527 43.517L28.2488 44.4318L28.251 44.4328L28.6527 43.517ZM25.6946 41.2351L24.8898 41.8288L24.8954 41.8361L25.6946 41.2351ZM24.5114 37.8182V36.8182H23.4604L23.5126 37.8678L24.5114 37.8182ZM27.554 37.8182L28.5507 37.7376L28.4764 36.8182H27.554V37.8182ZM28.375 39.8828L27.6068 40.523L27.6112 40.5283L28.375 39.8828ZM30.2706 41.2109L29.8976 42.1388L29.8976 42.1388L30.2706 41.2109ZM37.6236 39.581L36.8072 39.0035L36.8072 39.0035L37.6236 39.581ZM37.6477 34.8842L36.8069 35.4255L36.8097 35.4299L37.6477 34.8842ZM35.6676 33.2422L35.2544 34.1528L35.2544 34.1528L35.6676 33.2422ZM30.5 32.6506H29.5V33.6506H30.5V32.6506ZM30.5 29.9943V28.9943H29.5V29.9943H30.5ZM35.0639 29.4631L34.6362 28.5591L34.6325 28.5609L35.0639 29.4631ZM36.8146 27.9659L35.9809 27.4136L35.9762 27.4209L36.8146 27.9659ZM36.8991 23.5107L37.7576 22.9978L37.7576 22.9978L36.8991 23.5107ZM35.3295 22.0618L34.8695 22.9497L34.8739 22.9519L35.3295 22.0618ZM30.5483 22.0135L30.9265 22.9392L30.9315 22.9372L30.5483 22.0135ZM28.7131 23.3537L29.4866 23.9875L29.4908 23.9823L28.7131 23.3537ZM27.9403 25.4545V26.4545H28.8925L28.9391 25.5035L27.9403 25.4545ZM25.0426 25.4545L24.0433 25.4173L24.0047 26.4545H25.0426V25.4545ZM26.2138 22.0497L27.013 22.6508L27.0154 22.6476L26.2138 22.0497ZM29.0874 19.7557L28.6699 18.847L28.6675 18.8481L29.0874 19.7557ZM36.9474 19.8643L36.4547 20.7346L36.4596 20.7373L36.9474 19.8643ZM39.4709 22.2912L38.6074 22.7955L38.6074 22.7955L39.4709 22.2912ZM39.2536 29.1129L38.452 28.515L38.4488 28.5193L39.2536 29.1129ZM36.2955 31.1534L36.0053 30.1964L35.2955 30.4117V31.1534H36.2955ZM36.2955 31.3466H35.2955V32.1952L36.1327 32.3333L36.2955 31.3466ZM39.9538 33.3388L39.1804 33.9727L39.1827 33.9755L39.9538 33.3388ZM40.1712 40.9091L39.3459 40.3444L39.3449 40.3458L40.1712 40.9091ZM37.201 43.4205L37.639 44.3194L37.639 44.3194L37.201 43.4205ZM32.9148 43.3381C31.4361 43.3381 30.1558 43.0845 29.0544 42.6013L28.251 44.4328C29.6449 45.0443 31.206 45.3381 32.9148 45.3381V43.3381ZM29.0566 42.6023C27.9556 42.1161 27.1124 41.4565 26.4938 40.634L24.8954 41.8361C25.7418 42.9616 26.8706 43.8233 28.2488 44.4318L29.0566 42.6023ZM26.4993 40.6414C25.8992 39.8279 25.5654 38.8811 25.5101 37.7686L23.5126 37.8678C23.5861 39.3472 24.0411 40.6782 24.8899 41.8287L26.4993 40.6414ZM24.5114 38.8182H27.554V36.8182H24.5114V38.8182ZM26.5572 37.8987C26.6372 38.8882 26.9836 39.7752 27.6068 40.523L29.1432 39.2426C28.8005 38.8313 28.5996 38.3419 28.5507 37.7376L26.5572 37.8987ZM27.6112 40.5283C28.212 41.2392 28.9846 41.7717 29.8976 42.1388L30.6436 40.2831C29.9951 40.0224 29.5039 39.6694 29.1388 39.2374L27.6112 40.5283ZM29.8976 42.1388C30.8112 42.5061 31.8052 42.6818 32.8665 42.6818V40.6818C32.0281 40.6818 31.2915 40.5436 30.6436 40.2831L29.8976 42.1388ZM32.8665 42.6818C34.0456 42.6818 35.1315 42.4761 36.1029 42.038L35.2807 40.2148C34.61 40.5173 33.8124 40.6818 32.8665 40.6818V42.6818ZM36.1029 42.038C37.0674 41.603 37.8588 40.9801 38.44 40.1584L36.8072 39.0035C36.4546 39.5019 35.9582 39.9093 35.2807 40.2148L36.1029 42.038ZM38.44 40.1584C39.0354 39.3166 39.3239 38.3467 39.3239 37.2869H37.3239C37.3239 37.9658 37.1454 38.5253 36.8072 39.0035L38.44 40.1584ZM39.3239 37.2869C39.3239 36.204 39.0528 35.2094 38.4857 34.3386L36.8097 35.4299C37.1442 35.9435 37.3239 36.5508 37.3239 37.2869H39.3239ZM38.4886 34.343C37.9192 33.4583 37.099 32.7935 36.0808 32.3315L35.2544 34.1528C35.9749 34.4797 36.4748 34.9095 36.8069 35.4255L38.4886 34.343ZM36.0808 32.3315C35.0476 31.8628 33.8354 31.6506 32.4801 31.6506V33.6506C33.6362 33.6506 34.549 33.8328 35.2544 34.1528L36.0808 32.3315ZM32.4801 31.6506H30.5V33.6506H32.4801V31.6506ZM31.5 32.6506V29.9943H29.5V32.6506H31.5ZM30.5 30.9943H32.4801V28.9943H30.5V30.9943ZM32.4801 30.9943C33.5825 30.9943 34.5963 30.7952 35.4954 30.3652L34.6325 28.5609C34.0505 28.8393 33.3418 28.9943 32.4801 28.9943V30.9943ZM35.4916 30.367C36.3941 29.94 37.1256 29.3224 37.6531 28.5109L35.9762 27.4209C35.6666 27.8973 35.2309 28.2778 34.6363 28.5591L35.4916 30.367ZM37.6483 28.5182C38.1966 27.6905 38.4545 26.7363 38.4545 25.696H36.4545C36.4545 26.3944 36.2858 26.9535 35.981 27.4136L37.6483 28.5182ZM38.4545 25.696C38.4545 24.7075 38.2344 23.7959 37.7576 22.9978L36.0407 24.0235C36.3044 24.465 36.4545 25.0103 36.4545 25.696H38.4545ZM37.7576 22.9978C37.286 22.2084 36.6192 21.5986 35.7852 21.1716L34.8739 22.9519C35.3921 23.2172 35.7717 23.5733 36.0407 24.0235L37.7576 22.9978ZM35.7896 21.1739C34.9526 20.7403 33.9996 20.5426 32.9631 20.5426V22.5426C33.7456 22.5426 34.3703 22.6911 34.8695 22.9497L35.7896 21.1739ZM32.9631 20.5426C31.9839 20.5426 31.0482 20.7234 30.1651 21.0898L30.9315 22.9372C31.5616 22.6757 32.2358 22.5426 32.9631 22.5426V20.5426ZM30.1701 21.0878C29.2767 21.4528 28.5236 21.9972 27.9353 22.7251L29.4908 23.9823C29.8523 23.535 30.3227 23.1859 30.9265 22.9392L30.1701 21.0878ZM27.9396 22.7199C27.3156 23.4814 26.9912 24.3924 26.9415 25.4056L28.9391 25.5035C28.97 24.8746 29.1608 24.3851 29.4865 23.9875L27.9396 22.7199ZM27.9403 24.4545H25.0426V26.4545H27.9403V24.4545ZM26.0419 25.4918C26.0831 24.386 26.4112 23.4509 27.013 22.6508L25.4146 21.4487C24.5514 22.5964 24.0987 23.9312 24.0433 25.4173L26.0419 25.4918ZM27.0154 22.6476C27.642 21.8075 28.465 21.1454 29.5072 20.6633L28.6675 18.8481C27.3432 19.4607 26.2506 20.3279 25.4122 21.4518L27.0154 22.6476ZM29.5049 20.6644C30.5541 20.1823 31.7181 19.9347 33.0114 19.9347V17.9347C31.4552 17.9347 30.0031 18.2344 28.6699 18.847L29.5049 20.6644ZM33.0114 19.9347C34.4051 19.9347 35.5396 20.2164 36.4548 20.7346L37.4401 18.9941C36.1659 18.2727 34.6763 17.9347 33.0114 17.9347V19.9347ZM36.4596 20.7373C37.4107 21.2688 38.1167 21.9553 38.6074 22.7955L40.3344 21.7869C39.6499 20.6148 38.6736 19.6834 37.4353 18.9914L36.4596 20.7373ZM38.6074 22.7955C39.1054 23.6483 39.3523 24.5609 39.3523 25.5511H41.3523C41.3523 24.2071 41.0115 22.9464 40.3344 21.7869L38.6074 22.7955ZM39.3523 25.5511C39.3523 26.7589 39.0384 27.7289 38.452 28.515L40.0551 29.7108C40.9337 28.533 41.3523 27.1284 41.3523 25.5511H39.3523ZM38.4488 28.5193C37.8613 29.3157 37.0617 29.8761 36.0053 30.1964L36.5856 32.1104C38.0245 31.6741 39.197 30.8741 40.0583 29.7066L38.4488 28.5193ZM35.2955 31.1534V31.3466H37.2955V31.1534H35.2955ZM36.1327 32.3333C37.4912 32.5573 38.479 33.1168 39.1804 33.9726L40.7273 32.7049C39.6739 31.4196 38.2228 30.651 36.4582 30.3599L36.1327 32.3333ZM39.1827 33.9755C39.8917 34.8341 40.2699 35.9155 40.2699 37.2869H42.2699C42.2699 35.5191 41.7707 33.9684 40.7249 32.702L39.1827 33.9755ZM40.2699 37.2869C40.2699 38.4374 39.9602 39.4465 39.3459 40.3444L40.9965 41.4738C41.8471 40.2306 42.2699 38.8249 42.2699 37.2869H40.2699ZM39.3449 40.3458C38.7269 41.2523 37.8762 41.9792 36.763 42.5215L37.639 44.3194C39.0372 43.6383 40.1666 42.6909 40.9974 41.4724L39.3449 40.3458ZM36.763 42.5215C35.6625 43.0576 34.3871 43.3381 32.9148 43.3381V45.3381C34.646 45.3381 36.2281 45.0068 37.639 44.3194L36.763 42.5215Z" fill="#E3E3E3"/>
</svg>
