<svg width="61" height="62" viewBox="0 0 61 62" fill="none" xmlns="http://www.w3.org/2000/svg">
<path d="M0 15C0 6.71573 6.71573 0 15 0H46C54.2843 0 61 6.71573 61 15V47C61 55.2843 54.2843 62 46 62H15C6.71573 62 0 55.2843 0 47V15Z" fill="#343434"/>
<path d="M31.2528 19.2727V44H28.2585V22.4119H28.1136L22.0767 26.4205V23.3778L28.2585 19.2727H31.2528Z" fill="#E3E3E3"/>
<path d="M31.2528 19.2727H32.2528V18.2727H31.2528V19.2727ZM31.2528 44V45H32.2528V44H31.2528ZM28.2585 44H27.2585V45H28.2585V44ZM28.2585 22.4119H29.2585V21.4119H28.2585V22.4119ZM28.1136 22.4119V21.4119H27.8119L27.5605 21.5789L28.1136 22.4119ZM22.0767 26.4205H21.0767V28.2848L22.6299 27.2535L22.0767 26.4205ZM22.0767 23.3778L21.5235 22.5448L21.0767 22.8415V23.3778H22.0767ZM28.2585 19.2727V18.2727H27.9567L27.7053 18.4397L28.2585 19.2727ZM30.2528 19.2727V44H32.2528V19.2727H30.2528ZM31.2528 43H28.2585V45H31.2528V43ZM29.2585 44V22.4119H27.2585V44H29.2585ZM28.2585 21.4119H28.1136V23.4119H28.2585V21.4119ZM27.5605 21.5789L21.5235 25.5874L22.6299 27.2535L28.6668 23.245L27.5605 21.5789ZM23.0767 26.4205V23.3778H21.0767V26.4205H23.0767ZM22.6299 24.2109L28.8117 20.1058L27.7053 18.4397L21.5235 22.5448L22.6299 24.2109ZM28.2585 20.2727H31.2528V18.2727H28.2585V20.2727Z" fill="#E3E3E3"/>
</svg>
