<svg width="100" height="40" viewBox="0 0 100 40" fill="none" xmlns="http://www.w3.org/2000/svg">
<rect width="100" height="40" rx="20" fill="#2E7642" fill-opacity="0.89"/>
<path d="M40.9517 28H36.4773L41.5185 12.7273H47.1861L52.2273 28H47.7528L44.4119 16.9332H44.2926L40.9517 28ZM40.1165 21.9744H48.5284V25.0767H40.1165V21.9744ZM57.0019 28.1491C56.1865 28.1491 55.4358 27.9354 54.7497 27.5078C54.0686 27.0803 53.5218 26.4315 53.1091 25.5614C52.7014 24.6914 52.4976 23.5952 52.4976 22.2727C52.4976 20.8906 52.7114 19.767 53.1389 18.902C53.5715 18.0369 54.1283 17.4031 54.8094 17.0004C55.4955 16.5977 56.2164 16.3963 56.972 16.3963C57.5388 16.3963 58.036 16.4957 58.4635 16.6946C58.8911 16.8885 59.249 17.1495 59.5374 17.4776C59.8257 17.8008 60.0445 18.1562 60.1936 18.544H60.2533V12.7273H64.3698V28H60.2831V26.1207H60.1936C60.0345 26.5085 59.8058 26.8565 59.5075 27.1648C59.2142 27.468 58.8563 27.7092 58.4337 27.8881C58.0161 28.0621 57.5388 28.1491 57.0019 28.1491ZM58.5232 24.9872C58.901 24.9872 59.2242 24.8778 59.4926 24.6591C59.7661 24.4354 59.9749 24.1222 60.1191 23.7195C60.2682 23.3118 60.3428 22.8295 60.3428 22.2727C60.3428 21.706 60.2682 21.2212 60.1191 20.8185C59.9749 20.4109 59.7661 20.1001 59.4926 19.8864C59.2242 19.6676 58.901 19.5582 58.5232 19.5582C58.1453 19.5582 57.8222 19.6676 57.5537 19.8864C57.2902 20.1001 57.0864 20.4109 56.9422 20.8185C56.803 21.2212 56.7334 21.706 56.7334 22.2727C56.7334 22.8395 56.803 23.3267 56.9422 23.7344C57.0864 24.1371 57.2902 24.4478 57.5537 24.6665C57.8222 24.8803 58.1453 24.9872 58.5232 24.9872ZM70.537 28.1491C69.7217 28.1491 68.971 27.9354 68.2849 27.5078C67.6038 27.0803 67.0569 26.4315 66.6443 25.5614C66.2366 24.6914 66.0328 23.5952 66.0328 22.2727C66.0328 20.8906 66.2465 19.767 66.6741 18.902C67.1066 18.0369 67.6634 17.4031 68.3445 17.0004C69.0306 16.5977 69.7515 16.3963 70.5072 16.3963C71.074 16.3963 71.5711 16.4957 71.9987 16.6946C72.4262 16.8885 72.7842 17.1495 73.0725 17.4776C73.3609 17.8008 73.5796 18.1562 73.7288 18.544H73.7884V12.7273H77.9049V28H73.8183V26.1207H73.7288C73.5697 26.5085 73.341 26.8565 73.0427 27.1648C72.7494 27.468 72.3914 27.7092 71.9688 27.8881C71.5512 28.0621 71.074 28.1491 70.537 28.1491ZM72.0583 24.9872C72.4362 24.9872 72.7593 24.8778 73.0278 24.6591C73.3012 24.4354 73.51 24.1222 73.6542 23.7195C73.8034 23.3118 73.8779 22.8295 73.8779 22.2727C73.8779 21.706 73.8034 21.2212 73.6542 20.8185C73.51 20.4109 73.3012 20.1001 73.0278 19.8864C72.7593 19.6676 72.4362 19.5582 72.0583 19.5582C71.6805 19.5582 71.3573 19.6676 71.0889 19.8864C70.8254 20.1001 70.6215 20.4109 70.4774 20.8185C70.3382 21.2212 70.2686 21.706 70.2686 22.2727C70.2686 22.8395 70.3382 23.3267 70.4774 23.7344C70.6215 24.1371 70.8254 24.4478 71.0889 24.6665C71.3573 24.8803 71.6805 24.9872 72.0583 24.9872Z" fill="#EDEDED"/>
<rect x="8" y="8" width="23.33" height="23.59" rx="11.665" fill="white"/>
</svg>
