<svg width="100" height="40" viewBox="0 0 100 40" fill="none" xmlns="http://www.w3.org/2000/svg">
<rect width="100" height="40" rx="20" fill="#2E7642" fill-opacity="0.89"/>
<path d="M36.9844 28V12.7273H47.723V16.0682H41.1307V18.6932H47.0668V22.0341H41.1307V28H36.9844ZM49.3077 28V16.5455H53.4242V28H49.3077ZM51.3659 15.3523C50.8091 15.3523 50.3319 15.1683 49.9341 14.8004C49.5364 14.4325 49.3375 13.9901 49.3375 13.473C49.3375 12.956 49.5364 12.5135 49.9341 12.1456C50.3319 11.7777 50.8091 11.5938 51.3659 11.5938C51.9277 11.5938 52.405 11.7777 52.7978 12.1456C53.1955 12.5135 53.3944 12.956 53.3944 13.473C53.3944 13.9901 53.1955 14.4325 52.7978 14.8004C52.405 15.1683 51.9277 15.3523 51.3659 15.3523ZM55.5216 28V16.5455H59.5187V18.723H59.6381C59.8469 17.9176 60.1775 17.3285 60.6299 16.9556C61.0873 16.5827 61.6217 16.3963 62.2332 16.3963C62.4122 16.3963 62.5887 16.4112 62.7627 16.4411C62.9417 16.4659 63.1132 16.5032 63.2773 16.5529V20.0653C63.0734 19.9957 62.8224 19.9435 62.5241 19.9087C62.2258 19.8739 61.9697 19.8565 61.7559 19.8565C61.3532 19.8565 60.9903 19.9485 60.6672 20.1325C60.349 20.3114 60.0979 20.565 59.914 20.8931C59.73 21.2163 59.6381 21.5966 59.6381 22.0341V28H55.5216ZM75.0972 20.2741H71.3089C71.289 20.0405 71.2069 19.8391 71.0628 19.6701C70.9186 19.5011 70.7322 19.3718 70.5035 19.2823C70.2797 19.1879 70.0312 19.1406 69.7577 19.1406C69.4047 19.1406 69.1015 19.2053 68.8479 19.3345C68.5944 19.4638 68.4701 19.6477 68.4751 19.8864C68.4701 20.0554 68.5422 20.212 68.6913 20.3562C68.8454 20.5004 69.1412 20.6122 69.5787 20.6918L71.9055 21.1094C73.0787 21.3232 73.9513 21.6836 74.523 22.1907C75.0997 22.6928 75.3905 23.3665 75.3955 24.2116C75.3905 25.027 75.1469 25.7354 74.6647 26.337C74.1874 26.9336 73.5336 27.396 72.7034 27.7241C71.8781 28.0472 70.936 28.2088 69.877 28.2088C68.127 28.2088 66.7574 27.8509 65.768 27.1349C64.7836 26.419 64.2343 25.4744 64.1199 24.3011H68.2066C68.2613 24.6641 68.4403 24.945 68.7435 25.1438C69.0518 25.3377 69.4395 25.4347 69.9069 25.4347C70.2847 25.4347 70.5954 25.37 70.839 25.2408C71.0876 25.1115 71.2144 24.9276 71.2194 24.6889C71.2144 24.4702 71.105 24.2962 70.8912 24.1669C70.6824 24.0376 70.3543 23.9332 69.9069 23.8537L67.8785 23.4957C66.7101 23.2919 65.8351 22.9041 65.2535 22.3324C64.6718 21.7607 64.3834 21.0249 64.3884 20.125C64.3834 19.3295 64.5922 18.6559 65.0148 18.104C65.4424 17.5472 66.0514 17.1246 66.8419 16.8363C67.6373 16.543 68.5795 16.3963 69.6682 16.3963C71.3238 16.3963 72.6288 16.7393 73.5834 17.4254C74.5429 18.1115 75.0475 19.0611 75.0972 20.2741ZM83.8037 16.5455V19.5284H76.2568V16.5455H83.8037ZM77.7185 13.8011H81.835V24.3161C81.835 24.4751 81.8623 24.6094 81.917 24.7188C81.9717 24.8232 82.0562 24.9027 82.1705 24.9574C82.2849 25.0071 82.4316 25.032 82.6105 25.032C82.7348 25.032 82.879 25.017 83.0431 24.9872C83.2121 24.9574 83.3364 24.9325 83.4159 24.9126L84.0125 27.8061C83.8286 27.8608 83.5651 27.9279 83.222 28.0075C82.884 28.087 82.4813 28.1392 82.0139 28.1641C81.0693 28.2138 80.2764 28.1168 79.635 27.8732C78.9937 27.6246 78.5115 27.2344 78.1883 26.7024C77.8651 26.1705 77.7085 25.5043 77.7185 24.7038V13.8011Z" fill="#EDEDED"/>
<rect x="8" y="8" width="23.33" height="23.59" rx="11.665" fill="white"/>
</svg>
