<svg width="100" height="40" viewBox="0 0 100 40" fill="none" xmlns="http://www.w3.org/2000/svg">
<rect width="100" height="40" rx="20" fill="#C80D0D" fill-opacity="0.72"/>
<path d="M72 20.665C72 14.2226 77.2226 9 83.665 9C90.1074 9 95.33 14.2226 95.33 20.665V20.925C95.33 27.3674 90.1074 32.59 83.665 32.59C77.2226 32.59 72 27.3674 72 20.925V20.665Z" fill="#36332D"/>
<path d="M12.125 27V9.54545H16.8636V23.1818H23.9205V27H12.125ZM29.5518 27.2045C28.7166 27.2045 27.978 27.0682 27.3359 26.7955C26.6996 26.517 26.1996 26.0966 25.8359 25.5341C25.4723 24.9716 25.2905 24.2557 25.2905 23.3864C25.2905 22.6705 25.4126 22.0597 25.657 21.554C25.9013 21.0426 26.2422 20.625 26.6797 20.3011C27.1172 19.9773 27.6257 19.7301 28.2053 19.5597C28.7905 19.3892 29.4212 19.2784 30.0973 19.2273C30.8303 19.1705 31.4183 19.1023 31.8615 19.0227C32.3104 18.9375 32.6342 18.821 32.8331 18.6733C33.032 18.5199 33.1314 18.3182 33.1314 18.0682V18.0341C33.1314 17.6932 33.0007 17.4318 32.7393 17.25C32.478 17.0682 32.1428 16.9773 31.7337 16.9773C31.2848 16.9773 30.9183 17.0767 30.6342 17.2756C30.3558 17.4687 30.1882 17.767 30.1314 18.1705H25.8018C25.8587 17.375 26.1115 16.642 26.5604 15.9716C27.0149 15.2955 27.6768 14.7557 28.5462 14.3523C29.4155 13.9432 30.5007 13.7386 31.8018 13.7386C32.7393 13.7386 33.5803 13.8494 34.3246 14.071C35.0689 14.2869 35.7024 14.5909 36.2251 14.983C36.7479 15.3693 37.1456 15.8239 37.4183 16.3466C37.6967 16.8636 37.8359 17.4261 37.8359 18.0341V27H33.4382V25.1591H33.3359C33.0746 25.6477 32.7564 26.0426 32.3814 26.3438C32.0121 26.6449 31.5888 26.8636 31.1115 27C30.6399 27.1364 30.12 27.2045 29.5518 27.2045ZM31.0859 24.2386C31.4439 24.2386 31.7791 24.1648 32.0916 24.017C32.4098 23.8693 32.6683 23.6562 32.8672 23.3778C33.0661 23.0994 33.1655 22.7614 33.1655 22.3636V21.2727C33.0405 21.3239 32.907 21.3722 32.7649 21.4176C32.6286 21.4631 32.4808 21.5057 32.3217 21.5455C32.1683 21.5852 32.0036 21.6222 31.8274 21.6562C31.657 21.6903 31.478 21.7216 31.2905 21.75C30.9268 21.8068 30.6286 21.9006 30.3956 22.0312C30.1683 22.1562 29.9979 22.3125 29.8842 22.5C29.7763 22.6818 29.7223 22.8864 29.7223 23.1136C29.7223 23.4773 29.8501 23.7557 30.1058 23.9489C30.3615 24.142 30.6882 24.2386 31.0859 24.2386ZM52.0497 18.1705H47.7202C47.6974 17.9034 47.6037 17.6733 47.4389 17.4801C47.2741 17.2869 47.0611 17.1392 46.7997 17.0369C46.544 16.929 46.2599 16.875 45.9474 16.875C45.544 16.875 45.1974 16.9489 44.9077 17.0966C44.6179 17.2443 44.4759 17.4545 44.4815 17.7273C44.4759 17.9205 44.5582 18.0994 44.7287 18.2642C44.9048 18.429 45.2429 18.5568 45.7429 18.6477L48.402 19.125C49.7429 19.3693 50.7401 19.7812 51.3935 20.3608C52.0526 20.9347 52.3849 21.7045 52.3906 22.6705C52.3849 23.6023 52.1065 24.4119 51.5554 25.0994C51.0099 25.7812 50.2628 26.3097 49.3139 26.6847C48.3707 27.054 47.294 27.2386 46.0838 27.2386C44.0838 27.2386 42.5185 26.8295 41.3878 26.0114C40.2628 25.1932 39.6349 24.1136 39.5043 22.7727H44.1747C44.2372 23.1875 44.4418 23.5085 44.7884 23.7358C45.1406 23.9574 45.5838 24.0682 46.1179 24.0682C46.5497 24.0682 46.9048 23.9943 47.1832 23.8466C47.4673 23.6989 47.6122 23.4886 47.6179 23.2159C47.6122 22.9659 47.4872 22.767 47.2429 22.6193C47.0043 22.4716 46.6293 22.3523 46.1179 22.2614L43.7997 21.8523C42.4645 21.6193 41.4645 21.1761 40.7997 20.5227C40.1349 19.8693 39.8054 19.0284 39.8111 18C39.8054 17.0909 40.044 16.321 40.527 15.6903C41.0156 15.054 41.7116 14.571 42.6151 14.2415C43.5241 13.9062 44.6009 13.7386 45.8452 13.7386C47.7372 13.7386 49.2287 14.1307 50.3196 14.9148C51.4162 15.6989 51.9929 16.7841 52.0497 18.1705ZM62 13.9091V17.3182H53.375V13.9091H62ZM55.0455 10.7727H59.75V22.7898C59.75 22.9716 59.7812 23.125 59.8438 23.25C59.9062 23.3693 60.0028 23.4602 60.1335 23.5227C60.2642 23.5795 60.4318 23.608 60.6364 23.608C60.7784 23.608 60.9432 23.5909 61.1307 23.5568C61.3239 23.5227 61.4659 23.4943 61.5568 23.4716L62.2386 26.7784C62.0284 26.8409 61.7273 26.9176 61.3352 27.0085C60.9489 27.0994 60.4886 27.1591 59.9545 27.1875C58.875 27.2443 57.9688 27.1335 57.2358 26.8551C56.5028 26.571 55.9517 26.125 55.5824 25.517C55.2131 24.9091 55.0341 24.1477 55.0455 23.233V10.7727Z" fill="#EDEDED"/>
</svg>
