<svg width="70" height="64" viewBox="0 0 70 64" fill="none" xmlns="http://www.w3.org/2000/svg">
<path d="M34.6542 0C15.517 0 0 14.2518 0 31.8285C0 49.4053 15.517 63.6571 34.6542 63.6571C53.7913 63.6571 69.3084 49.4053 69.3084 31.8285C69.3084 14.2518 53.7913 0 34.6542 0ZM49.506 33.5336C49.506 33.8463 49.2275 34.102 48.8871 34.102H37.1295V44.901C37.1295 45.2136 36.851 45.4694 36.5107 45.4694H32.7977C32.4574 45.4694 32.1789 45.2136 32.1789 44.901V34.102H20.4212C20.0809 34.102 19.8024 33.8463 19.8024 33.5336V30.1234C19.8024 29.8108 20.0809 29.5551 20.4212 29.5551H32.1789V18.7561C32.1789 18.4435 32.4574 18.1877 32.7977 18.1877H36.5107C36.851 18.1877 37.1295 18.4435 37.1295 18.7561V29.5551H48.8871C49.2275 29.5551 49.506 29.8108 49.506 30.1234V33.5336Z" fill="#3EB760"/>
</svg>
