<svg width="69" height="65" viewBox="0 0 69 65" fill="none" xmlns="http://www.w3.org/2000/svg">
<path fill-rule="evenodd" clip-rule="evenodd" d="M34.5 64.3726C43.65 64.3726 52.4252 61.0012 58.8952 55C65.3652 48.9988 69 40.8595 69 32.3726C69 23.8857 65.3652 15.7463 58.8952 9.74517C52.4252 3.744 43.65 0.372583 34.5 0.372583C25.35 0.372583 16.5748 3.744 10.1048 9.74517C3.63481 15.7463 0 23.8857 0 32.3726C0 40.8595 3.63481 48.9988 10.1048 55C16.5748 61.0012 25.35 64.3726 34.5 64.3726ZM28.9239 21.5446C28.1106 20.816 27.0212 20.4128 25.8905 20.4219C24.7598 20.431 23.6782 20.8517 22.8786 21.5933C22.079 22.3349 21.6255 23.3382 21.6157 24.387C21.6058 25.4358 22.0405 26.4462 22.8261 27.2006L28.4021 32.3726L22.8261 37.5446C22.4142 37.9136 22.0856 38.355 21.8596 38.843C21.6336 39.331 21.5146 39.8559 21.5097 40.387C21.5047 40.9181 21.6138 41.4448 21.8306 41.9364C22.0475 42.428 22.3677 42.8746 22.7726 43.2502C23.1775 43.6257 23.659 43.9227 24.189 44.1239C24.719 44.325 25.2869 44.4262 25.8595 44.4216C26.4321 44.417 26.998 44.3066 27.5241 44.097C28.0503 43.8874 28.5261 43.5826 28.9239 43.2006L34.5 38.0286L40.0761 43.2006C40.8894 43.9292 41.9788 44.3324 43.1095 44.3233C44.2402 44.3142 45.3218 43.8935 46.1214 43.1519C46.921 42.4102 47.3745 41.407 47.3843 40.3582C47.3942 39.3094 46.9595 38.299 46.1739 37.5446L40.5979 32.3726L46.1739 27.2006C46.9595 26.4462 47.3942 25.4358 47.3843 24.387C47.3745 23.3382 46.921 22.3349 46.1214 21.5933C45.3218 20.8517 44.2402 20.431 43.1095 20.4219C41.9788 20.4128 40.8894 20.816 40.0761 21.5446L34.5 26.7166L28.9239 21.5446Z" fill="#B70000"/>
</svg>
