<svg width="100" height="40" viewBox="0 0 100 40" fill="none" xmlns="http://www.w3.org/2000/svg">
<rect width="100" height="40" rx="20" fill="#C80D0D" fill-opacity="0.72"/>
<path d="M72 20.665C72 14.2226 77.2226 9 83.665 9V9C90.1074 9 95.33 14.2226 95.33 20.665V20.925C95.33 27.3674 90.1074 32.59 83.665 32.59V32.59C77.2226 32.59 72 27.3674 72 20.925V20.665Z" fill="#36332D"/>
<path d="M6.75 26V14.3636H11.7727C12.6364 14.3636 13.392 14.5208 14.0398 14.8352C14.6875 15.1496 15.1913 15.6023 15.5511 16.1932C15.911 16.7841 16.0909 17.4924 16.0909 18.3182C16.0909 19.1515 15.9053 19.8542 15.5341 20.4261C15.1667 20.9981 14.6496 21.4299 13.983 21.7216C13.3201 22.0133 12.5455 22.1591 11.6591 22.1591H8.65909V19.7045H11.0227C11.3939 19.7045 11.7102 19.6591 11.9716 19.5682C12.2367 19.4735 12.4394 19.3239 12.5795 19.1193C12.7235 18.9148 12.7955 18.6477 12.7955 18.3182C12.7955 17.9848 12.7235 17.714 12.5795 17.5057C12.4394 17.2936 12.2367 17.1383 11.9716 17.0398C11.7102 16.9375 11.3939 16.8864 11.0227 16.8864H9.90909V26H6.75ZM13.5682 20.6591L16.4773 26H13.0455L10.2045 20.6591H13.5682ZM21.4773 26.1591C20.5455 26.1591 19.7424 25.9811 19.0682 25.625C18.3977 25.2652 17.8807 24.75 17.517 24.0795C17.1572 23.4053 16.9773 22.5985 16.9773 21.6591C16.9773 20.7576 17.1591 19.9697 17.5227 19.2955C17.8864 18.6212 18.3996 18.0966 19.0625 17.7216C19.7254 17.3466 20.5076 17.1591 21.4091 17.1591C22.0682 17.1591 22.6648 17.2614 23.1989 17.4659C23.733 17.6705 24.1894 17.9678 24.5682 18.358C24.947 18.7443 25.2386 19.214 25.4432 19.767C25.6477 20.3201 25.75 20.9432 25.75 21.6364V22.3636H17.9545V20.6364H22.8636C22.8598 20.3864 22.7955 20.1667 22.6705 19.9773C22.5492 19.7841 22.3845 19.6345 22.1761 19.5284C21.9716 19.4186 21.7386 19.3636 21.4773 19.3636C21.2235 19.3636 20.9905 19.4186 20.7784 19.5284C20.5663 19.6345 20.3958 19.7822 20.267 19.9716C20.142 20.161 20.0758 20.3826 20.0682 20.6364V22.5C20.0682 22.7803 20.1269 23.0303 20.2443 23.25C20.3617 23.4697 20.5303 23.642 20.75 23.767C20.9697 23.892 21.2348 23.9545 21.5455 23.9545C21.7614 23.9545 21.9583 23.9242 22.1364 23.8636C22.3182 23.803 22.4735 23.7159 22.6023 23.6023C22.7311 23.4848 22.8258 23.3447 22.8864 23.1818H25.75C25.6515 23.7879 25.4186 24.3144 25.0511 24.7614C24.6837 25.2045 24.197 25.5492 23.5909 25.7955C22.9886 26.0379 22.2841 26.1591 21.4773 26.1591ZM27.0298 26V17.2727H30.0071V18.9318H30.098C30.2798 18.3864 30.5904 17.9545 31.0298 17.6364C31.4692 17.3182 31.992 17.1591 32.598 17.1591C33.2116 17.1591 33.7401 17.322 34.1832 17.6477C34.6264 17.9697 34.8935 18.3977 34.9844 18.9318H35.0753C35.223 18.3977 35.5374 17.9697 36.0185 17.6477C36.4995 17.322 37.0639 17.1591 37.7116 17.1591C38.5488 17.1591 39.2268 17.428 39.7457 17.9659C40.2685 18.5038 40.5298 19.2197 40.5298 20.1136V26H37.3935V20.9091C37.3935 20.5265 37.2969 20.2273 37.1037 20.0114C36.9105 19.7917 36.651 19.6818 36.3253 19.6818C36.0033 19.6818 35.7476 19.7917 35.5582 20.0114C35.3726 20.2273 35.2798 20.5265 35.2798 20.9091V26H32.2798V20.9091C32.2798 20.5265 32.1832 20.2273 31.9901 20.0114C31.7969 19.7917 31.5374 19.6818 31.2116 19.6818C30.9957 19.6818 30.8101 19.7311 30.6548 19.8295C30.4995 19.928 30.3783 20.0701 30.2912 20.2557C30.2079 20.4375 30.1662 20.6553 30.1662 20.9091V26H27.0298ZM46.2812 26.1591C45.3343 26.1591 44.5237 25.9716 43.8494 25.5966C43.1752 25.2178 42.6581 24.6913 42.2983 24.017C41.9384 23.339 41.7585 22.553 41.7585 21.6591C41.7585 20.7652 41.9384 19.9811 42.2983 19.3068C42.6581 18.6288 43.1752 18.1023 43.8494 17.7273C44.5237 17.3485 45.3343 17.1591 46.2812 17.1591C47.2282 17.1591 48.0388 17.3485 48.7131 17.7273C49.3873 18.1023 49.9044 18.6288 50.2642 19.3068C50.6241 19.9811 50.804 20.7652 50.804 21.6591C50.804 22.553 50.6241 23.339 50.2642 24.017C49.9044 24.6913 49.3873 25.2178 48.7131 25.5966C48.0388 25.9716 47.2282 26.1591 46.2812 26.1591ZM46.304 23.8409C46.5691 23.8409 46.7983 23.7519 46.9915 23.5739C47.1847 23.3958 47.3343 23.142 47.4403 22.8125C47.5464 22.483 47.5994 22.0909 47.5994 21.6364C47.5994 21.178 47.5464 20.786 47.4403 20.4602C47.3343 20.1307 47.1847 19.8769 46.9915 19.6989C46.7983 19.5208 46.5691 19.4318 46.304 19.4318C46.0237 19.4318 45.7831 19.5208 45.5824 19.6989C45.3816 19.8769 45.2282 20.1307 45.1222 20.4602C45.0161 20.786 44.9631 21.178 44.9631 21.6364C44.9631 22.0909 45.0161 22.483 45.1222 22.8125C45.2282 23.142 45.3816 23.3958 45.5824 23.5739C45.7831 23.7519 46.0237 23.8409 46.304 23.8409ZM60.6065 17.2727L57.6747 26H54.0384L51.1065 17.2727H54.402L55.8111 23.0455H55.902L57.3111 17.2727H60.6065ZM65.4148 26.1591C64.483 26.1591 63.6799 25.9811 63.0057 25.625C62.3352 25.2652 61.8182 24.75 61.4545 24.0795C61.0947 23.4053 60.9148 22.5985 60.9148 21.6591C60.9148 20.7576 61.0966 19.9697 61.4602 19.2955C61.8239 18.6212 62.3371 18.0966 63 17.7216C63.6629 17.3466 64.4451 17.1591 65.3466 17.1591C66.0057 17.1591 66.6023 17.2614 67.1364 17.4659C67.6705 17.6705 68.1269 17.9678 68.5057 18.358C68.8845 18.7443 69.1761 19.214 69.3807 19.767C69.5852 20.3201 69.6875 20.9432 69.6875 21.6364V22.3636H61.892V20.6364H66.8011C66.7973 20.3864 66.733 20.1667 66.608 19.9773C66.4867 19.7841 66.322 19.6345 66.1136 19.5284C65.9091 19.4186 65.6761 19.3636 65.4148 19.3636C65.161 19.3636 64.928 19.4186 64.7159 19.5284C64.5038 19.6345 64.3333 19.7822 64.2045 19.9716C64.0795 20.161 64.0133 20.3826 64.0057 20.6364V22.5C64.0057 22.7803 64.0644 23.0303 64.1818 23.25C64.2992 23.4697 64.4678 23.642 64.6875 23.767C64.9072 23.892 65.1723 23.9545 65.483 23.9545C65.6989 23.9545 65.8958 23.9242 66.0739 23.8636C66.2557 23.803 66.411 23.7159 66.5398 23.6023C66.6686 23.4848 66.7633 23.3447 66.8239 23.1818H69.6875C69.589 23.7879 69.3561 24.3144 68.9886 24.7614C68.6212 25.2045 68.1345 25.5492 67.5284 25.7955C66.9261 26.0379 66.2216 26.1591 65.4148 26.1591Z" fill="#EDEDED"/>
</svg>
